<?xml version="1.0" encoding="iso-8859-1"?>
<!-- Generator: Adobe Illustrator 19.0.0, SVG Export Plug-In . SVG Version: 6.00 Build 0)  -->
<svg version="1.1" id="Layer_1" xmlns="http://www.w3.org/2000/svg" xmlns:xlink="http://www.w3.org/1999/xlink" x="0px" y="0px"
	 viewBox="0 0 511.998 511.998" style="enable-background:new 0 0 511.998 511.998;" xml:space="preserve">
<g>
	<g>
		<polygon points="336.038,162.408 285.68,147.563 255.999,104.257 226.318,147.563 175.96,162.408 207.976,204.018 206.531,256.5 
			256,238.909 305.469,256.5 304.022,204.018 		"/>
	</g>
</g>
<g>
	<g>
		<polygon points="160.08,162.407 109.721,147.562 80.041,104.255 50.36,147.561 0,162.407 32.017,204.018 30.572,256.5 
			80.041,238.909 129.507,256.5 128.064,204.017 		"/>
	</g>
</g>
<g>
	<g>
		<polygon points="511.998,162.408 461.638,147.563 431.957,104.256 402.277,147.563 351.918,162.408 383.934,204.018 
			382.492,256.5 431.958,238.909 481.427,256.5 479.98,204.018 		"/>
	</g>
</g>
<g>
	<g>
		<polygon points="424.016,313.652 373.658,298.807 343.978,255.499 314.298,298.807 263.939,313.652 295.954,355.262 
			294.51,407.743 343.979,390.153 393.447,407.743 392.001,355.262 		"/>
	</g>
</g>
<g>
	<g>
		<polygon points="248.059,313.651 197.7,298.806 168.02,255.498 138.34,298.806 87.982,313.651 119.996,355.262 118.552,407.743 
			168.02,390.153 217.489,407.743 216.044,355.261 		"/>
	</g>
</g>
<g>
</g>
<g>
</g>
<g>
</g>
<g>
</g>
<g>
</g>
<g>
</g>
<g>
</g>
<g>
</g>
<g>
</g>
<g>
</g>
<g>
</g>
<g>
</g>
<g>
</g>
<g>
</g>
<g>
</g>
</svg>
