<?xml version="1.0" encoding="iso-8859-1"?>
<!-- Generator: Adobe Illustrator 19.0.0, SVG Export Plug-In . SVG Version: 6.00 Build 0)  -->
<svg version="1.1" id="Capa_1" xmlns="http://www.w3.org/2000/svg" xmlns:xlink="http://www.w3.org/1999/xlink" x="0px" y="0px"
	 viewBox="0 0 480 480" style="enable-background:new 0 0 480 480;" xml:space="preserve">
<g>
	<g>
		<g>
			<rect x="152" y="176" width="80" height="16"/>
			<rect x="152" y="216" width="144" height="16"/>
			<rect x="72" y="256" width="224" height="16"/>
			<rect x="248" y="176" width="48" height="16"/>
			<rect x="72" y="296" width="168" height="16"/>
			<rect x="72" y="336" width="168" height="16"/>
			<rect x="72" y="376" width="48" height="16"/>
			<rect x="136" y="376" width="104" height="16"/>
			<rect x="72" y="176" width="56" height="16"/>
			<rect x="72" y="216" width="64" height="16"/>
			<path d="M360,272c-2.704,0-5.352,0.2-8,0.408V8c0-4.418-3.582-8-8-8H24c-4.418,0-8,3.582-8,8v464c0,4.418,3.582,8,8,8h336
				c57.438,0,104-46.562,104-104S417.438,272,360,272z M32,464V16h304v258.904c-55.806,13.136-90.397,69.025-77.261,124.831
				c6.275,26.659,22.831,49.758,46.061,64.265H32z M360,464c-48.601,0-88-39.399-88-88c0-48.601,39.399-88,88-88
				c48.601,0,88,39.399,88,88C447.943,424.577,408.577,463.943,360,464z"/>
			
				<rect x="124.122" y="87.995" transform="matrix(-0.7071 0.7071 -0.7071 -0.7071 395.6532 28.1043)" width="135.769" height="16"/>
			<path d="M160,88c13.255,0,24-10.745,24-24s-10.745-24-24-24s-24,10.745-24,24S146.745,88,160,88z M160,56c4.418,0,8,3.582,8,8
				s-3.582,8-8,8s-8-3.582-8-8S155.582,56,160,56z"/>
			<path d="M224,104c-13.255,0-24,10.745-24,24s10.745,24,24,24s24-10.745,24-24S237.255,104,224,104z M224,136
				c-4.418,0-8-3.582-8-8s3.582-8,8-8s8,3.582,8,8S228.418,136,224,136z"/>
			<path d="M413.656,338.344l-16-16c-3.124-3.123-8.188-3.123-11.312,0L360,348.688l-26.344-26.344
				c-3.124-3.123-8.188-3.123-11.312,0l-16,16c-3.123,3.124-3.123,8.188,0,11.312L332.688,376l-26.344,26.344
				c-3.123,3.124-3.123,8.188,0,11.312l16,16c3.124,3.123,8.188,3.123,11.312,0L360,403.312l26.344,26.344
				c3.124,3.123,8.188,3.123,11.312,0l16-16c3.123-3.124,3.123-8.188,0-11.312L387.312,376l26.344-26.344
				C416.779,346.532,416.779,341.468,413.656,338.344z M370.344,370.344c-3.123,3.124-3.123,8.188,0,11.312L396.688,408L392,412.688
				l-26.344-26.344c-3.124-3.123-8.188-3.123-11.312,0L328,412.688L323.312,408l26.344-26.344c3.123-3.124,3.123-8.188,0-11.312
				L323.312,344l4.688-4.688l26.344,26.344c3.124,3.123,8.188,3.123,11.312,0L392,339.312l4.688,4.688L370.344,370.344z"/>
		</g>
	</g>
</g>
<g>
</g>
<g>
</g>
<g>
</g>
<g>
</g>
<g>
</g>
<g>
</g>
<g>
</g>
<g>
</g>
<g>
</g>
<g>
</g>
<g>
</g>
<g>
</g>
<g>
</g>
<g>
</g>
<g>
</g>
</svg>
