<?xml version="1.0" encoding="utf-8"?>
<!-- Generator: Adobe Illustrator 24.0.0, SVG Export Plug-In . SVG Version: 6.00 Build 0)  -->
<svg version="1.1" id="Layer_1" xmlns="http://www.w3.org/2000/svg" xmlns:xlink="http://www.w3.org/1999/xlink" x="0px" y="0px"
	 viewBox="0 0 1146.7 289.4" style="enable-background:new 0 0 1146.7 289.4;" xml:space="preserve">
<style type="text/css">
	.st0{fill:#9B2417;}
	.st1{fill:#8A7736;}
	.st2{fill:#454546;}
	.st3{fill:#5D5C5E;}
	.st4{fill:#838486;}
	.st5{fill:#0C441E;}
	.st6{fill:#F9F9F7;}
	.st7{fill:#2C2722;}
	.st8{fill:#7E6A2C;}
	.st9{fill:#695922;}
	.st10{fill:#FADC04;}
	.st11{fill:#02431B;}
	.st12{fill:#FAFBFA;}
	.st13{fill:#115EA8;}
	.st14{fill:#54A66C;}
</style>
<g>
	<path class="st0" d="M161.4,248.7c-25.2,4.3-50.6,7.8-75.9,11.2c-2.5,0.3-3.1-0.5-3.3-2.8c-0.8-7.6-3.8-10-11.4-10.1
		c-5.9,0-11.5,1.7-16.9,3.7c-6.1,2.3-12.1,4.5-18.2,6.8c-8.3-8.8-15.8-18.2-22.4-28.4c-1-1.5-1.7-3.2-2.5-4.8
		c6.3-3.6,13.5-4.9,20.4-7.1c1.3,1.4,2.5,2.4,4.5,0.9c1.8-1.3,3.7-2.1,6.4-1.6c3.7,0.7,7.7-0.7,10.9,2.4c0.2,0.2,1.4-0.6,2.2-0.9
		c0.5,4.6-0.3,9-3.9,12.7c5.9-1.7,11.1-3.8,16.7-1.5c0.1,0.7,0.2,1.3,0.2,2l-0.1,0.1c-1.1,0-2.2,0-2.7,0c-2.5,1.6,3.3,2.2-0.2,3.8
		c-0.4-0.2-0.8-0.4-1.2-0.6c-0.1,0-0.2,0.2-0.3,0.3c0.4,0.2,0.8,0.4,1.2,0.6c0.7,1.7,1.7,3.9,3.9,2.7c4.6-2.5,9.1-3.2,13.8-0.4
		c2-3.5,3.5,2.4,5.2,0.4c1.6-1.9,3-1.6,4.8-0.5c1.6,1,3.3,0.2,4-0.8c0.8-1.2,1.9-3.1,1.1-4.6c-0.8-1.6-2.4,0-3.5-0.1
		c-2.4-0.3-5.2-0.6-6.8-2c-1.5-1.4,1.6-2.2,2.6-3.4c-2-0.8-5.1,0.7-5.3-0.9c-0.5-4.3-2.5-2-4.3-1.6c-0.7,0.2-1.1,1-2.2,0.4
		c-2.6-1.7-6.3-0.1-7.2,3c-2.7-0.7-5.3-1.9-8-2c-5.1-0.2-6.4-2.8-6-7.3c2-0.2,4.7,1,5.7-1.4c0.5-1.3,2.5-3.7-0.4-5.1
		c2.5-0.3,5-0.6,7.5-0.9c0,2,0,4.1,0,6.1c1.7-0.1,3.1-0.4,4.7-0.3c1.8,0.1,3.4,2.5,4.4,1.4c3.5-3.9,4.8-0.4,6.5,1.6
		c3.2-3.2,2.5-8.5,6.6-11.1c2.4-0.3,4.7-1.2,7.1-0.6c2.9,1,2.9,1,2,3.5c-0.2,0.7,0.3,0.7,0.6,1c1.6,1.6,2.9,3.8,5.7,1.6
		c1.9-1.5,3.8-1.7,6.4-1.2c5.6,1,11.4,1.1,17.1,1.4c1.2,0.1,2.9,0.2,3.2-1.5c0.3-1.4,1.6-2.7,0.6-4.2c-1.1-1.5-2.3,0-3.4-0.1
		c-2.4-0.1-5-0.5-7-2.1c5.3-0.1,10.6-0.3,15.9-0.4c2.1,2.5-0.7,5.1,0.2,7.6c2.9,0.5,6.3-1.5,8.5,1.8c0.5,0.7,1.2,0.6,1.7,0
		c3.5-4.7,5-0.6,7,2.1c0-2.3,2.8-2.3,2.5-4.4c-0.5-3.4,1.7-5.5,3.6-7.8c2.9,0,5.7,0.1,8.6,0.1c0.1,0.1,0.3,0.2,0.3,0.3
		s0,0.3-0.1,0.5c-0.4,0.5-2.6-0.2-1.3,1.4c0.9,1.1,1.9,3.7,3.7,2.5c3.2-2.1,6.4-2.1,10-2.5c2.2-0.2,4.3,2.6,6.4,0
		c0.8,2.5,3.9,3.6,4.2,6.5c-3.2,1.2-6.2-1-9.8-0.5c2.3,2,5.4,2.4,5.8,5.8c-2-0.3-3.8-0.6-5.7-0.8c0.7,2.1,3.2,2.1,3.6,4.1
		c-0.7,1.3-2.2-1.1-3,1c2.3,0.2,2.2,4.5,4.7,3.4c3.8-1.7,7.6-1.9,11.5-2.6c2.8-0.5,5,3.2,7.4,0.3c0.3,0.6,0.8,1.1,0.9,1.7
		c0.3,2.2-1.7,2.2-2.9,2.7c-0.9,0.4-2.3,2.4-3-0.3c-0.2-0.6-0.4-1.6-1.1-1.2c-1.7,1-2.6,3.9-5.4,2.2c-0.3,5.5-4.6,1-6.5,2.6
		c-0.3-0.6-0.6-1.1-1.3-0.3c0.4,0.1,0.9,0.2,1.3,0.3c0.5,1.7,3.1,1.8,3,4l-0.2,0.2c-1.3,0.4-2.8-0.6-4.5,0.7c4.3,1.1,0.8,5.1,3,7
		c-4.5,0.7-9.1,1.3-13.6,2c-0.3-0.9,1.9-2.5-0.3-2.6c-5.3-0.4-0.7-2.7-0.7-3.8c-3.3-1.5-6.3,4.4-9.2-0.3c0,0-0.8,0.3-1.2,0.6
		c-4.4,3.2-6.1,3.8-10.8,3.4c-0.2,0-0.4,0.3-0.6,0.5C158.8,245.2,161.6,245.7,161.4,248.7z M114.3,220.3c-0.1-0.1-0.2-0.2-0.4-0.4
		c0-0.8,0.1-2.2-0.2-2.3c-3.1-0.9-5.8,1.7-9,1.5c-0.5,0-1.3,1-2.6,0c-2.5-2-4.5-4.9-9-4.7c2.5,2,4.7,4,4.2,6.4
		c-1.1,5.8,1.5,7.2,6.5,7.4c0.9,0,1.8,1.1,2.7,0c1.5-1.8,2.8-0.8,3.5,0.6c1.4,3,2.7,0.2,3-0.3c1.4-2.4,0.9-5.7,3.3-7.8
		C116.6,220.7,115.1,220.5,114.3,220.3z M115.3,242c-0.4-0.5-0.9-0.9-1.5-0.2c0.4,0.3,0.7,0.5,1.1,0.8c1.6,3.8,3.7,4.3,7.3,2
		c3.8-2.4,8-0.6,12.1-0.4c2.6,0.1,4.6-0.2,6.3,2c0.1,0.1,1-0.3,1.2-0.6c1.6-2.2,3.4-1.4,5.3-0.4c1.8,1,4.3-0.1,4.6-0.9
		c0.6-1.7,2.2-3.8,1-5.6c-1.2-1.9-2.8,0-4.3,0.2c-2.9,0.3-6-1-7.5-2.7s1.8-2.7,3.4-3.5c-2-1.8-8,2.6-6.2-4.5
		c-2.8-0.2-4.9,1.8-7.1,2.4c-1.7-0.2-0.3-5.7-2.7-2.2c-2.2,3.2-3.8,1.1-5.6,1.1c1,7-5.1,1.6-6.6,4.3c1.1,1.1,3.1,1.8,3,4.2
		c-2-0.2-3.8-0.4-6.2-0.7c1.5,1.4,2.8,2.3,3.6,3.4C117.3,242,116.1,241.9,115.3,242z M151.8,226.1c0.8,1.7,3.5,3,2.5,3.5
		c-3.7,2,0.4,2.5,0.6,3.3c0.5,1.9,2.1,0.7,3.3,0.1c2.2-1.1,4.1-2.2,7-1.5c3.3,0.8,7.1-1.1,9.8,2.3c0.1,0.1,0.8,0.1,0.9-0.1
		c1.9-2.3,4.1-1.1,6.3-0.8c2.1,0.2,3.6-1.6,3.8-3.8c0.3-3-1.9-1.8-3.4-1.8c-4.9-0.2-8.1-3-9.2-8.1c-0.4-1.7-1.4-0.6-2.2-0.8
		c-1.8-0.4-4.2,4.7-5.4-0.6c-0.4,0.1-1.2,0.3-1.2,0.4c-0.5,4.2-3.2,0.6-4.5,1.1c-1,1.3,1.8,2.2,0.1,3.5c-2.3-0.4-4.6-1-7-0.4
		c1.2,1.5,3.7,1.6,3.7,4.4C155.4,226.6,154,226.4,151.8,226.1z M178.1,221.9c0.1-0.1,0.3-0.1,0.4-0.2c-0.3,0-0.5-0.1-0.8-0.1
		C177.8,221.7,178,221.8,178.1,221.9z"/>
	<path class="st0" d="M299.5,253.6c-6.5-1.6-13.1-1.7-19.7-0.9c-1.5,0.2-2.9,0.7-3.6-1.4c-1.3-4.1-4.8-6.1-8.1-8.3
		c0.8-0.5,1.6-1.2,2.5-1.5c2.5-0.8,11.1,0.4,13.4,1.9c0.7,0.5,1.2,0.5,1.7,0c1.5-1.6,3.1-1.1,5-0.6c3.2,0.8,5.1-1.3,5.1-4.3
		c0-3.4-2.5-0.9-3.9-1.4c-2.2-0.7-5.2,0.1-6.5-2.1c-1-1.7,1.7-2.3,2.4-3.2c-1.6-1.9-5,2.2-5.2-1.3c-0.2-3.6-1.8-1.9-3.2-1.7
		c-0.6-0.5-1.2-1-1.8-1.5c-0.1-0.7-0.2-1.4-0.3-2c2.3-0.8,4-3,6.7-3c5.5,0,10.8,1.5,16.4,1.6c4.6,0.1,6.1-0.9,7.2-4.6
		c4.4,1.6,9.1,2.6,13.2,5.2C315.2,235.3,306.9,244.1,299.5,253.6z"/>
	<path class="st1" d="M121,35.2c-0.1-3.5,2.6-6.1,2.7-9.6c0-1.2,2.6-2.2,4.5-1.1c1.9,1.1,3.8,2,6,2.3c3.8,0.5,4.8,3,3.2,6.5
		c-0.4,0.9-3.7,0.6-1.3,2.5c1.6,1.3,3.1,0.3,4-1.5c1.4-2.8,3.1-4.8,6.6-3.1c1.4,0.7,2.7,1.4,2.5,3.3c-0.2,2.1-1.9,2.3-3.3,2
		c-1.6-0.3-2.7,1.2-2.3,1.5c1.4,1.1,0.5,4.4,3,3.7c3.3-0.9,4.7,1.1,6.2,3.2c9.5-9.4,16-9.4,25.7,0c1.5-2.3,3-4.2,6.3-3.2
		c2.5,0.8,1-3.1,3-3.2c-0.2-1.1-0.2-2.4-2.1-2c-1.5,0.3-3.1,0.5-3.6-1.6c-0.5-1.8,0.7-2.7,2.1-3.5c1.8-1,3.5-1.3,5,0.2
		c1,1,1.6,2.5,2.5,3.6c1,1.3,2.4,1.5,3.5,0.5c2-1.7-0.6-1.4-1-2.1c-2.1-3.2-0.9-6.3,2.8-6.9c0.3-0.1,0.7-0.1,1-0.1
		c3.1,0.1,5.9-4.5,8.5-1.8c2.4,2.6,3.1,6.7,3.8,10.4c-2.5,1.4-3.9,4.4-2.5,6.2c2.5,3-2.4,4.1-0.9,6.4c-6,1.9-2.2,5.4-1.2,8.3
		c0.7,2.2,2.2,3.6,4.9,3.1c3.8-0.6,6.2-3,7.5-6.4c0.9-2.2,0.5-4.4-1.8-5.6c-4.3-2.2-5-5.8-4.3-10.1c0.4-0.7,0.7-1.5,1.3-2.1
		c2.1-2.1,4.6-3.4,7.6-2.3c2.1,0.8,3.3,2.3,3.2,4.6c-0.2,3.1-2,5.2-4.8,6.4c-0.6,0.2-1.2,0.3-2,0.5c6.2,6,3.9,14.1-4.7,17.3
		c-1.5,0.6-4.5-0.2-4.2,2.2c0.5,3.8-3.4,7.8,0.5,11.2c1.7,1.5,2.1,3.1,1.2,4.8c-1.2,2.2-2.2,5.1,0.2,6c2.9,1.2,6.4,3.4,9.7,0.9
		c1.1-0.9,2-1.8,3.5-1c1.4,0.7,1.1,2.1,1.3,3.4c2,15.5,1.1,30.8-1.7,46.1c-1.7,4.9-1.4,10.3-4.7,14.8c-0.8,1.2-3.3,2-2.2,4.3
		c-6.6,15.1-16.8,27.2-30.7,36.2c-1.2,0.8-3.4,0.8-3.3,3v-0.3c-1.4-0.6-2.2,0.5-3.1,1.1c-2.3,1.3-5.2,1.6-7.1,3.7
		c-0.3,0.2-0.7,0.4-1,0.7c-2.7-0.3-5.3,1.3-8.2,0.1c-21.8-8.6-38.2-23-47.7-44.6c-3.2-6.1-5.3-12.5-6.9-19.2
		c-2.7-15.3-3.8-30.6-1.1-46c0.6-3.5,1.2-5.1,4.8-2.4c3.3,2.5,6.7,0.1,9.6-1.1c1.5-0.6,1.3-3.7-0.1-5.7c-1.1-1.5-1-3.3,0.5-4.5
		c3.3-2.5,2-5.1,1-8.3c-1-3.1-1.7-5-5.4-6.1c-7.8-2.2-9.6-11.2-3.6-16.5c-0.3-0.2-0.5-0.4-0.8-0.5c-3.5-1.2-5.7-3.4-5.7-7.3
		c0-2.3,1.5-3.8,3.6-4.2c4-0.8,6.7,1,8.4,4.5c0.4,3.7,0.3,7.1-3.4,9.6c-3.5,2.3-4,6.4-1.5,9.8c1.7,2.4,7.4,3.1,10,1.2
		c3.1-2.3,2.9-7,0.1-10c-1.2-1.3-2.3-4.2-1.6-5.4C125,38.9,123.3,37.1,121,35.2z M188.2,78.1c3.2,2.2,7,2.8,10.5,4.4
		c2.5,1.1,4.1-1.7,6.4-1c0.6-2.2-0.4-4-1.5-5.6c-1.4-2-3.3-3.8-4-6.2c-0.4-1.4-0.5-2.6-2.5-1.6c-2.1,1-0.9,1.8-0.2,3
		c1,1.6,1.6,4-0.4,4.7C193.8,76.8,191.4,79.4,188.2,78.1c0.5-1.6-1.8-2.7-0.7-4.6c1.5-2.8,3.2,1,4.8-0.5c-0.3-3.6-4.8-5.8-3.7-9.8
		c1.1-3.9,4-5.9,8.6-5.5c-2.2-3-5.3-4.8-6.9-8c-0.8-1.6-3.8-3.4-5.9-2.6c-1.8,0.7-4,2.6-4.1,5c-0.4,7.8-4.8,12.3-12.6,14.8
		C174.4,71.9,180.8,76,188.2,78.1z M117,148.1c0.3,1.1,0.3,2.3,0.8,3.4c9,20.7,24.2,35,45.1,43.4c2.3,0.9,4.5,0.5,6.8-0.3
		c6.7-2.6,13-6.1,18.6-10.4c12.2-9.4,21.5-21.1,26.2-36c7.8-17.1,9-35.1,7-53.6c-0.3-2.8-2.4-2.8-4.3-3.2c-9-1.9-17.7-4.5-26.3-7.6
		c-8.2-3-15.5-7.5-23.2-11.4c-2.2-2.7-3-0.4-4.1,1.1c-0.4-0.2-1-0.6-1.2-0.4c-15,9.8-31.7,15-49,18.7c-2,0.4-3,1.3-3.3,3.6
		c-1.5,10.8-1.1,21.5,0.8,32.2C112,134.5,112.9,141.8,117,148.1z M139.2,73.1c1.7,1.2,3.1-2.2,4.5,0.2c0.5,0.9,0.8,1.8,0.1,2.8
		c-0.8,1.1-1.4,2.3-3,2.3c-4.2,0.1-7.3-4.1-5.6-8.1c0.5-1.3,0.4-1.8-0.8-2.2c-0.8-0.3-1.9-1.2-2.3,0.5c-0.6,3.1-2.9,5.1-4.6,7.6
		c-1,1.4-2.2,4.6-1.2,4.8c2,0.4,3.6,2.5,5.7,1.7c11.1-3.8,22-8.1,31.9-15.9c-8-2.3-12.2-7-12.8-15c-0.3-3.7-4.4-5.4-7.8-3.7
		c-4.1,2.1-5,7-8.9,9.3c3.5-0.1,5.7,1.1,7.5,3.7C145.4,66.2,139.5,68.9,139.2,73.1z M214.5,41.3c1.1-1.6,0.5-5.6,4.4-3.2
		c0.7,0.4,0.7,2.1,2,1.1c0.4-0.3,0.7-1.2,0.6-1.8c-0.1-1-0.9-1.7-1.8-2.1C216.7,34.3,214.3,37.1,214.5,41.3z M116,36.8
		c-1.1-1.2-2.2-1.7-3.7-1.5c-1.3,0.2-2.2,0.8-2.5,2.1c-0.1,0.6,0.1,1.5,0.5,1.8c1.8,1.4,1.5-1.1,2.3-1.4
		C113.7,37.4,114.8,37.1,116,36.8z"/>
	<path class="st2" d="M276.2,163.7c-3,0.6-3.5-8-3.1-10.5c1.6-1.8,1.9-3.5-0.3-5c-0.5-0.8-0.3-2.2-1.5-2.4c-1.6-0.2-1.1,1.3-1.2,2.1
		c-1.1,8-4.6,15.5-3.1,23.9c0.5,2.7-1.6,4.1-4.2,3c-2.5-1.1-4.8-3-7.2-4.4c-9.8-5.7-19.6-11.2-29.3-16.9c-3.7-2.2-6.7-0.1-9.9,0.7
		c-1.1-2.3,1.4-3.1,2.2-4.3c3.3-4.5,2.9-10,4.7-14.8c1.6,3.2,1.5,6.7,1.2,10c-0.3,2.9,0.3,4.8,2.8,6.2c9.9,5.4,19.8,11.1,30,16
		c3.7,1.7,6,1.6,6.4-3.1c0.1-0.8,0.3-1.6,0.6-2.4c3.4-11.8,3.1-22.3-8-30.7c-5.3-4-7.9-10.9-11.9-16.4c0.1-0.5,0-1.4,0.2-1.4
		c5.5-1.4,3.5-5.1,2.8-8.5c-0.2-1-1.4-2-0.3-3.2c1.5-0.6,2.6,1.6,4.1,0.6c0.2-1.7-0.8-2.9-1.7-4.1c-0.9-1.3-3.2-2.5-1.6-4.1
		c1.5-1.6,2.8,0.7,4.2,1.3c0.3,0.1,0.6,0,1,0c0.6-2.4-1.1-4.5-0.8-6.8c0.2-1.6-0.8-3.6,0.7-4.7c1.6-1.2,2.4,2,4.4,1.3
		c-0.8-4.8,1.9-3.7,4.6-2.3c-0.4-4.2,3.9-5.6,4.5-9C275,79,283.7,84,292.1,89.3c20,12.7,30.2,30.8,29.7,54.7c-0.2,8.5,0,17-2.2,25.3
		c-0.3,1.3-0.5,2.9-1.8,3.3c-1.6,0.5-2.7-1-3.6-2.2c-1.9-2.4-3.3-6-7.5-3.6c-0.2,0.1-0.7-0.2-0.9-0.4c-5.6-6.8-15.6-6.6-21.2-13.4
		c-1.6-1.9-3.9-3-6.6-3.7C276.1,151.6,278.1,161.6,276.2,163.7z M298.2,99.2c0.4,0.2,0.7,0.5,1.1,0.7c0.1-0.1,0.2-0.3,0.2-0.4
		C299.1,99.4,298.6,99.3,298.2,99.2c0.1-1.5-0.8-2.5-1.9-3.3c-7.1-5.6-14.5-10.7-23.1-13.7c-0.4-0.2-0.7-0.5-1.1-0.7
		c-0.1,0.1-0.2,0.3-0.2,0.4c0.4,0.1,0.9,0.2,1.3,0.4c0,2.1,1.6,3.2,3,4.3C282.7,92.1,289.8,96.8,298.2,99.2z M319.2,149.3
		c1.5-12.7-2.7-23.5-10.7-33.2c-1.2-1.5-13.2-4-14.8-3c-0.9,0.6-1.4,1.7-2.4,2.9c0.1-5.5-3.4-7.1-7.2-5.2c-3.2,1.6-3.8-0.1-5.4-1.7
		c-1.8-1.8-2.8-7.7-6.6-1.6c-0.1,0.1-0.7,0.1-0.8,0c-2.6-3.5-9-1.4-10.4-6.8c-0.2-0.7-1.5-2.1-2.1-0.6c-2,4.4-3.6-0.7-5.3,0
		c-3.5,10.4,3.2,26.8,12.6,31c0.7,0.3,1.2,0.6,2-0.3c3.6-3.9,4-0.7,4.4,2.2c2.4,6.3,5.7,11.7,12.4,14.3c6.5,2.5,13.1,4.6,19.2,8.1
		c2.6,1.5,6,2.1,8.7,2.5C318.5,158.7,318.1,153.1,319.2,149.3z"/>
	<path class="st3" d="M87.2,114.6c-5.4,7.7-10.3,15.8-17.1,22.4c-1.5,1.5-2.8,3.3-4.9,4.1c-2.1-2.8-0.6-6.1-1.1-9.1
		c2.4-2.1,4.9-4,7-6.3c6.8-7.3,8.7-16,7.1-25.5c-2.3-0.6-3.4,2.7-4.3,1.5c-3.6-4.7-4.2,0.1-5.5,1.6c-1.5,1.9-4.2,2.6-5.5,2.1
		c-2.5-1-2.6,3.8-4,1.7c-3.3-4.7-4.3-0.9-5.9,1.1c-1.7,2.2-3,4.6-6.5,2.7c-4.8-2.5-6,1-7,5.3c-1.9-4.7-4.8-3.8-7.6-2.5
		c-1.2,0.6-2.1,1.4-3.6,0.5c-2.4-1.4-4.2,0-5.6,1.8c-8,9.6-12.2,20.5-10.7,33.2c0.4,1.8,0.9,3.5,1.1,5.3c0.4,3,2.8,4.3,4.9,3.4
		c3-1.3,6.2-1.5,9.2-2.7c5.9-2.5,11.7-5.4,17.7-7.6c4.6-1.7,8.2-4.2,10.5-8.5c0.9-1.6,1.9-3.1,3.5-4.1c0.7,3,1.3,6.1,2,9.1
		c0,0.4-0.1,0.8-0.1,1.1c-1,0.2-1.7,0.7-2.2,1.7c-1.9-0.1-3.5,0.5-4.6,2c-2.9,0.5-5.2,2-7.4,3.9c-3.7,3.4-7.6,6.4-12.8,7.3
		c-2.5,0.5-4.2,2.6-6,4.3c-1.4,1.3-2.6,2.7-5.2,1.5c-2.8-1.3-3.2,2-4.6,3.4c-1.3,1.3-2.2,3.5-4.2,3c-1.8-0.4-1.9-2.6-2.1-4.2
		c-3.4-22.8-4.8-45.2,11.1-64.7c5.1-6.3,11.4-11.2,18.2-15.5c7.9-4.9,16-9.6,24-14.4c1.3,3.1,4.5,5.1,4.7,8.8c1.7-0.2,4.2-3,4.6,1.4
		c0.1,0.7,0.8,1.1,1.5,0.6c4.4-2.8,3.3,1,3.3,2.9c-0.1,2.6-0.6,5.2-0.9,7.8c2.2,0.4,3.4-3.5,5.2-1.4c1.9,2.1-1.4,3.2-2.1,4.9
		c-0.5,1.2-1.7,2.2-0.9,3.6c1.5,0.7,2.6-1.6,4.5-0.2c-1.9,4.3-3.9,8.9,2,12C87.2,114.2,87.2,114.5,87.2,114.6z M58.2,82.1
		c-9.8,3.9-18.9,9-26,17c-0.1,0.2-0.3,0.3-0.4,0.5c0.2-0.1,0.3-0.3,0.5-0.4c2.7,0.5,4.7-1.5,6.8-2.4c7.6-3.2,14.7-7.2,19.2-14.6
		c0.4-0.2,0.9-0.3,1.3-0.5c-0.1-0.1-0.3-0.4-0.3-0.4C58.9,81.6,58.5,81.9,58.2,82.1z"/>
	<path class="st4" d="M266.2,73.8c-0.6,3.4-4.8,4.8-4.5,9c-2.7-1.4-5.3-2.5-4.6,2.3c-2,0.7-2.8-2.5-4.4-1.3
		c-1.5,1.1-0.5,3.1-0.7,4.7c-0.3,2.3,1.5,4.4,0.8,6.8c-0.4,0-0.7,0.1-1,0c-1.4-0.6-2.8-2.9-4.2-1.3c-1.5,1.6,0.8,2.8,1.6,4.1
		c0.8,1.2,1.8,2.4,1.7,4.1c-1.5,1-2.6-1.2-4.1-0.6c-1.1,1.1,0.1,2.1,0.3,3.2c0.7,3.4,2.7,7.1-2.8,8.5c-0.2,0-0.1,0.9-0.2,1.4
		c-0.2,1.1-0.4,2.3-2.1,3.4c-1.5-12.5-6.7-24.1-4.3-36.8c0.7-3.6,1.1-7.2,1.4-10.9c0.5-6.1,2-11.7,6.3-16.4
		c3.8-4.2,6.5-9.2,8.1-14.7c0.7-2.4,1.2-4.8-0.2-7.2c6.3,0.7,10-2.3,11.9-8.1c1.4,1.7,0.6,3.8,1,5.7c-1.6,5.3-4.3,10-6.8,14.9
		c-1.7,3.4-3.4,6.8-4.4,10.5c-1.6,6.3-0.3,10,4.8,13.9C262,70.6,264.1,72.2,266.2,73.8z"/>
	<path class="st4" d="M87.2,114.6c0-0.2,0-0.4-0.1-0.5c-5.9-3.1-3.9-7.8-2-12c-1.9-1.4-3.1,0.9-4.5,0.2c-0.8-1.5,0.4-2.5,0.9-3.6
		c0.7-1.7,3.9-2.7,2.1-4.9c-1.8-2.1-3,1.9-5.2,1.4c0.3-2.6,0.8-5.2,0.9-7.8c0-1.9,1.1-5.7-3.3-2.9c-0.7,0.4-1.5,0.1-1.5-0.6
		c-0.3-4.4-2.8-1.6-4.6-1.4c-0.2-3.7-3.4-5.7-4.7-8.8c1.7-1.3,3.4-2.7,5.1-3.9c7-5.2,8.2-8.8,5.3-17.2c-2.7-8-8.1-14.9-10.5-23.1
		c0.4-1.9-0.5-4,1-5.7c1.8,5.7,5.4,8.9,11.8,8.1c-2.3,7.4,1.7,13.3,5.5,18.4c12.8,17,12.1,35.8,8.1,55c-0.8,4-0.3,8.3-2.5,12.1
		C87.6,117,87.4,115.8,87.2,114.6z"/>
	<path class="st0" d="M66,23.9c-1.4,1.7-0.6,3.8-1,5.7c-3.8,3.1-8-0.7-12,1.1c0-2.3,2.4-2.4,2.7-4.3c-1.2-0.1-2.5-0.1-4.5-0.2
		c6.3-4.3-0.9-2.7-1-4.7c1.1-0.2,2.4-0.5,3.7-0.7c-0.9-2.2-3.7-1.4-4.9-3.6c2,0,3.8,0,5.3,0c1.2-1.3-3.9-2.5,0.4-3.9
		c0.7-0.2,2-2.4,4.4-2c-0.9-1.9-1.4-3.2-2.2-4.8C59.3,6.4,60,8.7,62,9c-1.4-3.1,6.1-2.6,2.1-6.4c2.3-1.2,3.1,1,4.7,1.8
		c0-1.6,0-2.7,0-4C70.8,1,70.7,3,72,3.7c1.6,0.9,1.5-2,3.1-1.5c0,5.3,0,10.6,0,15.9c-0.6,0.2-1.3,0.4-1.9,0.6
		C69.8,19,67,20.2,66,23.9z"/>
	<path class="st0" d="M266.3,29.7c-0.4-1.9,0.4-4-1-5.7c-0.9-3.7-3.6-4.9-7.1-5.2c-0.7-0.2-1.3-0.5-2-0.7c0-5.3,0-10.6,0-16.6
		c3.8,5.5,4-0.1,6-1.5c0,1.4,0,2.6,0,3.8c1.7,0.3,2-2,3.9-1.4c-2.3,3.9,4.4,3,2.6,7.2c2.1-1.6,3.4-2.5,4.7-3.5
		c-2.7,4,0.6,6.1,2.9,7.4c2.8,1.5-0.1,2.4,0.4,3.7c1.8,0,3.6,0,5.5,0c-1.1,2-3.5,1.5-4.8,3.3c1,1.3,2.7,0.4,3.9,1.2
		c-0.5,1.6-6.3,0.8-2.2,4.4l0.1-0.1c-1.1,0.1-2.2,0.3-3.4,0.4c-0.2,1.9,2.5,2,2.5,4.2C274.4,29,270.2,32.6,266.3,29.7z"/>
	<path class="st2" d="M61,145.5c0-0.4,0.1-0.8,0.1-1.1c1.5-3.8,0.4-7.1-1.9-10.3c-0.2-0.5-0.3-0.9-0.5-1.4c0.1-1.6,0.2-3.3,2.3-3.6
		c2.2-0.4,1.8,2.3,3.2,3c0.5,3-1,6.3,1.1,9.1c-0.7,8.6,1.4,16.8,3,25.1c0.5,2.6,2.3,2.5,4.2,1.7c11.2-5.1,21.8-11.2,32.6-17.2
		c2-1.1,2.4-3,2.1-5.2c-0.5-3.6-0.1-7.1,1.1-10.5c1.6,6.7,3.7,13.1,6.9,19.2c-4.7-2.5-8.9-1.5-13.4,1.3
		c-9.9,6.2-20.1,11.8-30.2,17.6c-1.9,1.1-4,1.7-6,0.6c-2.5-1.3-0.2-3.2-0.3-4.8c0-1.3-0.2-2.7-0.4-4C63.5,158.5,62.2,152,61,145.5z"
		/>
	<path class="st2" d="M54.2,149.2c1.2-1.5,2.8-2.1,4.6-2c0,0.7,0.1,1.3,0.1,2c-1.3,19.3-1.1,38.7-1.4,58c0,2-1,5,2.8,5.1
		c-2.9,1-3.6,3.2-3.1,5.9c-0.4,4.4,0.9,7.1,6,7.3c2.7,0.1,5.3,1.3,8,2c-0.2,2.1-1.9,1.6-3.2,1.8c-5.6-2.3-10.9-0.2-16.7,1.5
		c3.6-3.8,4.4-8.1,3.9-12.7c-0.2-1.8,0.9-4.3-0.6-5.2c-3.4-2-1.1-3.7-0.3-5.6c0.6-1.2,1-2.4,0.7-3.8c0-0.5,0-1,0-1.6
		C52.8,184.3,55.7,166.7,54.2,149.2z"/>
	<path class="st5" d="M307.5,219.2c-1.1,3.7-2.6,4.7-7.2,4.6c-5.6-0.1-10.9-1.6-16.4-1.6c-2.8,0-4.4,2.1-6.7,3
		c-2.1-3.7-0.5-7.7-1-11.6c0.7-0.1,1.4-0.3,2-0.4c0.8-0.6,3.5,1.3,2.2-1.8c-0.2-0.6,0.3-1.2,0.4-1c3.2,3,3.8-1.5,5.6-2.1
		c1.4,0.9,0.3,2.3,1.1,3.3c2.2-0.8,4.1-2.5,7-2.4c0.3,1.4-2.4,2.5-1.1,3.5c1,0.8,2.8,0.5,4.3,0.7c-1.5,1.6-2.6,2.8,0.8,3.7
		C301.6,217.9,305,216.4,307.5,219.2z"/>
	<path class="st5" d="M54.2,207.2c-0.8,1.9-3,3.6,0.3,5.6c1.5,0.9,0.5,3.4,0.6,5.2c-0.7,0.3-2,1.2-2.2,0.9
		c-3.2-3.1-7.2-1.7-10.9-2.4c-2.7-0.5-4.6,0.3-6.4,1.6c-2.1,1.5-3.3,0.5-4.5-0.9c-0.5-0.5-1-1.1-1.5-1.6c2-0.7,1.1-5.3,4.9-3.4
		c0.1-1.8-1.5-2.3-2-3.4c1.1-2.2,5.8,1.6,5.2-3.3c2.2,1.9,3-2.8,5.6-0.9c2.7,1.9,5-1.9,7.8-1.4c0,0.3,0,0.7,0,1
		C49.7,206.9,49.7,206.9,54.2,207.2z"/>
	<path class="st6" d="M66,23.9c0.9-3.7,3.7-4.9,7.1-5.2c1.1,2,2.6,3.8,2.3,6.4c-0.2,1.7,1.2,2.2,2.7,2.2c0.7,1.1,1.5,2.2,1.2,3.7
		c-0.3,0.6-0.7,1-1.5,1C71.5,32.8,67.9,29.6,66,23.9z"/>
	<path class="st6" d="M258.2,18.7c3.4,0.3,6.2,1.5,7.1,5.2c-1.8,5.8-5.6,8.8-11.9,8.1c-0.7,0-1.1-0.5-1.3-1.1
		c0.1-0.9,0.2-1.7,0.2-2.6c1.2-1.3,4.2-0.9,3.7-3.8C255.6,22.1,257.3,20.6,258.2,18.7z"/>
	<path class="st7" d="M274.1,194.2c-1.2-10.4,0.1-20.8-0.8-31.2c-0.2-2,0.2-3.8,3-2.4c0.1,4.8,0.1,9.7,0.2,14.5
		c-1.5,0.9-1.2,1.6,0.3,2.2c0.2,1.3,0.3,2.6,0.5,3.9c-1.5,1.8-1.6,3.5,0.2,5.1c-0.2,1.3-0.5,2.6-0.7,3.8
		C274.3,190.4,276.1,193.6,274.1,194.2z"/>
	<path class="st4" d="M258.2,18.7c-0.9,1.9-2.6,3.4-2.2,5.8c0.5,2.9-2.5,2.5-3.7,3.8c0.2-3.8-2.4-3.2-4.8-3.1
		c0.3-5.1,2.2-6.7,8.7-7.2C256.9,18.3,257.6,18.5,258.2,18.7z"/>
	<path class="st4" d="M78.1,27.2c-1.5,0-2.8-0.5-2.7-2.2c0.3-2.6-1.2-4.4-2.3-6.4c0.6-0.2,1.3-0.4,1.9-0.6c6.8,0.6,8.4,2.1,8.9,8.1
		C81.8,25,79.7,24.5,78.1,27.2z"/>
	<path class="st7" d="M276.2,213.5c0.5,3.9-1.1,7.9,1,11.6c0.1,0.7,0.2,1.4,0.3,2c-2.1,0-3.1-1.1-3.3-3.1l0,0
		c0.9-0.3,0.7-0.7,0.1-1.1c-0.2-0.8-1.4-0.8-1.2-2.2c0.5-2.8,1.7-5.6,0.1-8.5c2.2-2.8,0.5-6.2,1.2-9.2c0.6,0.7,1.3,1.3,1.9,2
		c0,2.3,0,4.7,0,7C276.2,212.7,276.2,213.1,276.2,213.5z"/>
	<path class="st3" d="M247.6,25.3c2.3-0.1,5-0.6,4.8,3.1c-0.1,0.9-0.2,1.7-0.2,2.6c-4.4-1-8.9-0.7-13.8-0.9
		C240.9,26.8,245.7,28.9,247.6,25.3z"/>
	<path class="st3" d="M78.1,27.2c1.5-2.8,3.6-2.2,5.8-1c1.9,3.4,6.6,0.2,8.4,3.6c-4.4,0.4-8.7,0.7-13.1,1.1
		C79.6,29.5,78.8,28.4,78.1,27.2z"/>
	<path class="st3" d="M276.1,205.2c-0.6-0.7-1.3-1.3-1.9-2c0-1,0-2-0.1-3c0.9-0.4,0.9-0.7,0-1.1c-0.5-1.6-0.5-3.2-0.1-4.9
		c2.1-0.6,0.3-3.8,2.7-4.2C277.1,195.1,276.8,200.1,276.1,205.2z"/>
	<path class="st3" d="M277.5,186.2c-1.9-1.6-1.7-3.3-0.2-5.1C278.6,182.8,278.5,184.5,277.5,186.2z"/>
	<path class="st3" d="M276.7,177.3c-1.5-0.5-1.8-1.2-0.3-2.2C277.1,175.8,277.1,176.5,276.7,177.3z"/>
	<path class="st3" d="M276.2,213.5c0-0.4,0-0.9,0-1.3c0.7,0.3,1.4,0.6,2,0.9C277.5,213.3,276.8,213.4,276.2,213.5z"/>
	<path class="st0" d="M279.2,26.1l0.1,0.2L279.2,26.1z"/>
	<path class="st8" d="M234.3,277.2c-0.6-9.6-0.6-9.8-10.5-8.9c-13.2,1.2-26.3,2.7-39.4,4.1c-1.5-1.9-6-0.9-5.1-5.2
		c2.6,0,5.6,1,7-2.2c1.4-3.1,1.6-6.3,0.1-10.1c-1.9,3-0.7,5.8-1.9,8.3c-0.6,1.2-1.1,2.1-2.5,1.9c-1.6-0.2-1.6-1.4-1.6-2.6
		c0-2.2,0-4.3,0-6.5c0.6-2,1.3-3.9,1.9-5.9c10.5-1.9,21-3.1,31.6-4.2c8.5-0.9,17-2.4,25.6-2.9c7.7-0.4,15.3-0.4,22.8,2
		c3,1,6.1,1.9,8.1,4.5c-0.8,5.4-1.7,10.8-2.5,16.2c-0.5,3.4-1.7,5-5.5,3.3c-4-1.7-8.3-2.2-12.7-2c-2.8,0.1-4.7,1-3.9,4.1
		c1,3.6-0.9,4-3.6,3.9C239.4,275,236.5,274.8,234.3,277.2z M203.7,257.7c0.3,1.3,0.4,2.2,0.7,2.9c0.7,1.3,0,3.7,2.6,3.6
		c2.5-0.1,0.8-2.5,1.8-3.4c0.4-0.4,0.7-1,1-1.6c0.1,0.6,0.3,1.2,0.3,1.8c0.1,1-0.4,2.3,1.5,2.9c0.5-3.1,1-6,1.3-8.8
		c0.2-1.1,0.2-2.4-1.4-2.7c-1.4-0.2-2,0.5-2.6,1.7c-0.8,1.7-0.7,3.9-2.4,5.3c-1.2-2,0.4-6.1-3.2-5.8c-2.9,0.3-2.1,4-2.2,6.3
		c-0.1,1.6-0.7,3.5,0.9,5C204,262.8,202.7,260.5,203.7,257.7z M228.5,250.2c-2.2,2.1-1.6,4.5-2.7,6.2c-2.2-1.3-1.8-5.6-4.4-4.8
		c-2.6,0.8-2,4.5-2.2,7c-0.1,1.3-0.7,2.9,0.9,4.2c2.2-1.7,0.1-4.7,2.3-6.3c0.8,1.6,1.4,3.1,2.4,4.4c1,1.4,2.9,2.2,3.1-0.1
		C228.3,257.5,230,254.1,228.5,250.2z M198.3,265.6c0.3-0.4,0.5-0.7,0.8-1.1c-0.8-2.8-1.5-5.7-2.4-8.4c-0.7-1.9-2.1-3.1-3.5-0.7
		c-1.8,3.2-3.9,6.4-3.7,11.4C192.3,263.1,195,261.7,198.3,265.6z M255.5,251c-1.9,2-1.9,4.2-2.7,6.1c-0.6,1.5-1.3,3.5-3.4,2.7
		c-2-0.7-1-2.5-0.7-3.9c0.3-1.3,0.6-2.6,1-3.9c0.2-0.7,0.2-1.4-0.5-1.7s-1.5,0-1.6,0.7c-0.4,3-3,5.8-1.5,9c0.9,1.9,2.8,2.2,4.7,1.9
		c3.8-0.5,4.2-3.8,5.1-6.6C256.3,254.2,256.6,252.9,255.5,251z M243.3,256.5c-1.5-2.2-4.5-0.4-4.5-2.5c0-2.7,2.7-1.5,4.3-2
		c0.6-0.2,1.3-0.4,1.2-1.6c-2.6-0.1-6.2-1.7-7.4,0.9c-1.4,2.9-2.8,6.7-0.4,10.5C236.6,257.5,239.8,257,243.3,256.5z M214.2,258.3
		c0.7,1.5-1.1,4.4,1.4,4.5c2.3,0,1.2-2.9,1.5-4.6c0.1-0.6,0.2-1.3,0.1-2c-0.3-1.6,2.2-4.2-0.5-4.6c-2.3-0.3-1.9,2.9-2.5,4.6
		C214,256.8,214.2,257.5,214.2,258.3z M234,252.6c0-0.4,0.5-1.7-0.7-2c-1.6-0.3-1.8,1.2-1.9,2.3c-0.4,2.1-0.7,4.3-0.9,6.4
		c-0.1,0.9-0.5,2.2,0.9,2.3c1.2,0.1,1.5-1.1,1.7-2.1C233.4,257.4,233.7,255.3,234,252.6z"/>
	<path class="st9" d="M182.2,250.1c-0.6,2-1.3,3.9-1.9,5.9c-4.1,3.4-2,7.3-1.1,11.1c-0.9,4.3,3.6,3.3,5.1,5.2
		c-20.3,2.9-40.7,6-61.1,8.7c-14,1.9-27.9,4-42.1,4.2c0.3-1.6,0.7-3.3,1-4.9c1.2-1,0.9-2.4,1.2-3.6c0.3-1.5,1.4-1.6,2.6-1.6
		c0.8,0,1.6,0.1,1.9,1.2c0.2,1.2-1.8,3.4,1,3.2c1.7-0.1,1.3-2.4,1.5-3.8c0.2-1.5,0.7-2.9,0.8-4.3c0.1-1,0.6-2.6-1-2.8
		c-1.1-0.2-1.6,1-1.8,2c-0.3,1.5-1.1,2.5-2.6,2.4c-2-0.2-1.2-2-1.5-3.1c-0.2-0.6-0.6-1.1-0.9-1.7c0-1.3,0-2.6,0-3.9
		c29.9-4.4,59.9-8.7,89.8-13C176.1,250.8,179.1,250.5,182.2,250.1z M154.4,265.7c1.2,0.7,0.7,2,0.8,3.1c0.1,1,0.1,2.1,1.4,2.2
		c0.9,0.1,1.7-0.4,2-1.2c1.3-3.6,3-7.1,3.2-11.4c-3.5,0.9-3.1,4.1-4.1,6c-2.3-1.1-0.7-4.7-2.7-4.5c-3.4,0.2-2.1,4.8-4.6,6.6
		c-0.3-1.7-0.5-3.3-0.9-4.8c-0.1-0.6-0.7-1.1-1.5-0.9s-1,0.9-0.9,1.5c0.9,3.1,0,8,2.7,9.1c3.1,1.2,1.9-4.1,3.9-5.6
		C154,265.6,154.2,265.7,154.4,265.7z M104.2,271.9c-0.2,2.5-0.1,5.1,3,6c2.3,0.6,4.6-0.3,5.5-2.4c1.1-2.6,1.7-5.4,1.4-8.3
		c-0.1-0.6-0.1-1.4-0.9-1.6c-1-0.2-1.6,0.5-1.7,1.4c-0.2,1-0.3,2-0.3,3c0,2.3,0.1,5.6-2.8,5.5c-2.4-0.1-0.8-3.3-1.3-5.1
		c-0.3-1.3,0.9-3.6-1.2-3.7c-1.8-0.1-1.6,2.1-1.7,3.6C104.2,270.8,104.2,271.3,104.2,271.9z M172.5,269.4c-1.3-4.3-2.3-7.5-3.4-10.7
		c-0.6-1.8-2.1-1.9-2.9-0.4c-1.8,3.5-3.9,7-3.6,11.7C165.3,265.1,168.5,267.4,172.5,269.4z M124.5,275.7c1.9-2.2-2.7-3.9,0.1-6
		c1.2-0.9,1.9-2.4,0.7-4c-1.1-1.6-2.7-1.8-4.4-1.6c-4.9,0.5-6.1,4.3-3.8,11.4C119.6,271.3,119.6,271.3,124.5,275.7z M146.2,261.5
		c-4.2-0.7-4.3,3.2-6.3,3.8c-1.4-0.6,0.1-3-2.3-2.7c-1.5,2.8-1.5,5.7-1.4,8.7c0,0.9-0.2,2.2,1.2,2.3c0.9,0,1.4-0.8,1.6-1.7
		c0.8-5.2,2.5-3.5,4.4-0.6c0.5,0.8,1.2,1.9,2.3,1c1-0.8,0.3-1.9-0.5-2.6C142,267,143,264.3,146.2,261.5z M102,277.9
		c-1.1-3.7-0.3-9.3-3.6-10.1c-4-0.9-3.4,5-5.2,7.7c-0.6,0.9-1.3,2-0.1,3.5C95.4,275.6,98.4,275.5,102,277.9z M128.8,274.7
		c0.4-3,0.9-6,1.3-9c0.1-0.9,0.1-2.2-1.2-2.3c-1.3-0.2-1.6,0.9-1.6,2C127.3,268.4,126.7,271.5,128.8,274.7z"/>
	<path class="st5" d="M215.1,206.3c-0.6-1.5-2-1.9-3.9-2.7c2.6-0.9,4.5-0.4,6.4,0.1c3.2,0.8,1.5-1.2,1.4-2.3
		c0.2-0.3,0.5-0.5,0.7-0.8c3,2.6,2.9-1.8,5.2-2.1c1,0.6,0,2.2,0.7,3.2c2.2-0.9,4.1-2.6,7-2.5c0.5,1.3-2.2,2.5-0.7,3.5
		c1,0.7,2.5,0.4,3.9,0.5c-0.5,1.7-3.8,3.5,1.3,4.3c2.9,0.4,6.4-1.3,9,1.4c-1.9,1.2-0.6,5-3.9,5c-4.3,0-8.9,0.8-12.7-0.7
		c-5.9-2.2-10.5,0.2-15.4,2c-1.1,0.4-1.6,1.2-1.2,2.3c0.3,0.9,1,1.5,1.9,1.1c2.8-1.2,5.6,3.3,8.4,0.1c0.1-0.2,2,0.4,1.9,2.2
		c-0.3,4.4-2.5,6-6.8,4.6c-1.1-0.3-3.1-1-3.1-0.1c0.2,3-4.8,2.9-3.5,5.6c1,2,3.7-0.8,5.5,0.5c-1,1-3.1,1.2-2.8,3.2
		c0.1,0.7,0.6,1.4,1.3,1.2c2.3-0.7,4.1,1.7,6.7,0.8c3.4-1.2,3,1.1,2.1,3.2c-7.7,1.4-15.4,2.2-23.2,2c-2.7-0.1-4.6,2.6-7.5,1.9
		c-2.2-1.9,1.3-5.9-3-7c1.7-1.3,3.2-0.3,4.5-0.7c0.2,0.1,0.3,0.2,0.5,0.4c-0.1-0.2-0.2-0.3-0.4-0.5c0-2.1-2.6-2.2-3-4l0,0
		c1.9-1.5,6.2,3,6.5-2.6c2.8,1.8,3.7-1.2,5.4-2.2c0.7-0.4,0.9,0.6,1.1,1.2c0.7,2.6,2.1,0.7,3,0.3c1.2-0.5,3.3-0.5,2.9-2.7
		c-0.1-0.6-0.6-1.2-0.9-1.7c-2.4,2.9-4.6-0.8-7.4-0.3c-3.9,0.7-7.7,0.9-11.5,2.6c-2.5,1.1-2.4-3.2-4.7-3.4c0.9-2.1,2.3,0.3,3-1
		c-0.4-2-2.9-2.1-3.6-4.1c1.9,0.3,3.7,0.5,5.7,0.8c-0.5-3.4-3.5-3.8-5.8-5.8c3.6-0.5,6.6,1.7,9.8,0.5c-0.3-2.9-3.4-3.9-4.2-6.5
		c-2.1,2.5-4.2-0.2-6.4,0c-3.5,0.3-6.8,0.4-10,2.5c-1.8,1.2-2.8-1.4-3.7-2.5c-1.3-1.6,0.9-0.9,1.3-1.4c0.1-0.1,0.2-0.3,0.1-0.5
		c0-0.1-0.2-0.2-0.3-0.3c-0.4-0.7-0.7-1.3-1.1-2l-0.1,0.1c1.2-1.3,2.8,0.6,4.1-0.6c-0.4-2.4-2.9-2.4-4.1-3.9c0.3-0.2,0.7-0.4,1-0.7
		c3.2,1.1,6.4,2.4,7.1-2.8c0.8,0.5,1.6,1,2.4,1.5c0.5-1.1,1.4-2.2,0.8-3.6v0.3c0.6,0.9,2.4-0.7,2.3,0.6c-0.2,3,0.5,2.8,2.7,1.6
		c1.4-0.8,3.8-2.1,3.8,1.9c0,1.3,3,0,4.4,0.9c-0.7,0.9-2.3,1.4-1.7,3.1c0.6,1.8,2,0.3,2.8,0.7c2.1,1.1,3.7,1.8,6.2,0.5
		c1.4-0.8,2.1,1.5,1.5,3.2c-0.5,2.1-2.8,3.8-1.7,6.2c4.4-1.4,7.9-5.1,13-4.5C216,207.8,215.8,206.7,215.1,206.3z"/>
	<path class="st0" d="M224.3,240.1c0.8-2.1,1.3-4.5-2.1-3.2c-2.6,0.9-4.3-1.5-6.7-0.8c-0.7,0.2-1.2-0.5-1.3-1.2
		c-0.2-2.1,1.8-2.2,2.8-3.2c-1.9-1.3-4.5,1.5-5.5-0.5c-1.4-2.7,3.6-2.6,3.5-5.6c0-0.9,2-0.3,3.1,0.1c4.4,1.4,6.5-0.2,6.8-4.6
		c0.1-1.8-1.7-2.4-1.9-2.2c-2.9,3.3-5.6-1.2-8.4-0.1c-0.9,0.4-1.6-0.2-1.9-1.1c-0.4-1.1,0.1-1.9,1.2-2.3c5-1.8,9.6-4.2,15.4-2
		c3.8,1.4,8.5,0.7,12.7,0.7c3.3,0,2-3.8,3.9-5c0.7,0,1.4,0.1,2.2,0.1c0,1.6,0.1,3.3,0.1,4.9c0,1,0.1,2.4,1.4,1.8
		c3.1-1.5,6.2,3.9,9.2-0.2c0.1-0.1,1.3,0.3,1.6,0.7c4,4.6,4,0.5,4.5-2.1c0.2-1.2,0.6-2.2,1.4-3.1c2.2,0.4,4.4,0.9,6.6,1.3
		c1.7,2.8,0.4,5.7-0.1,8.5c-0.2,1.4,1.1,1.4,1.2,2.2c0,0.4,0,0.7-0.1,1l0,0c-4.9,0.8-9.6,2.2-14.2,4.4c3,2.4,5.9-1.8,8.6,0.7
		c2.7,6.8-4.4,0.5-4.6,4c0.4,0.8,2.4,1.2,2.3,3l-0.1,0.1c-1.4,0.6-4.9-1.5-3.4,2.8c0.1,0.3-1.1,1.1-1.7,1.6
		C248.8,237.5,236.6,239.5,224.3,240.1z M232.1,219.6c2.8,2.2,4.8,4.2,4.2,7.1c-0.9,5.2,1.1,6.5,6,6.2c1.4-0.1,2.7,1.3,4.2-0.4
		c0.8-0.9,1.9,0.1,2.4,0.9c2.9,4.1,3.5-0.2,3.9-1.4c0.5-1.5,0.3-3.2,1.5-4.6c0.5-0.5,2-1.9,0.5-2c-2.5-0.1-0.9-3.9-4-3.3
		c-2.1,0.4-4,3.9-6.5,0.8c-2.3,5.3-3.7-0.1-5.2-0.7C237.1,221.4,235.8,219,232.1,219.6z"/>
	<path class="st9" d="M234.3,277.2c2.2-2.3,5.1-2.1,7.9-2c2.8,0.1,4.6-0.3,3.6-3.9c-0.9-3.1,1-4,3.9-4.1c4.4-0.2,8.7,0.3,12.7,2
		c3.8,1.7,5,0.1,5.5-3.3c0.8-5.4,1.6-10.8,2.5-16.2c1.5,1.6,2.8,3.5,2,5.7c-1.4,3.8,0.9,3,2.8,2.4c4.3-1.4,8.7-1.6,13.1-1.3
		c0,2.1,0.3,4.3,0,6.4c-0.9,6-1.8,12,0.3,18c-13.4-0.7-26,4.4-39.2,5.7c-2,0.2-3.9,0.4-5.9,0.5C235.8,287.1,233.6,284.7,234.3,277.2
		z"/>
	<path class="st9" d="M59.2,282.1c-3.8-0.4-6.9,2.2-10.6,2.3c-1.7-1.1-1.3-2.8-1.4-4.4c-0.6-7.2-1.3-14.3-1.9-21.5
		c8.4-3.6,16.8-7.5,26.2-7.6c5.4,0,6.8,1.6,6.7,7.2c-2.3,1.7-5.2,2-7.9,2.8c-1.6,0.5-4.4-0.6-3.5,3c0.3,1.2-1.4,1.1-2.2,1.5
		c-2,1-4.2,0.7-6.3,0.6c-3.9-0.3-4.1,1.1-2.5,4.2C57.6,274,59.2,277.8,59.2,282.1z"/>
	<path class="st8" d="M288.5,280.9c-2.2-6-1.2-12-0.3-18c0.3-2.1,0-4.3,0-6.4c11.9-0.8,20.4,5.1,28.6,14.8
		c-6.3-0.7-11.3-0.4-17.4,0.3c6,4.9,10.7,9.6,9.9,17.8C303.1,283.5,295.9,281.9,288.5,280.9z"/>
	<path class="st8" d="M59.2,282.1c0-4.2-1.6-8.1-3.5-11.7c-1.6-3.1-1.4-4.5,2.5-4.2c2.1,0.1,4.3,0.4,6.3-0.6
		c0.8-0.4,2.5-0.4,2.2-1.5c-0.9-3.6,1.9-2.5,3.5-3c2.6-0.9,5.5-1.1,7.9-2.8c0.9,2.7-0.4,7.3,5.1,6.1c0,1.3,0,2.6,0,3.9
		c-3.5,2.9-2.1,7.1-2.8,10.8c-0.1,0.8,0.9,1.2,1.7,1.4c-0.3,1.6-0.7,3.3-1,4.9c-5.8,1-11.5,0.7-17.3-0.2
		C62,284.7,59.9,284.4,59.2,282.1z M73.7,272c1.5-2.4,3.7,1.1,5.3-0.7c-1.1-2.9-3.4-2.3-5.4-2c-1.3,0.1-2.1,1.1-2.3,2.3
		c-0.4,2.3,1.1,3.2,2.8,4.1c0.9,0.5,2.5,0.9,1.4,2.5c-0.9,1.2-2,0.7-3-0.1c-0.6-0.5-1.4-1.2-2-0.2c-0.2,0.4-0.1,1.4,0.3,1.7
		c1.2,1.3,2.8,1.8,4.6,1.3c1.7-0.4,3.1-1.4,3.5-3.2c0.4-1.8-1-2.6-2.2-3.5C75.5,273.6,73.9,273.6,73.7,272z"/>
	<path class="st1" d="M38.2,287.2c-7.2,2.1-13.9,0.5-21.5-2.9c4.8-1.9,9.1-2.5,12.7-4.8c3-2,4.3-3.3,0.1-5.5
		c-4.5-2.4-8.6-5.3-14-8.7c8.2-0.2,14.9-1.7,21.5-3.6C39.1,270.1,37.8,278.6,38.2,287.2z"/>
	<path class="st5" d="M261,240.6c0.6-0.5,1.8-1.3,1.7-1.6c-1.5-4.3,2-2.2,3.4-2.8c0.2,0.1,0.3,0.3,0.5,0.4c-0.1-0.2-0.3-0.3-0.4-0.5
		c0.1-1.7-1.9-2.2-2.3-3c0.1-3.5,7.3,2.8,4.6-4c3.6,0.6,7.1,1.3,10.7,1.9c0.1-0.1,0.4-0.2,0.4-0.2c-0.1-0.2-0.2-0.5-0.4-0.7
		c0-0.5,0.1-1,0.1-1.5c1.4-0.2,3-1.9,3.2,1.7c0.2,3.5,3.6-0.5,5.2,1.3c-0.7,1-3.4,1.5-2.4,3.2c1.3,2.2,4.3,1.4,6.5,2.1
		c1.3,0.4,3.9-2,3.9,1.4c0,2.9-1.9,5-5.1,4.3c-1.9-0.5-3.4-1-5,0.6c-0.5,0.5-1,0.5-1.7,0c-2.3-1.5-10.9-2.7-13.4-1.9
		c-0.9,0.3-1.7,1-2.5,1.5C265.7,242.1,263.4,241.4,261,240.6z"/>
	<path class="st8" d="M38.2,287.2c-0.3-8.5,0.9-17.1-1.2-25.5c2.7-1.1,5.5-2.1,8.2-3.2c0.7,7.2,1.3,14.3,1.9,21.5
		c0.1,1.6-0.3,3.4,1.4,4.4C45.3,285.9,41.8,286.7,38.2,287.2z"/>
	<path class="st5" d="M161.4,248.7c0.2-3-2.6-3.5-4.2-5c0.3-0.2,0.5-0.5,0.6-0.5c4.8,0.4,6.4-0.2,10.8-3.4c0.4-0.3,1.2-0.6,1.2-0.6
		c3,4.8,6-1.2,9.2,0.3c-0.1,1.1-4.6,3.4,0.7,3.8c2.2,0.2,0,1.8,0.3,2.6C173.8,246.8,167.6,247.8,161.4,248.7z"/>
	<path class="st5" d="M115.3,242c0.7-0.1,2,0,1.1-1.2s-2.1-2-3.6-3.4c2.3,0.3,4.2,0.5,6.2,0.7c0.2-2.5-1.9-3.1-3-4.2
		c1.5-2.7,7.6,2.7,6.6-4.3c1.9,0,3.5,2.1,5.6-1.1c2.4-3.5,1,2,2.7,2.2c2.2-0.6,4.3-2.6,7.1-2.4c-1.8,7,4.2,2.7,6.2,4.5
		c-1.5,0.9-4.9,1.8-3.4,3.5s4.7,3,7.5,2.7c1.5-0.2,3-2.1,4.3-0.2c1.2,1.8-0.4,3.9-1,5.6c-0.3,0.8-2.8,1.9-4.6,0.9s-3.6-1.8-5.3,0.4
		c-0.3,0.3-1.2,0.7-1.2,0.6c-1.7-2.2-3.7-1.9-6.3-2c-4.1-0.2-8.3-2-12.1,0.4c-3.6,2.3-5.7,1.7-7.3-2
		C115,242.3,115.2,242.2,115.3,242z"/>
	<path class="st5" d="M99.2,207.8c1.9-0.3,3.9-0.5,5.9-0.8c0-2.3-2.4-2.3-3.7-3.6c7.7-0.4,7.7-0.4,6.8-3.5c3.4,3.1,4.6,0.1,6-1.7
		c1.8,0.9,0.3,2.6,1.4,3.5c2.2-1.1,4.1-2.8,7.1-2.4c-0.6,1-1.1,1.9-1.8,3.3c1.9,0.3,3.4,0.5,4.9,0.7c-0.2,1.2-2.1,1.4-1.5,2.8
		c2,1.7,4.6,2,7,2.2c1.1,0.1,2.4-1.5,3.4,0.1c1,1.5-0.3,2.8-0.6,4.2c-0.3,1.8-2.1,1.6-3.2,1.5c-5.7-0.3-11.5-0.4-17.1-1.4
		c-2.6-0.5-4.5-0.3-6.4,1.2c-2.7,2.2-4.1,0-5.7-1.6c-0.3-0.3-0.8-0.3-0.6-1C102.1,208.8,102.1,208.8,99.2,207.8z"/>
	<path class="st5" d="M151.8,226.1c2.1,0.3,3.6,0.5,5,0.7c0-2.8-2.6-2.9-3.7-4.4c2.5-0.6,4.7,0,7,0.4c1.7-1.2-1.1-2.2-0.1-3.5
		c1.4-0.6,4,3.1,4.5-1.1c0-0.2,0.8-0.3,1.2-0.4c1.2,5.4,3.6,0.2,5.4,0.6c0.8,0.2,1.8-0.9,2.2,0.8c1.1,5.1,4.4,7.9,9.2,8.1
		c1.5,0.1,3.7-1.2,3.4,1.8c-0.2,2.2-1.6,4-3.8,3.8c-2.3-0.2-4.4-1.4-6.3,0.8c-0.2,0.2-0.8,0.3-0.9,0.1c-2.7-3.4-6.6-1.5-9.8-2.3
		c-2.9-0.7-4.8,0.4-7,1.5c-1.1,0.6-2.7,1.7-3.3-0.1c-0.2-0.9-4.3-1.3-0.6-3.3C155.4,229.1,152.6,227.8,151.8,226.1z"/>
	<path class="st5" d="M68,229.2c1.3-0.1,2.9,0.3,3.2-1.8c0.9-3.1,4.6-4.7,7.2-3c1,0.7,1.5-0.2,2.2-0.4c1.8-0.4,3.8-2.7,4.3,1.6
		c0.2,1.6,3.3,0.1,5.3,0.9c-1,1.1-4.1,2-2.6,3.4c1.5,1.5,4.4,1.7,6.8,2c1.1,0.2,2.7-1.5,3.5,0.1c0.8,1.5-0.3,3.4-1.1,4.6
		c-0.7,1-2.4,1.8-4,0.8c-1.7-1.1-3.2-1.3-4.8,0.5c-1.7,2.1-3.2-3.9-5.2-0.4c-4.7-2.8-9.2-2-13.8,0.4c-2.2,1.2-3.1-1-3.9-2.7l0.3-0.3
		c3.4-1.7-2.3-2.2,0.2-3.8c0.5,0,1.6,0,2.7,0c0.2,0.1,0.3,0.2,0.5,0.4c-0.1-0.1-0.3-0.3-0.4-0.4C68.2,230.5,68.1,229.8,68,229.2z"/>
	<path class="st5" d="M140.2,205.8c0.8-3.5-1.7-5.3-4.7-8.2c6.4,0.2,9,4.9,12.7,7.5c1.6-0.9,0.3-3.2,2.6-3.7
		c0.4,0.8-0.2,3.9,2.9,1.6c3.5-2.7,3.8-2.2,6,1.5c0.9,1.6,2.8-0.3,4,0.6c-1.9,2.3-4.1,4.4-3.6,7.8c0.3,2.1-2.5,2.1-2.5,4.4
		c-2.1-2.7-3.6-6.8-7-2.1c-0.4,0.6-1.2,0.7-1.7,0c-2.3-3.3-5.6-1.3-8.5-1.8C139.6,210.9,142.3,208.3,140.2,205.8z"/>
	<path class="st5" d="M69.9,210.7c-0.1-4.3-0.2-4.4-3.7-8.4c2.7-0.9,4.7,0.7,6,2.3c2.9,3.6,6.2,3.1,10,2c2.2-0.6,5.4-4.6,6.3,1.5
		c0,0.3,2.4,0.2,3.7,0.4c-4.1,2.6-3.3,7.9-6.6,11.1c-1.6-2-2.9-5.5-6.5-1.6c-1,1.1-2.6-1.3-4.4-1.4c-1.6-0.1-3.1,0.1-4.7,0.3
		C69.9,214.8,69.9,212.7,69.9,210.7z"/>
	<path class="st5" d="M114.3,220.3c0.8,0.2,2.3,0.3,2.2,0.4c-2.4,2.1-1.9,5.4-3.3,7.8c-0.3,0.5-1.6,3.2-3,0.3
		c-0.7-1.4-1.9-2.4-3.5-0.6c-0.9,1.1-1.9,0.1-2.7,0c-5.1-0.1-7.7-1.6-6.5-7.4c0.5-2.4-1.7-4.4-4.2-6.4c4.5-0.2,6.6,2.7,9,4.7
		c1.3,1,2,0,2.6,0c3.2,0.2,5.9-2.4,9-1.5c0.2,0.1,0.1,1.5,0.2,2.3c-0.1,0.2-0.2,0.4-0.3,0.6C113.9,220.5,114.1,220.4,114.3,220.3z"
		/>
	<path class="st5" d="M60.3,212.2c0.7-0.3,1.2-1.3,2.2-0.6c2.9,1.4,0.9,3.7,0.4,5.1c-1,2.4-3.7,1.3-5.7,1.4
		C56.7,215.4,57.3,213.2,60.3,212.2z"/>
	<path class="st5" d="M178.1,221.9c-0.1-0.1-0.3-0.2-0.4-0.3c0.3,0,0.5,0.1,0.8,0.1C178.4,221.8,178.2,221.9,178.1,221.9z"/>
	<path class="st5" d="M192.2,232.1c-0.4-0.1-0.9-0.2-1.3-0.3C191.5,231,191.9,231.6,192.2,232.1
		C192.2,232.2,192.2,232.1,192.2,232.1z"/>
	<path class="st5" d="M114.9,242.5c-0.4-0.3-0.7-0.5-1.1-0.8c0.6-0.7,1.1-0.3,1.5,0.2C115.2,242.2,115,242.3,114.9,242.5z"/>
	<path class="st5" d="M65,235.3c-0.4-0.2-0.8-0.4-1.2-0.6c0.1-0.1,0.3-0.3,0.3-0.3c0.4,0.2,0.8,0.4,1.2,0.6
		C65.3,235,65,235.3,65,235.3z"/>
	<path class="st2" d="M279.2,231.1c-3.6-0.6-7.1-1.3-10.7-1.9c-2.6-2.5-5.6,1.7-8.6-0.7c4.6-2.2,9.3-3.5,14.2-4.4
		c0.2,2,1.3,3.1,3.3,3.1c0.6,0.5,1.2,1,1.8,1.5c0,0.5-0.1,1-0.1,1.5C279.2,230.5,279.2,230.8,279.2,231.1z"/>
	<path class="st10" d="M214.4,148c-4.7,15-14,26.6-26.2,36c-5.7,4.4-11.9,7.8-18.6,10.4c-2.3,0.9-4.5,1.3-6.8,0.3
		c-20.8-8.4-36.1-22.7-45.1-43.4c-0.4-1-0.5-2.2-0.8-3.4c19.6-22.4,35.3-47.2,46.5-74.8c1.1-1.4,1.9-3.8,4.1-1.1
		C178.7,100.2,194.6,125.3,214.4,148z M158.2,174.4c5.1,1.9,10.2,1.9,15.3-0.1c2.6-0.2,4.9-1.3,6.9-2.9c2.3-1.4,5-2.3,5.9-5.4
		l-0.1,0.1c1,0.4,1.2-0.4,1.6-1c2-1.8,3.3-4.1,4.2-6.6c0.8-1.5,1.5-2.9,1.4-4.6c0.9-1.5,1-3.2,0.8-4.9c0-1.3,0-2.7,0-4
		c-0.2-1.6-0.3-3.1-0.5-4.7c-0.4-1.4-0.4-3-1.5-4.2c-0.2-1.6-0.9-3-2-4.1c-0.4-1.3-1.1-2.4-2.2-3.2c-0.8-1.6-2.1-2.9-3.7-3.8
		c-10.6-9.6-26.8-9.6-37.4,0c-1.6,0.9-2.9,2.2-3.7,3.8c-1.1,0.9-1.9,1.9-2.3,3.3c-1.2,1.3-2.1,2.7-1.9,4.5c-1.2,1-1.3,2.5-1.5,3.9
		c-0.2,1.5-0.3,3.1-0.5,4.6c0,1.3,0,2.7,0.1,4c-0.2,1.7-0.2,3.4,0.8,4.9c-0.1,1.8,0.8,3.3,1.6,4.8c0.9,2.4,2.2,4.6,4.2,6.3
		c0.3,0.6,0.7,1.2,1.5,0.9l-0.1-0.1c0.8,3,3.5,4,5.9,5.4C153.1,173.1,155.5,174.2,158.2,174.4z"/>
	<path class="st11" d="M163.5,73.2c-11.3,27.6-26.9,52.5-46.5,74.8c-4.1-6.3-5-13.6-6.3-20.7c-1.9-10.7-2.2-21.4-0.8-32.2
		c0.3-2.3,1.3-3.2,3.3-3.6c17.3-3.8,34-9,49-18.7C162.5,72.7,163.1,73.1,163.5,73.2z"/>
	<path class="st11" d="M214.4,148c-19.8-22.7-35.7-47.8-46.8-75.9c7.7,3.9,15,8.5,23.2,11.4c8.6,3.1,17.3,5.8,26.3,7.6
		c1.9,0.4,4,0.4,4.3,3.2C223.4,112.9,222.2,130.9,214.4,148z"/>
	<path class="st5" d="M266.4,211.1c-0.8,0.9-1.2,1.9-1.4,3.1c-0.5,2.6-0.5,6.7-4.5,2.1c-0.4-0.4-1.6-0.8-1.6-0.7
		c-3,4.1-6.1-1.3-9.2,0.2c-1.4,0.6-1.4-0.8-1.4-1.8c0-1.6-0.1-3.3-0.1-4.9c0.3-2.7-1.8-4-4-6.5c5.2,0.4,7.4,4,10.3,6.2
		c0.3-0.4,2.4-1.2,2.9-0.9c0.9,0.6,1.2-0.4,1.6-0.7c4.1-3.3,5.7,1.3,8.3,2.6C267,210.2,266.7,210.7,266.4,211.1z"/>
	<path class="st0" d="M215.1,206.3c0.7,0.4,0.9,1.5,0.4,1.4c-5.1-0.6-8.6,3.1-13,4.5c-1-2.5,1.3-4.1,1.7-6.2
		C207.9,206.1,211.5,206.2,215.1,206.3z"/>
	<path class="st7" d="M272.8,148.2c2.2,1.5,1.9,3.2,0.3,5C273,151.6,272.9,149.9,272.8,148.2z"/>
	<path class="st7" d="M274.1,199.1c0.9,0.4,0.9,0.7,0,1.1C274.1,199.8,274.1,199.5,274.1,199.1z"/>
	<path class="st5" d="M219,201.4c-0.2-0.3-0.3-0.6-0.5-0.9c0.4,0,0.8,0.1,1.2,0.1C219.4,200.9,219.2,201.1,219,201.4z"/>
	<path class="st12" d="M272.6,133c-0.4-2.8-0.8-6-4.4-2.2c-0.8,0.9-1.3,0.6-2,0.3c-9.5-4.2-16.2-20.5-12.6-31c1.7-0.6,3.4,4.4,5.3,0
		c0.7-1.5,1.9-0.2,2.1,0.6c1.4,5.5,7.8,3.3,10.4,6.8c0.1,0.1,0.7,0.1,0.8,0c3.8-6.1,4.8-0.2,6.6,1.6c1.6,1.6,2.2,3.3,5.4,1.7
		c3.7-1.9,7.2-0.3,7.2,5.2c1-1.3,1.5-2.4,2.4-2.9c1.5-1,13.6,1.5,14.8,3c8,9.6,12.2,20.5,10.7,33.2c-1.4-0.6-1.5-2.1-2.2-3.2
		c-0.7-1-1.8-2.2-2.7-0.7c-1.9,3.4-3.2,0.7-4.6-0.2c-2.1-1.4-2.9-4.4-5.8-5c-1.4,2.3,0.9,4.4-0.4,6.7c-4.5-1.7-7.9-5.3-12-7.5
		c-1.8-1-3.7-2.8-5.9-1c-2.1,1.8-3.6,0.6-5.2-0.7C278,135.9,276.1,133.1,272.6,133z"/>
	<path class="st0" d="M272.6,133c3.5,0.1,5.4,2.9,7.9,4.8c1.6,1.3,3.1,2.5,5.2,0.7c2.2-1.8,4,0,5.9,1c4.1,2.3,7.5,5.8,12,7.5
		c1.3-2.3-1-4.5,0.4-6.7c2.9,0.5,3.7,3.5,5.8,5c1.4,0.9,2.7,3.6,4.6,0.2c0.8-1.5,2-0.3,2.7,0.7c0.8,1,0.9,2.5,2.2,3.2
		c-1.1,3.7-0.7,9.4-6.4,8.5c-2.7-0.4-6-1-8.7-2.5c-6.1-3.5-12.7-5.6-19.2-8.1C278.2,144.7,274.9,139.3,272.6,133z"/>
	<path class="st3" d="M298.2,99.2c-8.4-2.3-15.5-7.1-22-12.7c-1.4-1.2-3-2.2-3-4.3l0,0c8.6,3,16,8.1,23.1,13.7
		C297.4,96.7,298.2,97.7,298.2,99.2L298.2,99.2z"/>
	<path class="st3" d="M298.2,99.2c0.4,0.1,0.9,0.2,1.3,0.4c-0.1,0.1-0.2,0.3-0.2,0.4C298.9,99.6,298.5,99.4,298.2,99.2L298.2,99.2z"
		/>
	<path class="st3" d="M273.2,82.2c-0.4-0.1-0.9-0.2-1.3-0.4c0.1-0.1,0.2-0.3,0.2-0.4C272.5,81.7,272.8,81.9,273.2,82.2L273.2,82.2z"
		/>
	<path class="st12" d="M64.2,132.1c-1.4-0.6-0.9-3.4-3.2-3c-2,0.3-2.2,2-2.3,3.6c-3.3,0.5-5.4,3.1-7.9,5c-1.2,1-2.5,2.7-4.3,1.2
		c-2.8-2.4-4.9-0.6-7.2,0.7c-4,2.2-7.2,5.7-11.6,7.3c-1.4-2.3,1.2-4.7-0.4-6.6c-0.5,0-0.7,0-0.8,0.1c-3.7,1.2-4.5,9.3-10.8,4.5
		c-0.1-0.1-1,0.7-1.4,1.2c-0.8,1-0.9,2.5-2.2,3.2c-1.5-12.7,2.7-23.6,10.7-33.2c1.4-1.7,3.2-3.1,5.6-1.8c1.5,0.8,2.4,0.1,3.6-0.5
		c2.8-1.3,5.8-2.3,7.6,2.5c0.9-4.3,2.2-7.8,7-5.3c3.5,1.9,4.8-0.5,6.5-2.7c1.5-2,2.6-5.9,5.9-1.1c1.4,2.1,1.5-2.7,4-1.7
		c1.3,0.5,3.9-0.2,5.5-2.1c1.3-1.6,1.9-6.4,5.5-1.6c0.9,1.2,1.9-2.1,4.3-1.5c1.6,9.5-0.3,18.2-7.1,25.5
		C69.1,128.1,66.5,130,64.2,132.1z"/>
	<path class="st0" d="M12.2,149.4c1.3-0.7,1.4-2.1,2.2-3.2c0.4-0.5,1.3-1.3,1.4-1.2c6.3,4.8,7.1-3.3,10.8-4.5c0.1,0,0.3,0,0.8-0.1
		c1.6,2-1,4.4,0.4,6.6c4.4-1.5,7.6-5,11.6-7.3c2.3-1.3,4.4-3.1,7.2-0.7c1.7,1.5,3-0.3,4.3-1.2c2.5-1.9,4.5-4.4,7.9-5
		c0.2,0.5,0.3,0.9,0.5,1.4c0,0.4-0.1,0.7-0.1,1.1c-1.7,0.9-2.6,2.5-3.5,4.1c-2.3,4.3-5.9,6.8-10.5,8.5c-6,2.2-11.8,5-17.7,7.6
		c-2.9,1.3-6.2,1.4-9.2,2.7c-2.1,0.9-4.5-0.4-4.9-3.4C13,152.9,12.6,151.1,12.2,149.4z"/>
	<path class="st4" d="M32.2,99.1c7.1-8,16.2-13.1,26-17l0.1,0.1c-4.5,7.4-11.6,11.5-19.2,14.6C36.9,97.7,34.9,99.7,32.2,99.1
		L32.2,99.1z"/>
	<path class="st7" d="M59.1,135.2c0-0.4,0.1-0.7,0.1-1.1c2.3,3.1,3.4,6.4,1.9,10.3C60.4,141.3,59.8,138.3,59.1,135.2z"/>
	<path class="st4" d="M58.2,82.1c0.4-0.2,0.8-0.5,1.1-0.7c0,0,0.2,0.2,0.3,0.4c-0.4,0.2-0.9,0.3-1.3,0.5
		C58.3,82.2,58.2,82.1,58.2,82.1z"/>
	<path class="st4" d="M32.2,99.2c-0.2,0.1-0.3,0.3-0.5,0.4C31.9,99.4,32,99.3,32.2,99.2C32.2,99.1,32.2,99.2,32.2,99.2z"/>
	<path class="st2" d="M274.1,224.1c0-0.3,0-0.7,0.1-1C274.8,223.4,275,223.8,274.1,224.1z"/>
	<path class="st7" d="M203.7,257.7c-1,2.8,0.2,5.1-1.6,7.2c-1.7-1.6-1-3.4-0.9-5c0.1-2.4-0.7-6,2.2-6.3c3.5-0.4,1.9,3.8,3.2,5.8
		c1.7-1.3,1.6-3.5,2.4-5.3c0.6-1.2,1.2-2,2.6-1.7c1.6,0.3,1.5,1.6,1.4,2.7c-0.4,2.9-0.9,5.7-1.3,8.8c-1.9-0.6-1.4-1.9-1.5-2.9
		c-0.1-0.6-0.2-1.2-0.3-1.8c-0.3,0.5-0.6,1.1-1,1.6c-1,1,0.7,3.3-1.8,3.4c-2.6,0.1-1.8-2.3-2.6-3.6
		C204.1,259.9,204.1,259,203.7,257.7z"/>
	<path class="st7" d="M228.5,250.2c1.6,4-0.2,7.3-0.6,10.5c-0.3,2.3-2.1,1.6-3.1,0.1c-0.9-1.3-1.5-2.8-2.4-4.4
		c-2.3,1.6-0.2,4.7-2.3,6.3c-1.5-1.3-0.9-2.8-0.9-4.2c0.1-2.6-0.5-6.2,2.2-7c2.6-0.8,2.2,3.5,4.4,4.8
		C226.9,254.7,226.3,252.3,228.5,250.2z"/>
	<path class="st7" d="M198.3,265.6c-3.3-3.9-5.9-2.5-8.8,1.2c-0.2-5,1.9-8.2,3.7-11.4c1.3-2.3,2.8-1.2,3.5,0.7
		c1,2.8,1.6,5.6,2.4,8.4C198.8,264.9,198.5,265.2,198.3,265.6z"/>
	<path class="st7" d="M255.5,251c1.1,1.9,0.8,3.2,0.4,4.4c-0.9,2.8-1.3,6.1-5.1,6.6c-1.9,0.3-3.9,0-4.7-1.9c-1.4-3.2,1.1-6,1.5-9
		c0.1-0.6,0.9-1,1.6-0.7c0.7,0.3,0.7,1,0.5,1.7c-0.4,1.3-0.7,2.6-1,3.9c-0.3,1.4-1.3,3.1,0.7,3.9c2.2,0.8,2.8-1.2,3.4-2.7
		C253.6,255.2,253.6,253,255.5,251z"/>
	<path class="st7" d="M179.2,267.2c-0.9-3.8-3.1-7.8,1.1-11.1c0,2.1,0,4.3,0,6.5c0,1.2,0.1,2.4,1.6,2.6c1.4,0.2,1.9-0.7,2.5-1.9
		c1.2-2.4,0-5.3,1.9-8.3c1.6,3.8,1.4,7-0.1,10.1S181.8,267.2,179.2,267.2z"/>
	<path class="st7" d="M243.3,256.5c-3.5,0.5-6.7,1-6.9,5.3c-2.4-3.7-1-7.6,0.4-10.5c1.2-2.6,4.9-1,7.4-0.9c0.1,1.2-0.6,1.4-1.2,1.6
		c-1.6,0.5-4.3-0.7-4.3,2C238.8,256.1,241.8,254.3,243.3,256.5z"/>
	<path class="st7" d="M214.2,258.3c0-0.7-0.2-1.5,0-2.1c0.6-1.7,0.2-4.9,2.5-4.6c2.7,0.4,0.2,3,0.5,4.6c0.1,0.6,0.1,1.3-0.1,2
		c-0.4,1.6,0.8,4.6-1.5,4.6C213.1,262.7,214.9,259.7,214.2,258.3z"/>
	<path class="st7" d="M234,252.6c-0.4,2.7-0.7,4.8-1,6.9c-0.2,1-0.4,2.2-1.7,2.1c-1.5-0.1-1.1-1.4-0.9-2.3c0.3-2.1,0.6-4.3,0.9-6.4
		c0.2-1.1,0.4-2.6,1.9-2.3C234.6,250.9,234,252.3,234,252.6z"/>
	<path class="st7" d="M154.4,265.7c-0.2,0-0.4-0.1-0.5,0c-2,1.5-0.8,6.8-3.9,5.6c-2.7-1.1-1.7-6-2.7-9.1c-0.2-0.6,0-1.3,0.9-1.5
		c0.8-0.2,1.4,0.4,1.5,0.9c0.4,1.5,0.6,3.1,0.9,4.8c2.5-1.8,1.1-6.3,4.6-6.6c2-0.1,0.4,3.4,2.7,4.5c1-1.9,0.6-5.1,4.1-6
		c-0.2,4.3-2,7.8-3.2,11.4c-0.3,0.8-1.1,1.2-2,1.2c-1.3-0.1-1.3-1.2-1.4-2.2C155.1,267.7,155.6,266.4,154.4,265.7z"/>
	<path class="st7" d="M82.1,280.4c-0.8-0.2-1.9-0.6-1.7-1.4c0.6-3.7-0.8-7.9,2.8-10.8c0.3,0.6,0.8,1.1,0.9,1.7
		c0.3,1.2-0.4,2.9,1.5,3.1c1.6,0.2,2.3-0.9,2.6-2.4c0.2-1,0.6-2.2,1.8-2c1.6,0.3,1.1,1.8,1,2.8c-0.1,1.5-0.6,2.9-0.8,4.3
		c-0.2,1.4,0.2,3.7-1.5,3.8c-2.8,0.1-0.8-2.1-1-3.2s-1-1.1-1.9-1.2c-1.2,0-2.4,0.1-2.6,1.6C83.1,278,83.3,279.4,82.1,280.4z"/>
	<path class="st7" d="M104.2,271.9c0-0.6,0-1.1,0-1.6c0.1-1.5-0.1-3.7,1.7-3.6c2.2,0.1,0.9,2.4,1.2,3.7c0.4,1.8-1.1,5,1.3,5.1
		c2.9,0.1,2.7-3.1,2.8-5.5c0-1,0.1-2,0.3-3c0.2-0.8,0.7-1.6,1.7-1.4c0.8,0.2,0.8,0.9,0.9,1.6c0.3,2.9-0.3,5.7-1.4,8.3
		c-0.9,2.1-3.2,3-5.5,2.4C104.2,277.1,104,274.4,104.2,271.9z"/>
	<path class="st7" d="M172.5,269.4c-4-2.1-7.3-4.3-9.9,0.6c-0.3-4.6,1.8-8.1,3.6-11.7c0.8-1.5,2.2-1.5,2.9,0.4
		C170.3,261.9,171.2,265.1,172.5,269.4z"/>
	<path class="st7" d="M124.5,275.7c-4.9-4.4-4.9-4.4-7.4-0.1c-2.3-7.1-1-10.9,3.8-11.4c1.7-0.2,3.3,0,4.4,1.6c1.2,1.6,0.5,3.1-0.7,4
		C121.7,271.9,126.4,273.5,124.5,275.7z M123,267.7c-0.1-1-0.7-1.4-1.6-1.4c-1.2,0-2.4,0.2-2.7,1.6c-0.2,1,0.7,1.3,1.6,1.3
		C121.5,269.1,122.7,269.2,123,267.7z"/>
	<path class="st7" d="M146.2,261.5c-3.2,2.8-4.2,5.5-1,8.3c0.7,0.6,1.4,1.7,0.5,2.6c-1.1,0.9-1.8-0.2-2.3-1
		c-1.9-2.9-3.5-4.7-4.4,0.6c-0.1,0.9-0.7,1.7-1.6,1.7c-1.4-0.1-1.2-1.3-1.2-2.3c-0.1-3-0.1-6,1.4-8.7c2.4-0.3,0.9,2.1,2.3,2.7
		C141.9,264.7,142,260.8,146.2,261.5z"/>
	<path class="st7" d="M102,277.9c-3.6-2.3-6.6-2.3-9,1.1c-1.2-1.5-0.5-2.6,0.1-3.5c1.8-2.7,1.2-8.6,5.2-7.7
		C101.6,268.5,100.8,274.1,102,277.9z"/>
	<path class="st7" d="M128.8,274.7c-2.1-3.1-1.5-6.2-1.5-9.3c0-1,0.3-2.1,1.6-2c1.3,0.2,1.4,1.4,1.2,2.3
		C129.8,268.7,129.3,271.7,128.8,274.7z"/>
	<path class="st0" d="M195.3,236.1c0.1,0.2,0.2,0.3,0.4,0.5c-0.2-0.1-0.3-0.2-0.5-0.4C195.1,236.2,195.3,236.1,195.3,236.1z"/>
	<path class="st5" d="M232.1,219.6c3.7-0.5,5,1.8,7,2.6c1.5,0.6,2.9,6,5.2,0.7c2.5,3.1,4.4-0.4,6.5-0.8c3-0.6,1.5,3.2,4,3.3
		c1.5,0.1,0,1.4-0.5,2c-1.2,1.4-1,3.1-1.5,4.6c-0.4,1.2-1,5.5-3.9,1.4c-0.6-0.8-1.6-1.8-2.4-0.9c-1.5,1.8-2.8,0.3-4.2,0.4
		c-4.9,0.3-7-1.1-6-6.2C236.8,223.8,234.9,221.7,232.1,219.6z"/>
	<path class="st7" d="M73.7,272c0.2,1.6,1.8,1.6,2.9,2.3c1.3,0.8,2.7,1.7,2.2,3.5c-0.4,1.8-1.8,2.8-3.5,3.2c-1.7,0.4-3.3,0-4.6-1.3
		c-0.4-0.4-0.5-1.3-0.3-1.7c0.6-1.1,1.4-0.3,2,0.2c1,0.8,2.2,1.3,3,0.1c1.1-1.6-0.5-2-1.4-2.5c-1.7-0.9-3.3-1.8-2.8-4.1
		c0.2-1.3,1-2.2,2.3-2.3c2.1-0.2,4.4-0.8,5.4,2C77.4,273.1,75.2,269.6,73.7,272z"/>
	<path class="st7" d="M279.2,231.1c0-0.3,0-0.6,0-0.9c0.1,0.2,0.3,0.5,0.4,0.7C279.6,230.9,279.3,231,279.2,231.1z"/>
	<path class="st0" d="M266.2,236.1c0.1,0.2,0.3,0.3,0.4,0.5C266.5,236.5,266.3,236.3,266.2,236.1
		C266.2,236.2,266.2,236.1,266.2,236.1z"/>
	<path class="st5" d="M171.2,203.1c-0.2-0.1-0.5-0.3-0.7-0.4c0.1,0,0.3-0.2,0.4-0.1c0.5,0.1,0.5,0.3,0.2,0.7
		C171.1,203.2,171.2,203.1,171.2,203.1z"/>
	<path class="st0" d="M68.2,231.1c0.1,0.1,0.3,0.3,0.4,0.4C68.5,231.4,68.3,231.3,68.2,231.1C68.2,231.2,68.2,231.1,68.2,231.1z"/>
	<path class="st0" d="M114.3,220.3c-0.2,0.1-0.4,0.2-0.6,0.3c0.1-0.2,0.2-0.4,0.3-0.6C114.1,220.1,114.2,220.2,114.3,220.3z"/>
	<path class="st13" d="M137.1,145.2c0.2-1.5,0.3-3.1,0.5-4.6c1.6,0.4,3.3,0.6,4.8,1.3c5.9,2.9,11.6,3,17.6,0
		c2.8-1.4,6.2-2.4,9.1-0.9c7.9,4.1,15.5,3.5,23.2-0.2c0.4-0.2,1-0.2,1.5-0.3c0.2,1.6,0.3,3.1,0.5,4.7c-1.7,0.5-3.6,0.7-5.2,1.6
		c-5.7,3.1-11.4,3.1-17.1,0c-4.2-2.2-8.3-1.8-12.4,0.2c-5.4,2.7-10.8,2.7-16.3,0.2C141.3,146.2,139.2,145.8,137.1,145.2z"/>
	<path class="st13" d="M194.2,149.1c0.2,1.7,0.2,3.3-0.8,4.9c-2.1,0-3.9,1-5.6,1.8c-4.8,2.3-9.7,2.5-14.4,0c-5-2.6-9.8-2.5-14.8,0
		c-4.7,2.4-9.6,2.2-14.5,0.2c-2-0.8-4.1-1.3-6.1-2c-1-1.5-1-3.2-0.8-4.9c1.9,0.5,4,0.6,5.7,1.5c5.6,2.7,11,3,16.6-0.1
		c2.5-1.3,5.7-2.5,8.2-1.3C176.7,153.8,185.4,152.5,194.2,149.1z"/>
	<path class="st13" d="M190.3,132c1.2,1.2,1.9,2.5,2,4.1c-7.3,4.1-14.6,5.1-22.2,0.8c-2.2-1.3-5-1.5-7.2-0.3c-8,4.3-15.9,3.7-23.8,0
		c-0.1-1.8,0.8-3.2,1.9-4.5c6.4,3.2,12.7,4,19.4,0.4c3.4-1.9,7.6-2.1,11-0.1C178,136.2,184.1,135.3,190.3,132z"/>
	<path class="st13" d="M192,158.6c-0.9,2.5-2.3,4.7-4.2,6.6c-0.7,0.1-1.5,0-1.6,1l0.1-0.1c-5.4,1.5-10.4,0.3-15.3-2.1
		c-3.1-1.5-6.4-1.6-9.6-0.1c-5.2,2.5-10.6,3.4-16.2,2.1l0.1,0.1c-0.1-0.9-0.8-0.9-1.5-0.9c-2-1.7-3.2-3.9-4.2-6.3
		c1,0.2,2.1,0.2,2.9,0.6c5.9,3.1,11.6,3,17.6-0.1c4.4-2.2,9.1-1.7,13.5,0.6c4.6,2.4,9.1,2.7,13.7,0.1
		C188.7,159.3,190.4,159.1,192,158.6z"/>
	<path class="st6" d="M192,158.6c-1.6,0.5-3.3,0.7-4.7,1.5c-4.6,2.6-9.1,2.3-13.7-0.1c-4.4-2.3-9.1-2.8-13.5-0.6
		c-6,3-11.7,3.2-17.6,0.1c-0.8-0.4-1.9-0.4-2.9-0.6c-0.8-1.5-1.6-3-1.6-4.8c2,0.6,4.2,1.2,6.1,2c4.9,2,9.7,2.2,14.5-0.2
		c5-2.5,9.8-2.6,14.8,0c4.7,2.4,9.6,2.3,14.4,0c1.8-0.9,3.6-1.8,5.6-1.8C193.5,155.7,192.7,157.1,192,158.6z"/>
	<path class="st6" d="M139.1,136.6c7.9,3.7,15.8,4.3,23.8,0c2.2-1.2,5-1,7.2,0.3c7.6,4.4,14.9,3.3,22.2-0.8c1.1,1.2,1.1,2.8,1.5,4.2
		c-0.5,0.1-1,0.1-1.5,0.3c-7.7,3.7-15.3,4.3-23.2,0.2c-3-1.5-6.4-0.5-9.1,0.9c-6,3-11.7,2.9-17.6,0c-1.5-0.7-3.2-0.9-4.8-1.3
		C137.9,139.1,137.9,137.7,139.1,136.6z"/>
	<path class="st6" d="M194.2,149.1c-8.8,3.4-17.5,4.6-26.5,0.2c-2.4-1.2-5.7-0.1-8.2,1.3c-5.6,3-11,2.7-16.6,0.1
		c-1.7-0.8-3.8-1-5.7-1.5c0-1.3,0-2.7-0.1-4c2.1,0.6,4.2,1.1,6.1,2c5.5,2.5,10.9,2.5,16.3-0.2c4.1-2,8.2-2.5,12.4-0.2
		c5.7,3.1,11.4,3.1,17.1,0c1.6-0.8,3.5-1.1,5.2-1.6C194.2,146.5,194.2,147.8,194.2,149.1z"/>
	<path class="st13" d="M143.3,128.9c0.9-1.6,2.1-2.9,3.7-3.8c2.8,1.6,5.8,1.5,8.6,0.1c7-3.5,13.8-3.8,20.8,0c2.6,1.4,5.4,1.6,8-0.1
		c1.6,0.9,2.8,2.1,3.7,3.8c-5.1,2.7-10.2,2.6-15.2,0c-4.5-2.4-8.9-2.4-13.3-0.2C154.2,131.4,148.8,131.5,143.3,128.9z"/>
	<path class="st6" d="M143.3,128.9c5.4,2.6,10.8,2.5,16.2-0.2c4.5-2.2,8.9-2.2,13.3,0.2c5,2.7,10.1,2.7,15.2,0
		c1.1,0.8,1.8,1.9,2.2,3.2c-6.2,3.3-12.3,4.2-18.8,0.4c-3.4-2-7.6-1.8-11,0.1c-6.7,3.6-13,2.8-19.4-0.4
		C141.4,130.8,142.2,129.7,143.3,128.9z"/>
	<path class="st6" d="M184.4,125.1c-2.7,1.7-5.5,1.5-8,0.1c-7-3.8-13.8-3.5-20.8,0c-2.8,1.4-5.7,1.5-8.6-0.1
		C157.6,115.4,173.8,115.5,184.4,125.1z"/>
	<path class="st6" d="M145.2,166.1c5.7,1.3,11,0.3,16.2-2.1c3.1-1.5,6.4-1.5,9.6,0.1c4.9,2.4,9.9,3.5,15.3,2.1c-0.8,3-3.5,4-5.9,5.4
		c-9.2-4.7-18.5-5.2-27.9-0.3c-0.4,0.2-1,0.2-1.4,0.3C148.7,170.1,146,169.1,145.2,166.1z"/>
	<path class="st13" d="M151,171.5c0.5-0.1,1-0.1,1.4-0.3c9.4-4.9,18.6-4.3,27.9,0.3c-2,1.6-4.3,2.7-6.9,2.9
		c-5.1-3.4-10.2-2.7-15.3,0.1C155.5,174.2,153.1,173.1,151,171.5z"/>
	<path class="st6" d="M158.2,174.4c5.1-2.8,10.2-3.5,15.3-0.1C168.4,176.3,163.3,176.3,158.2,174.4z"/>
	<path class="st6" d="M186.2,166.2c0.1-1,1-0.9,1.6-1C187.4,165.8,187.2,166.6,186.2,166.2z"/>
	<path class="st6" d="M143.7,165.2c0.7,0.1,1.4,0,1.5,0.9C144.4,166.4,144.1,165.8,143.7,165.2z"/>
	<path class="st9" d="M123,267.7c-0.3,1.5-1.5,1.5-2.7,1.5c-0.9,0-1.8-0.3-1.6-1.3c0.2-1.3,1.4-1.6,2.7-1.6
		C122.3,266.3,122.9,266.7,123,267.7z"/>
</g>
<g>
	<path class="st11" d="M496.4,180c-10.2-18.1-21.2-36-33.1-53.6s-24.5-34.3-37.9-50V180h-35.1V21.9h29c5,5,10.6,11.2,16.7,18.5
		s12.3,15.1,18.6,23.4c6.3,8.3,12.6,16.9,18.8,25.8c6.2,8.9,12.1,17.5,17.6,25.7V21.9h35.4V180H496.4z"/>
	<path class="st11" d="M634.9,183.2c-25.7,0-45.3-7.1-58.7-21.4c-13.5-14.3-20.2-34.6-20.2-60.9c0-13.1,2.1-24.7,6.2-35
		c4.1-10.3,9.7-18.9,16.9-26c7.1-7.1,15.7-12.4,25.5-16.1c9.9-3.6,20.6-5.5,32.2-5.5c6.7,0,12.8,0.5,18.2,1.5
		c5.5,1,10.3,2.1,14.4,3.4c4.1,1.3,7.5,2.6,10.3,4c2.7,1.4,4.7,2.4,5.9,3.2l-10.3,28.7c-4.9-2.6-10.5-4.8-17-6.6s-13.8-2.7-22-2.7
		c-5.5,0-10.8,0.9-16.1,2.7c-5.2,1.8-9.9,4.8-13.9,8.8s-7.3,9.2-9.7,15.6S593,91,593,100.2c0,7.3,0.8,14.1,2.4,20.4
		c1.6,6.3,4.2,11.7,7.8,16.3c3.6,4.6,8.2,8.2,14,10.8c5.8,2.7,12.8,4,21,4c5.2,0,9.8-0.3,13.9-0.9c4.1-0.6,7.8-1.3,10.9-2.2
		c3.2-0.8,6-1.8,8.4-2.9c2.4-1.1,4.6-2.1,6.6-3l9.8,28.5c-5,3-12.1,5.8-21.2,8.2C657.5,182,646.9,183.2,634.9,183.2z"/>
	<path class="st11" d="M777,183.2c-25.7,0-45.3-7.1-58.7-21.4c-13.5-14.3-20.2-34.6-20.2-60.9c0-13.1,2.1-24.7,6.2-35
		c4.1-10.3,9.7-18.9,16.9-26c7.1-7.1,15.7-12.4,25.5-16.1c9.9-3.6,20.6-5.5,32.2-5.5c6.7,0,12.8,0.5,18.2,1.5
		c5.5,1,10.3,2.1,14.4,3.4c4.1,1.3,7.5,2.6,10.3,4c2.7,1.4,4.7,2.4,5.9,3.2l-10.3,28.7c-4.9-2.6-10.5-4.8-17-6.6s-13.8-2.7-22-2.7
		c-5.5,0-10.8,0.9-16.1,2.7c-5.2,1.8-9.9,4.8-13.9,8.8s-7.3,9.2-9.7,15.6s-3.6,14.1-3.6,23.3c0,7.3,0.8,14.1,2.4,20.4
		c1.6,6.3,4.2,11.7,7.8,16.3c3.6,4.6,8.2,8.2,14,10.8c5.8,2.7,12.8,4,21,4c5.2,0,9.8-0.3,13.9-0.9c4.1-0.6,7.8-1.3,10.9-2.2
		c3.2-0.8,6-1.8,8.4-2.9c2.4-1.1,4.6-2.1,6.6-3l9.8,28.5c-5,3-12.1,5.8-21.2,8.2C799.6,182,789,183.2,777,183.2z"/>
	<path class="st11" d="M924.1,49.3c-16.6,0-28.6,4.6-35.9,13.8c-7.4,9.2-11.1,21.8-11.1,37.8c0,7.8,0.9,14.8,2.7,21.1
		s4.6,11.7,8.2,16.3c3.7,4.6,8.2,8.1,13.7,10.6s11.9,3.8,19.2,3.8c4,0,7.3-0.1,10.2-0.2c2.8-0.2,5.3-0.5,7.4-0.9v-55h35.6v78.2
		c-4.3,1.7-11.1,3.5-20.5,5.4s-21.1,2.9-34.9,2.9c-11.9,0-22.6-1.8-32.3-5.5c-9.7-3.6-17.9-9-24.8-16c-6.8-7-12.1-15.6-15.9-25.8
		c-3.7-10.2-5.6-21.8-5.6-34.9c0-13.2,2.1-24.9,6.2-35.1c4.1-10.2,9.7-18.8,16.9-25.9c7.1-7.1,15.5-12.4,25.2-16.1
		c9.7-3.6,20-5.5,30.9-5.5c7.4,0,14.2,0.5,20.2,1.5s11.2,2.1,15.5,3.4s7.9,2.6,10.7,4s4.8,2.4,6,3.2l-10.3,28.5
		c-4.9-2.6-10.5-4.8-16.8-6.7C938.5,50.2,931.6,49.3,924.1,49.3z"/>
</g>
<g>
	<path class="st14" d="M390.7,240.5c0-4.2,0.6-7.8,1.9-11c1.3-3.1,3-5.7,5.1-7.8c2.1-2.1,4.5-3.7,7.2-4.7c2.7-1.1,5.5-1.6,8.4-1.6
		c6.7,0,11.9,2,15.8,6.1c3.9,4.1,5.8,10.1,5.8,18c0,0.8,0,1.6-0.1,2.5c-0.1,0.9-0.1,1.7-0.2,2.5h-30.2c0.3,2.7,1.6,4.9,3.8,6.5
		c2.3,1.6,5.3,2.4,9.1,2.4c2.4,0,4.8-0.2,7.2-0.7c2.4-0.4,4.3-1,5.8-1.7l1.8,10.8c-0.7,0.4-1.7,0.7-2.9,1.1c-1.2,0.4-2.5,0.7-4,0.9
		c-1.5,0.3-3,0.5-4.7,0.7c-1.7,0.2-3.3,0.3-5,0.3c-4.2,0-7.9-0.6-11-1.9c-3.1-1.3-5.7-3-7.8-5.1c-2.1-2.2-3.6-4.8-4.6-7.7
		C391.2,247.2,390.7,244,390.7,240.5z M422,235.4c-0.1-1.1-0.3-2.2-0.6-3.3c-0.3-1.1-0.8-2-1.5-2.9c-0.7-0.8-1.6-1.5-2.6-2.1
		c-1-0.5-2.3-0.8-3.9-0.8c-1.5,0-2.8,0.3-3.8,0.8c-1.1,0.5-2,1.2-2.7,2c-0.7,0.8-1.3,1.8-1.7,2.9c-0.4,1.1-0.7,2.2-0.8,3.4H422z"/>
	<path class="st14" d="M464.7,201c9.2,0,16.3,1.6,21.3,4.9c4.9,3.2,7.4,8.6,7.4,16c0,7.5-2.5,12.8-7.5,16.1c-5,3.3-12.2,5-21.5,5
		H460v20.7h-13.9v-61.1c3-0.6,6.3-1,9.7-1.3C459.1,201.1,462.1,201,464.7,201z M465.5,212.9c-1,0-2,0-3,0.1c-1,0.1-1.8,0.1-2.5,0.2
		V231h4.4c4.8,0,8.5-0.7,10.9-2c2.4-1.3,3.7-3.8,3.7-7.3c0-1.7-0.3-3.2-0.9-4.3c-0.6-1.1-1.5-2-2.7-2.7c-1.2-0.7-2.6-1.2-4.2-1.4
		C469.4,213,467.6,212.9,465.5,212.9z"/>
	<path class="st14" d="M517.8,215.4c3.9,0,7.2,0.4,9.8,1.3c2.6,0.9,4.7,2.2,6.3,3.8c1.6,1.7,2.7,3.7,3.4,6.1c0.7,2.4,1,5,1,8v27.7
		c-1.9,0.4-4.6,0.9-8,1.5c-3.4,0.6-7.5,0.8-12.3,0.8c-3,0-5.8-0.3-8.3-0.8c-2.5-0.5-4.6-1.4-6.4-2.6c-1.8-1.2-3.2-2.8-4.1-4.8
		c-1-2-1.4-4.4-1.4-7.2c0-2.7,0.5-5.1,1.7-7c1.1-1.9,2.6-3.4,4.4-4.6c1.8-1.1,4-2,6.3-2.5c2.4-0.5,4.9-0.8,7.4-0.8
		c1.7,0,3.3,0.1,4.6,0.2c1.3,0.1,2.4,0.3,3.3,0.6V234c0-2.3-0.7-4.1-2.1-5.5c-1.4-1.4-3.8-2.1-7.2-2.1c-2.3,0-4.5,0.2-6.7,0.5
		c-2.2,0.3-4.1,0.8-5.7,1.4l-1.7-10.7c0.8-0.2,1.7-0.5,2.9-0.8c1.2-0.3,2.4-0.5,3.8-0.7c1.4-0.2,2.8-0.4,4.3-0.5
		C514.8,215.5,516.3,215.4,517.8,215.4z M518.9,254.4c1.3,0,2.6,0,3.8-0.1c1.2-0.1,2.1-0.1,2.9-0.3v-10.1c-0.5-0.1-1.3-0.2-2.4-0.4
		c-1.1-0.1-2.1-0.2-3-0.2c-1.3,0-2.4,0.1-3.5,0.2c-1.1,0.1-2.1,0.4-2.9,0.8c-0.8,0.4-1.5,1-2,1.7c-0.5,0.7-0.7,1.6-0.7,2.7
		c0,2.1,0.7,3.5,2.1,4.3C514.5,254,516.5,254.4,518.9,254.4z"/>
	<path class="st14" d="M591.1,216.6c-2.7,9.1-5.5,17.6-8.4,25.5c-2.9,7.9-6.1,15.6-9.6,23.1c-1.3,2.7-2.5,5-3.8,6.8
		c-1.3,1.9-2.6,3.4-4.1,4.6c-1.5,1.2-3.2,2.1-5.1,2.7c-1.9,0.6-4.1,0.8-6.6,0.8c-2.1,0-4-0.2-5.8-0.6c-1.8-0.4-3.2-0.8-4.3-1.3
		l2.3-10.6c1.4,0.5,2.6,0.8,3.7,1c1.1,0.2,2.2,0.3,3.4,0.3c2.4,0,4.2-0.6,5.5-1.9c1.3-1.3,2.4-3.1,3.3-5.3c-3-6-6.1-12.6-9.1-20.1
		c-3-7.4-5.9-15.7-8.6-25H558c0.6,2.3,1.3,4.8,2.1,7.6c0.8,2.7,1.7,5.5,2.6,8.2c0.9,2.8,1.8,5.5,2.7,8.1c0.9,2.6,1.8,5,2.6,7.2
		c0.8-2.1,1.6-4.5,2.4-7.2c0.8-2.6,1.7-5.3,2.5-8.1c0.8-2.8,1.6-5.5,2.3-8.2c0.7-2.7,1.4-5.2,2-7.6H591.1z"/>
	<path class="st14" d="M623.9,238.7c0-4.3-0.6-7.3-1.7-9.1c-1.1-1.8-3-2.7-5.7-2.7c-0.8,0-1.7,0-2.6,0.1s-1.8,0.2-2.6,0.3v36.3
		h-13.3v-45.4c1.1-0.3,2.5-0.6,4-0.9c1.5-0.3,3.1-0.6,4.8-0.9c1.7-0.3,3.4-0.5,5.2-0.6c1.8-0.1,3.5-0.2,5.3-0.2
		c3.4,0,6.2,0.4,8.3,1.3c2.1,0.9,3.9,1.9,5.2,3.1c1.9-1.4,4.1-2.4,6.6-3.2c2.5-0.8,4.8-1.2,6.8-1.2c3.8,0,6.8,0.5,9.3,1.6
		c2.4,1,4.3,2.5,5.8,4.4c1.4,1.9,2.4,4.2,3,6.8c0.5,2.6,0.8,5.5,0.8,8.8v26.5h-13.3v-24.9c0-4.3-0.6-7.3-1.7-9.1
		c-1.1-1.8-3-2.7-5.7-2.7c-0.7,0-1.7,0.2-3,0.5c-1.3,0.4-2.3,0.8-3.2,1.3c0.4,1.4,0.7,2.8,0.8,4.3c0.1,1.5,0.2,3.1,0.2,4.9v25.7
		h-13.3V238.7z"/>
	<path class="st14" d="M672.9,240.5c0-4.2,0.6-7.8,1.9-11c1.3-3.1,3-5.7,5.1-7.8c2.1-2.1,4.5-3.7,7.2-4.7c2.7-1.1,5.5-1.6,8.4-1.6
		c6.7,0,11.9,2,15.8,6.1c3.9,4.1,5.8,10.1,5.8,18c0,0.8,0,1.6-0.1,2.5c-0.1,0.9-0.1,1.7-0.2,2.5h-30.2c0.3,2.7,1.6,4.9,3.8,6.5
		c2.3,1.6,5.3,2.4,9.1,2.4c2.4,0,4.8-0.2,7.2-0.7s4.3-1,5.8-1.7l1.8,10.8c-0.7,0.4-1.7,0.7-2.9,1.1c-1.2,0.4-2.5,0.7-4,0.9
		c-1.5,0.3-3,0.5-4.7,0.7c-1.7,0.2-3.3,0.3-5,0.3c-4.2,0-7.9-0.6-11-1.9c-3.1-1.3-5.7-3-7.8-5.1c-2.1-2.2-3.6-4.8-4.6-7.7
		C673.4,247.2,672.9,244,672.9,240.5z M704.2,235.4c-0.1-1.1-0.3-2.2-0.6-3.3c-0.3-1.1-0.8-2-1.5-2.9c-0.7-0.8-1.5-1.5-2.6-2.1
		c-1-0.5-2.3-0.8-3.9-0.8c-1.5,0-2.8,0.3-3.8,0.8c-1.1,0.5-2,1.2-2.7,2c-0.7,0.8-1.3,1.8-1.7,2.9c-0.4,1.1-0.7,2.2-0.8,3.4H704.2z"
		/>
	<path class="st14" d="M727.4,218.3c2.3-0.7,5.2-1.3,8.8-1.8c3.6-0.6,7.3-0.8,11.3-0.8c4,0,7.3,0.5,10,1.6c2.7,1,4.8,2.5,6.3,4.4
		c1.5,1.9,2.7,4.2,3.3,6.8c0.7,2.6,1,5.5,1,8.8v26.5h-13.3v-24.9c0-4.3-0.6-7.3-1.7-9.1c-1.1-1.8-3.2-2.7-6.3-2.7c-1,0-2,0-3,0.1
		c-1.1,0.1-2,0.2-2.9,0.3v36.3h-13.3V218.3z"/>
	<path class="st14" d="M779.6,204.9l13.3-2.1v13.9h16v11.1h-16v16.5c0,2.8,0.5,5,1.5,6.7c1,1.7,3,2.5,5.9,2.5c1.4,0,2.9-0.1,4.4-0.4
		c1.5-0.3,2.9-0.6,4.2-1.1l1.9,10.4c-1.6,0.7-3.4,1.2-5.4,1.7c-2,0.5-4.4,0.7-7.2,0.7c-3.6,0-6.6-0.5-9-1.5c-2.4-1-4.3-2.4-5.7-4.1
		c-1.4-1.8-2.4-3.9-3-6.4c-0.6-2.5-0.8-5.3-0.8-8.3V204.9z"/>
	<path class="st14" d="M833.2,254.1c2.4,0,4.2-0.2,5.2-0.7c1-0.5,1.5-1.4,1.5-2.8c0-1.1-0.7-2-2-2.8c-1.3-0.8-3.3-1.7-6-2.7
		c-2.1-0.8-4-1.6-5.7-2.4c-1.7-0.8-3.1-1.8-4.3-3c-1.2-1.2-2.1-2.5-2.8-4.2c-0.7-1.6-1-3.5-1-5.8c0-4.4,1.6-7.9,4.9-10.5
		c3.3-2.6,7.8-3.8,13.5-3.8c2.9,0,5.6,0.3,8.2,0.8c2.6,0.5,4.7,1.1,6.3,1.7l-2.3,10.4c-1.6-0.5-3.2-1-5.1-1.4
		c-1.8-0.4-3.9-0.6-6.1-0.6c-4.2,0-6.3,1.2-6.3,3.5c0,0.5,0.1,1,0.3,1.4c0.2,0.4,0.5,0.8,1.1,1.2c0.5,0.4,1.3,0.8,2.2,1.3
		c0.9,0.5,2.1,0.9,3.5,1.5c2.9,1.1,5.3,2.1,7.2,3.2c1.9,1.1,3.4,2.2,4.5,3.4c1.1,1.2,1.9,2.6,2.3,4.1c0.4,1.5,0.7,3.2,0.7,5.2
		c0,4.6-1.7,8.1-5.2,10.5c-3.5,2.4-8.4,3.6-14.8,3.6c-4.2,0-7.6-0.4-10.4-1.1c-2.8-0.7-4.7-1.3-5.8-1.8l2.2-10.8
		c2.3,0.9,4.6,1.6,7,2.1C828.5,253.8,830.9,254.1,833.2,254.1z"/>
	<path class="st14" d="M904,201c9.2,0,16.3,1.6,21.3,4.9c4.9,3.2,7.4,8.6,7.4,16c0,7.5-2.5,12.8-7.5,16.1c-5,3.3-12.2,5-21.5,5h-4.4
		v20.7h-13.9v-61.1c3-0.6,6.3-1,9.7-1.3C898.5,201.1,901.4,201,904,201z M904.9,212.9c-1,0-2,0-3,0.1c-1,0.1-1.8,0.1-2.5,0.2V231
		h4.4c4.8,0,8.5-0.7,10.9-2c2.4-1.3,3.7-3.8,3.7-7.3c0-1.7-0.3-3.2-0.9-4.3c-0.6-1.1-1.5-2-2.7-2.7c-1.2-0.7-2.6-1.2-4.2-1.4
		C908.8,213,906.9,212.9,904.9,212.9z"/>
	<path class="st14" d="M984.7,240.1c0,3.7-0.5,7.1-1.6,10.1c-1.1,3.1-2.6,5.7-4.6,7.9c-2,2.2-4.5,3.9-7.3,5.1
		c-2.8,1.2-6,1.8-9.5,1.8c-3.5,0-6.6-0.6-9.4-1.8c-2.8-1.2-5.3-2.9-7.3-5.1c-2-2.2-3.6-4.8-4.7-7.9c-1.1-3.1-1.7-6.5-1.7-10.1
		c0-3.7,0.6-7.1,1.7-10.1c1.2-3,2.8-5.6,4.8-7.8c2.1-2.1,4.5-3.8,7.3-5c2.8-1.2,5.9-1.8,9.3-1.8c3.4,0,6.5,0.6,9.3,1.8
		c2.8,1.2,5.3,2.9,7.3,5c2,2.1,3.6,4.7,4.7,7.8C984.2,233,984.7,236.4,984.7,240.1z M971.1,240.1c0-4.1-0.8-7.3-2.5-9.7
		c-1.6-2.4-4-3.5-7-3.5c-3,0-5.4,1.2-7.1,3.5c-1.7,2.4-2.5,5.6-2.5,9.7c0,4.1,0.8,7.4,2.5,9.8c1.7,2.4,4,3.6,7.1,3.6
		c3,0,5.4-1.2,7-3.6C970.3,247.4,971.1,244.2,971.1,240.1z"/>
	<path class="st14" d="M1023.3,228.4c-1.2-0.3-2.6-0.6-4.2-0.9c-1.6-0.3-3.3-0.5-5.2-0.5c-0.8,0-1.8,0.1-3,0.2
		c-1.2,0.2-2,0.3-2.6,0.5v35.9H995v-44.5c2.4-0.8,5.2-1.6,8.4-2.4c3.2-0.7,6.9-1.1,10.9-1.1c0.7,0,1.6,0,2.6,0.1c1,0.1,2,0.2,3,0.4
		c1,0.1,2,0.3,3,0.5c1,0.2,1.9,0.5,2.6,0.8L1023.3,228.4z"/>
	<path class="st14" d="M1032.3,204.9l13.3-2.1v13.9h16v11.1h-16v16.5c0,2.8,0.5,5,1.5,6.7c1,1.7,3,2.5,5.9,2.5
		c1.4,0,2.9-0.1,4.4-0.4c1.5-0.3,2.9-0.6,4.2-1.1l1.9,10.4c-1.6,0.7-3.4,1.2-5.4,1.7c-2,0.5-4.4,0.7-7.2,0.7c-3.6,0-6.6-0.5-9-1.5
		c-2.4-1-4.3-2.4-5.7-4.1c-1.4-1.8-2.4-3.9-3-6.4c-0.6-2.5-0.8-5.3-0.8-8.3V204.9z"/>
	<path class="st14" d="M1087.5,215.4c3.9,0,7.2,0.4,9.8,1.3c2.6,0.9,4.7,2.2,6.3,3.8c1.6,1.7,2.7,3.7,3.4,6.1c0.7,2.4,1,5,1,8v27.7
		c-1.9,0.4-4.6,0.9-8,1.5c-3.4,0.6-7.5,0.8-12.3,0.8c-3,0-5.8-0.3-8.3-0.8c-2.5-0.5-4.6-1.4-6.4-2.6c-1.8-1.2-3.2-2.8-4.1-4.8
		c-1-2-1.4-4.4-1.4-7.2c0-2.7,0.5-5.1,1.7-7c1.1-1.9,2.6-3.4,4.4-4.6c1.8-1.1,4-2,6.3-2.5c2.4-0.5,4.9-0.8,7.4-0.8
		c1.7,0,3.3,0.1,4.6,0.2c1.3,0.1,2.4,0.3,3.3,0.6V234c0-2.3-0.7-4.1-2.1-5.5c-1.4-1.4-3.8-2.1-7.2-2.1c-2.3,0-4.5,0.2-6.7,0.5
		c-2.2,0.3-4.1,0.8-5.7,1.4l-1.7-10.7c0.8-0.2,1.7-0.5,2.9-0.8c1.2-0.3,2.4-0.5,3.8-0.7c1.4-0.2,2.8-0.4,4.3-0.5
		C1084.4,215.5,1086,215.4,1087.5,215.4z M1088.6,254.4c1.3,0,2.6,0,3.8-0.1c1.2-0.1,2.1-0.1,2.9-0.3v-10.1
		c-0.5-0.1-1.3-0.2-2.4-0.4c-1.1-0.1-2.1-0.2-2.9-0.2c-1.3,0-2.4,0.1-3.5,0.2c-1.1,0.1-2.1,0.4-2.9,0.8c-0.8,0.4-1.5,1-2,1.7
		c-0.5,0.7-0.7,1.6-0.7,2.7c0,2.1,0.7,3.5,2.1,4.3C1084.2,254,1086.1,254.4,1088.6,254.4z"/>
	<path class="st14" d="M1138.8,264.6c-3.9-0.1-7-0.5-9.4-1.3c-2.4-0.8-4.3-1.9-5.7-3.3c-1.4-1.4-2.4-3.1-2.9-5.1
		c-0.5-2-0.8-4.2-0.8-6.7v-51.8l13.3-2.1v51.2c0,1.2,0.1,2.3,0.3,3.2c0.2,1,0.5,1.8,1,2.4c0.5,0.7,1.2,1.2,2.2,1.6
		c1,0.4,2.2,0.7,3.8,0.8L1138.8,264.6z"/>
</g>
</svg>
