<svg xmlns="http://www.w3.org/2000/svg" xmlns:xlink="http://www.w3.org/1999/xlink" viewBox="0 0 450 450"><style><![CDATA[.r{fill:#435266}.s{fill:#fbfbfb}.t{fill:#f7f7f7}.u{fill:#fd0}.v{fill:#ff9100}.w{opacity:.2}.x{fill:#ffd000}.y{fill:#d93527}.z{fill:#2bd4ed}.AA{fill:#102030}.AB{fill:#ff6a00}.AC{fill:#83d134}.AD{fill:#204263}.AE{fill:#619c26}.AF{fill:#dbdbdb}.AG{fill:#ffbf00}.AH{fill:#2ca3e8}]]></style><path d="M0 0h450v450H0z" class="r"/><g class="s"><path d="M339.3 0h-8.7L450 119.4v-8.7zM220.6 0h-8.7L450 238.1v-8.7zm-74.047 53.346l4.35-4.35L400.3 298.384l-4.35 4.35zm-59.345 59.35l4.35-4.35 249.387 249.387-4.35 4.35zm-59.346 59.337l4.35-4.35L281.6 417.07l-4.35 4.35zM0 262.86L187.14 450h8.7L0 254.17z"/><path d="M428.88 98.3L77.17 450h8.7l347.36-347.37zM0 381.56L68.44 450h8.7L0 372.86z"/></g><g class="w"><use xlink:href="#B"/><use xlink:href="#B" x="-32.815" y="31.618"/><use xlink:href="#B" x="-48.885" y="-50.723"/><use xlink:href="#B" x="-81.705" y="-19.096"/><use xlink:href="#C"/><use xlink:href="#D"/><use xlink:href="#E"/><use xlink:href="#F"/><use xlink:href="#G"/><path d="M261.18 203.36l.26.35-.68 1.03 12.18 7.62.84-1.55-1.66-2.07-10.94-5.38zM249.73 190l1.56 1.58 3.04-2.93-2.34-2.34-2.26 3.7zm-10.53 35.16l-.34-.28 4.96 11.14 2 1.73 1.58-.8-7.16-12.45-1.05.65zm-21.95-24.56l-7.3-4.7-1.94 2.32 2.18 2.77 7.35 1.8-1-1.37.7-.8z"/><path d="M235.65 171.58l-2.4 1.86 4.44 7.45.83-.68 1.33 1.06-1.52-7.4-2.7-2.28zm-13.5 43.5l2.26 2.43 3.04-2.93-1.52-1.62-3.78 2.12zm20.65 21.57l.5 1.3 2.5-.18-3.34-3.12z"/><use xlink:href="#H"/><path d="M270.8 207.35l3 3.46.27-2.5-1.28-.56z"/><use xlink:href="#I"/><use xlink:href="#J"/><use xlink:href="#K"/><use xlink:href="#L"/><use xlink:href="#M"/><use xlink:href="#N"/><path d="M274.2 240.16l2.95 2.47.36-.34-2.36-3.05zm-45.1-74.32l-1.78 1.35h-.02l.97 1.24 3.06-2.32-.14-.14c-.54-.56-1.43-.65-2.1-.15zm2.22.3l-3.06 2.32.93 1.27.03-.02 1.78-1.34c.65-.5.8-1.38.42-2.06l-.1-.17z"/><use xlink:href="#O"/><path d="M203.94 189.72l-1.4 1.72c-.52.64-.47 1.53.08 2.1l.14.14 2.43-2.97-1.2-1-.04.02z"/><path d="M202.74 193.68l.17.1c.66.42 1.55.3 2.07-.34l1.4-1.73v-.03l-1.23-.98-2.44 2.98zm6.4-10l11.952-11.52 1.062 1.102-11.952 11.52z"/></g><g class="u"><use xlink:href="#B" x="-7" y="-7"/><use xlink:href="#B" x="-39.815" y="24.618"/><use xlink:href="#B" x="-55.885" y="-57.724"/><use xlink:href="#B" x="-88.705" y="-26.096"/></g><use xlink:href="#C" x="-7" y="-7" fill="#a8281e"/><use xlink:href="#D" x="-7" y="-7" fill="#c22f23"/><use xlink:href="#E" x="-7" y="-7" class="y"/><use xlink:href="#F" x="-7" y="-7" class="z"/><use xlink:href="#G" x="-7" y="-7" class="y"/><path d="M254.18 196.36l.26.35-.68 1.03 12.18 7.62.84-1.55-1.66-2.07-10.94-5.38zM242.73 183l1.56 1.58 3.04-2.93-2.34-2.34-2.26 3.7zm-10.53 35.16l-.34-.28 4.96 11.14 2 1.73 1.58-.8-7.16-12.45-1.05.65zm-21.95-24.56l-7.3-4.7-1.94 2.32 2.18 2.77 7.35 1.8-1-1.37.7-.8zm18.4-29.02l-2.4 1.86 4.44 7.45.83-.68 1.33 1.06-1.52-7.4-2.7-2.28zm-13.5 43.5l2.26 2.43 3.04-2.93-1.52-1.62-3.78 2.12z" fill="#b32b20"/><path d="M235.8 229.64l.5 1.3 2.5-.18-3.34-3.12z" class="r"/><use xlink:href="#H" x="-7" y="-7" class="u"/><path d="M263.8 200.35l3 3.46.27-2.5-1.28-.56z" class="r"/><use xlink:href="#I" x="-7" y="-7" class="u"/><g class="t"><use xlink:href="#J" x="-7" y="-7"/><use xlink:href="#K" x="-7" y="-7"/></g><use xlink:href="#L" x="-7" y="-7" fill="#d94f43"/><use xlink:href="#M" x="-7" y="-7" class="t"/><use xlink:href="#N" x="-7" y="-7" class="r"/><path d="M267.2 233.16l2.95 2.47.36-.34-2.36-3.05z" class="t"/><path d="M222.1 158.84l-1.78 1.35h-.02l.97 1.24 3.06-2.32-.14-.14c-.54-.56-1.43-.65-2.1-.15z" class="u"/><path d="M224.32 159.13l-3.06 2.32.93 1.27.03-.02 1.78-1.34c.65-.5.8-1.38.42-2.06l-.1-.17z" class="t"/><use xlink:href="#O" x="-7" y="-7" fill="#d94f43"/><path d="M196.94 182.72l-1.4 1.72c-.52.64-.47 1.53.08 2.1l.14.14 2.43-2.97-1.2-1-.04.02z" class="u"/><path d="M195.74 186.68l.17.1c.66.42 1.55.3 2.07-.34l1.4-1.73v-.03l-1.23-.98-2.44 2.98zm6.4-10.012l11.952-11.52 1.062 1.102-11.952 11.52z" class="t"/><g class="w"><use xlink:href="#B" x="-139.775" y="215.102"/><path d="M132.9 434.34c-6.93 3.97-12.55 9.16-17 15.66h46.96c-7.06-7.02-14.2-13.73-21.13-19.8-3.15 1.2-6.1 2.6-8.82 4.15z"/><path d="M135.38 436.9c-5.87 3.52-10.84 7.86-15.02 13.1h42.46c-6.27-6.2-12.62-12.08-18.8-17.42-3.08 1.27-5.96 2.72-8.64 4.33z"/><path d="M120.65 450h38.3c-5.44-5.34-11-10.55-16.72-15.6-9.1 3.37-16.23 8.5-21.57 15.6z"/><path d="M148.38 450h9.48l-3.65-3.14-5.83 3.14z"/><path d="M154.22 446.86l-1.58.8L154 450h2.86l-.63-1.4-2-1.74z"/><path d="M156.74 446.68l-2.52.18 3.34 3.1-.32-2z"/><use xlink:href="#P"/><use xlink:href="#Q"/><path d="M131.7 436.03c-.7-.73-4.72 2.02-9 6.13-3.33 3.2-5.8 6.3-6.4 7.84h3.37c1.8-.95 4.03-2.52 6.18-4.6 4.26-4.1 6.55-8.66 5.85-9.38z"/><path d="M131.7 436.03c-.7-.73-4.72 2.02-9 6.13-3.33 3.2-5.8 6.3-6.4 7.84h2.6c1.7-1.08 3.98-2.94 6.34-5.22 4.27-4.1 7.16-8.03 6.46-8.75z"/><path d="M122.54 442.33l2.37 3.05.94-.92-2.95-2.48z"/></g><use xlink:href="#B" x="-146.775" y="208.102" class="u"/><path d="M134.72 423.2c-3.15 1.2-6.1 2.58-8.82 4.15-7.65 4.38-13.7 10.23-18.37 17.7-.98 1.57-1.9 3.23-2.76 4.95h58c-9.27-9.56-18.84-18.73-28.04-26.8z" fill="#a8281e"/><path d="M137.02 425.58c-3.08 1.27-5.96 2.72-8.64 4.33-7.52 4.5-13.6 10.35-18.37 17.7-.5.78-1 1.57-1.47 2.38h54.22c-8.48-8.74-17.27-17.1-25.74-24.4z" fill="#c22f23"/><path d="M135.22 427.4c-11.88 4.38-20.37 11.77-25.94 22.6h49.63c-7.6-7.82-15.5-15.37-23.7-22.6z" class="y"/><path d="M132 450h26.58c-3.68-3.5-7.46-6.88-11.35-10.14-5.78 2.74-10.83 6.1-15.23 10.14z" class="z"/><path d="M147.22 439.86l-1.58.8 5.38 9.36h1.96l-3.74-8.4-2.02-1.74z" fill="#b32b20"/><path d="M149.74 439.68l-2.52.18 3.34 3.1-.32-2z" class="r"/><use xlink:href="#P" x="-7" y="-7" class="u"/><g class="t"><path d="M108.84 445.87c-.77-.42-1.74-.13-2.16.64l-1.9 3.5h3.62l1.07-1.97c.43-.77.14-1.74-.63-2.16z"/><use xlink:href="#Q" x="-7" y="-7"/><path d="M115.72 435.16c-4.26 4.1-7.16 8.03-6.46 8.76s5.32-1.4 9.6-5.5c4.26-4.1 6.55-8.66 5.85-9.38-.7-.73-4.72 2.02-8.98 6.13z"/></g><path d="M115.72 435.16c-4.26 4.1-7.16 8.03-6.46 8.76s4.72-2.02 9-6.13c4.26-4.1 7.16-8.03 6.46-8.76s-4.73 2.02-9 6.13z" class="r"/><path d="M115.54 435.33l2.37 3.05.94-.92-2.95-2.48z" class="t"/><g class="w"><use xlink:href="#R"/><use xlink:href="#R" x="30.896" y="-32.236"/><use xlink:href="#R" x="89.029" y="23.533"/><path d="M264.7 431.2c-16.9-19.47-47.25-48.68-67.3-64.9-3.04 1.28-5.86 2.76-8.47 4.4-7.3 4.58-13.02 10.52-17.28 18.02-1.53 2.68-2.88 5.55-4.04 8.64 13.4 15.2 35.1 36.45 53.56 52.66h27.7c2.7-2.68 5.28-5.46 7.74-8.36 2.85-3.3 5.53-6.8 8.08-10.44z"/><path d="M252.86 440.46l.7-.73c.13-.23.3-.4.48-.6.17-.18.35-.36.48-.6 2.65-3.13 5.26-6.4 7.68-9.74-15.4-18.07-43.93-45.54-62.4-60.3-2.96 1.35-5.73 2.88-8.32 4.58-1 .7-2.02 1.38-2.98 2.1-.4.32-.83.6-1.18.96-.3.14-.57.4-.83.6-3.33 2.74-6.2 5.74-8.8 9.18-.17.27-.43.54-.56.86-.35.36-.6.8-.9 1.22-.7 1-1.34 2.03-2 3.07-1.6 2.66-3 5.5-4.23 8.5 12.6 14.5 33.82 35.25 51.35 50.4h22.4l.35-.36c3.08-2.87 6.04-5.96 8.78-9.18z"/><use xlink:href="#S"/><path d="M177.66 385.95l66.4 63.7a107.57 107.57 0 0 0 8.81-9.18l-66.4-63.7c-3.33 2.74-6.2 5.74-8.8 9.18zm-1.46 2.08L240.8 450h2.18l-65.88-63.2c-.34.36-.6.8-.9 1.22zm11.1-11.86l66.26 63.56c.13-.23.3-.4.48-.6.17-.18.35-.36.48-.6L188.5 375.2c-.4.32-.84.6-1.2.96z"/><use xlink:href="#T"/><use xlink:href="#U"/><use xlink:href="#V"/><path d="M201.5 412.3l24.36 23.37 1.14-1-24.6-23.58a5.81 5.81 0 0 0-.91 1.21zm11.1-11.85l24.6 23.58c.35-.36.65-.77.96-1.18l-24.36-23.37a6.71 6.71 0 0 0-1.19.97zm-26.08 9.25l-.77 1.55 1.7 1.96 10.9 4.83-.27-.33.63-1.03-12.2-6.98zm19.1 22.45l2.38 2.2 2.07-3.7-1.6-1.48-2.86 2.98z"/><use xlink:href="#W"/><use xlink:href="#X"/><use xlink:href="#Y"/><use xlink:href="#Z"/><path d="M214.52 383.54l-2.45.27 3.4 2.92-.4-1.95z"/><use xlink:href="#a"/><path d="M185.6 413.7l1.27.5 1.95.3-3.06-3.27z"/><use xlink:href="#b"/><path d="M255.56 440.6l-9 9.4h2.07l8.02-8.36z"/><use xlink:href="#c"/><path d="M195.7 367.3c-.6.22-5.64 2.63-5.86 3.32-.5 1.6 6.56-.06 8.08-1.44 1.1-1-.93-2.34-2.22-1.88z"/><use xlink:href="#d"/><use xlink:href="#e"/><use xlink:href="#f"/><path d="M180.4 379.76l1.27 1.22c3.7-3.86 8-6.9 8-6.9s-8.58 6.1-9.27 5.67zm4.87 26.76l2.26-6.5-3.4 5.4zm-1.67-1.6l2.25-6.5-3.4 5.4zm-1.66-1.6l2.26-6.5-3.4 5.4zm19-17.28l6.4-2.53-1.13-1.1zm-1.67-1.6l6.4-2.52-1.14-1.1zm-1.67-1.6l6.4-2.52-1.13-1.1z"/><use xlink:href="#g"/></g><g class="u"><use xlink:href="#R" x="-7" y="-7"/><use xlink:href="#R" x="23.896" y="-39.235"/><path d="M221.2 450h1.27l-.66-.64z"/><use xlink:href="#R" x="82.029" y="16.534"/></g><path d="M249.64 434.64c2.84-3.32 5.52-6.8 8.07-10.45-16.9-19.47-47.25-48.68-67.3-64.9-3.04 1.28-5.86 2.76-8.47 4.4-7.3 4.58-13.02 10.52-17.28 18.02-1.53 2.68-2.88 5.55-4.04 8.64 15.44 17.52 41.9 43.05 61.7 59.66h11.96c1.4-1.2 2.76-2.4 4.1-3.64a132.22 132.22 0 0 0 11.24-11.71z" class="AE"/><path d="M235.8 443.87c.17-.18.35-.36.57-.5l.7-.73a107.57 107.57 0 0 0 8.81-9.18l.7-.73c.13-.23.3-.4.48-.6.17-.18.35-.36.48-.6 2.65-3.13 5.26-6.4 7.68-9.74-15.4-18.07-43.93-45.54-62.4-60.3-2.96 1.35-5.73 2.88-8.32 4.58-1 .7-2.02 1.38-2.98 2.1-.4.32-.83.6-1.18.96-.3.14-.57.4-.83.6-3.33 2.74-6.2 5.74-8.8 9.18-.17.27-.43.54-.56.86-.35.36-.6.8-.9 1.22-.7 1-1.34 2.03-2 3.07-1.6 2.66-3 5.5-4.23 8.5 14.68 16.88 41.08 42.3 59.68 57.4h6.13c2.2-1.84 4.37-3.72 6.44-5.63.2-.14.36-.32.54-.5z" fill="#73b82e"/><use xlink:href="#S" x="-7" y="-7" class="AC"/><path d="M170.66 378.95l66.4 63.7a107.57 107.57 0 0 0 8.81-9.18l-66.4-63.7c-3.33 2.74-6.2 5.74-8.8 9.18z" class="u"/><path d="M169.2 381.03l66.03 63.34c.22-.14.4-.32.57-.5s.35-.36.57-.5L170.1 379.8c-.35.36-.6.8-.9 1.22zm11.1-11.86l66.26 63.56c.13-.23.3-.4.48-.6.17-.18.35-.36.48-.6L181.5 368.2c-.4.32-.84.6-1.2.96z" class="s"/><use xlink:href="#T" x="-7" y="-7" class="z"/><use xlink:href="#U" x="-7" y="-7" class="AC"/><use xlink:href="#V" x="-7" y="-7" class="u"/><path d="M194.5 405.3l24.36 23.37 1.14-1-24.6-23.58a5.81 5.81 0 0 0-.91 1.21zm11.1-11.85l24.6 23.58c.35-.36.65-.77.96-1.18l-24.36-23.37a6.71 6.71 0 0 0-1.19.97z" class="s"/><g class="AE"><path d="M179.52 402.7l-.77 1.55 1.7 1.96 10.9 4.83-.27-.33.63-1.03-12.2-6.98zm19.1 22.45l2.38 2.2 2.07-3.7-1.6-1.48-2.86 2.98z"/><use xlink:href="#W" x="-7" y="-7"/><use xlink:href="#X" x="-7" y="-7"/><use xlink:href="#Y" x="-7" y="-7"/><use xlink:href="#Z" x="-7" y="-7"/></g><path d="M207.52 376.54l-2.45.27 3.4 2.92-.4-1.95z" class="r"/><use xlink:href="#a" x="-7" y="-7" class="AC"/><path d="M178.6 406.7l1.27.5 1.95.3-3.06-3.27z" class="r"/><use xlink:href="#b" x="-7" y="-7" class="AC"/><path d="M237.342 445.344l11.25-11.728 1.083 1.038-11.25 11.728z" class="t"/><g class="s"><use xlink:href="#c" x="-7" y="-7"/><path d="M188.7 360.3c-.6.22-5.64 2.63-5.86 3.32-.5 1.6 6.56-.06 8.08-1.44 1.1-1-.93-2.34-2.22-1.88z"/></g><use xlink:href="#d" x="-7" y="-7" class="r"/><g class="s"><use xlink:href="#e" x="-7" y="-7"/><use xlink:href="#f" x="-7" y="-7"/><path d="M173.4 372.76l1.27 1.22c3.7-3.86 8-6.9 8-6.9s-8.58 6.1-9.27 5.67z"/></g><path d="M178.27 399.52l2.26-6.5-3.4 5.4zm-1.67-1.6l2.25-6.5-3.4 5.4zm-1.66-1.6l2.26-6.5-3.4 5.4zm19-17.28l6.4-2.53-1.13-1.1zm-1.67-1.6l6.4-2.52-1.14-1.1zm-1.67-1.6l6.4-2.52-1.13-1.1z" class="r"/><g class="y"><path d="M235 445.47l-5.26 4.53h3.87l3.04-2.62z"/><use xlink:href="#g" x="-7" y="-7"/></g><g class="w"><use xlink:href="#R" x="-166.218" y="-46.96"/><use xlink:href="#R" x="-135.348" y="-79.14"/><path d="M21.02 350.68c4-3.7 7.73-7.58 11.24-11.72 2.84-3.32 5.52-6.8 8.07-10.45C30.07 316.7 14.85 301.28 0 287.37v62.72c3.85 3.33 7.53 6.4 10.9 9.1a138.98 138.98 0 0 0 10.11-8.51z"/><path d="M17.84 348.68c.22-.14.4-.32.57-.5.17-.18.35-.36.57-.5l.7-.73a107.57 107.57 0 0 0 8.81-9.18l.7-.73c.13-.23.3-.4.48-.6.17-.18.35-.36.48-.6 2.65-3.13 5.26-6.4 7.68-9.74-9.45-11.08-23.85-25.7-37.83-38.76v62.57c2.95 2.5 5.77 4.82 8.4 6.88 3.3-2.6 6.44-5.35 9.45-8.13z"/><path d="M25.92 318.1c-7.95-9.1-16.76-18.28-25.92-27.07v54.1c10.14-7.7 18.64-16.58 25.92-27.04z"/><path d="M26.17 318.36c-8.02-9.7-16.77-18.7-26.17-27.03v53.98c.06.05.12.1.18.14 9.83-8.04 18.36-16.93 26-27.1z"/><path d="M2.62 332c.22-.23.48-.4.7-.73a107.57 107.57 0 0 0 8.81-9.18c.3-.23.48-.5.7-.73.35-.36.65-.77.96-1.18a101.46 101.46 0 0 0 3.91-4.62C12.5 308.8 6.6 302.7 0 297.32v37.08l1.48-1.4c.4-.32.8-.64 1.14-1z"/><path d="M1.53 304.1L0 302.58v7.9l1.53-1.54c1.34-1.34 1.33-3.5 0-4.84z"/><path d="M.32 305.3l-.32-.32v3.06l.32-.32a1.71 1.71 0 0 0 0-2.42z"/><use xlink:href="#X" x="-224.38" y="-102.68"/><path d="M2.44 343.55L0 339.8v5.53l.18.14 2.26-1.9z"/><use xlink:href="#Z" x="-224.38" y="-102.68"/><path d="M19.94 349.648l11.248-11.728 1.083 1.038-11.248 11.728z"/><use xlink:href="#h"/><use xlink:href="#g" x="-224.384" y="-102.674"/></g><use xlink:href="#R" x="-142.348" y="-86.14" class="u"/><path d="M14.02 343.68c4-3.7 7.73-7.58 11.24-11.72 2.84-3.32 5.52-6.8 8.07-10.45C24.68 311.55 12.5 299.03 0 287v62l3.9 3.18a138.98 138.98 0 0 0 10.11-8.51z" class="AE"/><path d="M10.84 341.68c.22-.14.4-.32.57-.5.17-.18.35-.36.57-.5l.7-.73a107.57 107.57 0 0 0 8.81-9.18l.7-.73c.13-.23.3-.4.48-.6.17-.18.35-.36.48-.6 2.65-3.13 5.26-6.4 7.68-9.74C22.95 309.9 11.64 298.2 0 287v61.7l1.4 1.1c3.3-2.6 6.44-5.35 9.45-8.13z" fill="#73b82e"/><path d="M18.92 311.1c-5.9-6.75-12.28-13.55-18.92-20.2v41.5c7.14-6.3 13.38-13.34 18.92-21.3z" class="AC"/><path d="M19.17 311.36c-6-7.25-12.4-14.1-19.17-20.6v41.77c7.03-6.45 13.36-13.45 19.17-21.18z" class="z"/><path d="M5.82 314.35c.35-.36.65-.77.96-1.18l3.9-4.62c-3.27-4.27-6.84-8.3-10.7-12.02v24.13c1.77-1.8 3.5-3.67 5.12-5.6.3-.22.48-.5.7-.72z" class="AC"/><g class="AE"><use xlink:href="#X" x="-231.38" y="-109.68"/><path d="M4.7 295.4l-2.3-2.3-2.4 2.52v.9l1.1 1.08 3.6-2.22z"/></g><path d="M12.94 342.65l11.248-11.728 1.083 1.038-11.248 11.728z" class="t"/><g class="y"><path d="M3.03 349.32l7.588-6.543 1.652 1.916-7.588 6.543z"/><use xlink:href="#g" x="-231.384" y="-109.674"/></g><g class="w"><use xlink:href="#R" x="-15.53" y="-201.787"/><use xlink:href="#R" x="-46.414" y="-169.592"/><use xlink:href="#R" x="-73.656" y="-257.557"/><use xlink:href="#R" x="-104.539" y="-225.363"/><use xlink:href="#i"/><use xlink:href="#j"/><path d="M103 154.42c-10.18 7.72-18.7 16.6-26 27.1 15.4 17.63 34.06 35.63 52.2 50.4 12.94-5.36 21.5-14.28 26.3-27.43-15.52-17.53-34.28-35.42-52.53-50.08z"/><use xlink:href="#k"/><use xlink:href="#l"/><use xlink:href="#m"/><path d="M128.92 184.28l.27.33-.63 1.03 12.2 6.98.77-1.55-1.7-1.97-10.9-4.82zm-11.72-12.62l1.6 1.48 2.86-2.98-2.38-2.2-2.07 3.7zm-8.95 34.78c-.12-.08-.23-.17-.34-.26l5.28 10.7 2.03 1.62 1.5-.83-7.48-11.9-1 .67zm-22.4-23.18l-7.3-4.32-1.8 2.34 2.23 2.63 7.26 1.47-1.04-1.3.67-.82z"/><path d="M102.73 154.18l-2.26 1.9 4.62 7.12.78-.7 1.34.98-1.77-7.2-2.7-2.12zM91.2 197.23l2.3 2.3 2.86-2.98L94.8 195l-3.6 2.22zm21.02 20.3l.54 1.25 2.46-.27-3.4-2.92z"/><use xlink:href="#n"/><path d="M138.47 187.8l3.06 3.27.17-2.47-1.27-.5z"/><use xlink:href="#o"/><path d="M70.657 160.675l11.25-11.728 1.093 1.04-11.25 11.728zm86.073 43.945c-1.3 1.57-2.68 8.7-1.1 8.13.68-.25 2.88-5.38 3.07-6 .4-1.3-1.03-3.27-1.97-2.14zm-27.35 28.5c-1.1 1 .93 2.34 2.22 1.88.6-.22 5.64-2.63 5.86-3.32.5-1.6-6.56.06-8.08 1.44z"/><use xlink:href="#p"/><path d="M146.38 222.06c-.44.46-.57 1.05-.28 1.32.28.27.87.12 1.3-.34s.57-1.05.28-1.32-.87-.12-1.3.34z"/><path d="M145.62 221.34l1.27 1.22c-.46-.68 5.28-9.5 5.28-9.5s-2.85 4.42-6.55 8.28zm-8.02 6.9s8.58-6.1 9.27-5.67l-1.27-1.22c-3.7 3.85-8 6.9-8 6.9zm2.16-25.93l3.4-5.4-1.14-1.1zm1.66 1.6l3.4-5.4-1.13-1.1zm1.68 1.6l3.4-5.4-1.14-1.1zm-22 14.38l5.26-3.6-6.4 2.52zm1.65 1.6l5.26-3.6-6.4 2.52zm1.67 1.6l5.26-3.6-6.4 2.52z"/><use xlink:href="#h" x="73.568" y="-208.39"/><use xlink:href="#g" x="-192.117" y="-267.982"/></g><g class="u"><use xlink:href="#R" x="-22.53" y="-208.788"/><use xlink:href="#R" x="-53.414" y="-176.592"/><use xlink:href="#R" x="-80.656" y="-264.558"/><use xlink:href="#R" x="-111.539" y="-232.364"/></g><use xlink:href="#i" x="-7" y="-7" fill="#b8b8b8"/><use xlink:href="#j" x="-7" y="-7" fill="#f0f0f0"/><path d="M96 147.42c-10.18 7.72-18.7 16.6-26 27.1 15.4 17.63 34.06 35.63 52.2 50.4 12.94-5.36 21.5-14.28 26.3-27.43C133 179.97 114.24 162.08 96 147.42z" class="s"/><use xlink:href="#k" x="-7" y="-7" fill="#fff"/><use xlink:href="#l" x="-7" y="-7" class="z"/><use xlink:href="#m" x="-7" y="-7" class="s"/><path d="M121.92 177.28l.27.33-.63 1.03 12.2 6.98.77-1.55-1.7-1.97-10.9-4.82zm-11.72-12.62l1.6 1.48 2.86-2.98-2.38-2.2-2.07 3.7zm-8.95 34.78c-.12-.08-.23-.17-.34-.26l5.28 10.7 2.03 1.62 1.5-.83-7.48-11.9-1 .67zm-22.4-23.18l-7.3-4.32-1.8 2.34 2.23 2.63 7.26 1.47-1.04-1.3.67-.82zm16.88-29.08l-2.26 1.9 4.62 7.12.78-.7 1.34.98-1.77-7.2-2.7-2.12zM84.2 190.23l2.3 2.3 2.86-2.98L87.8 188l-3.6 2.22z" class="AF"/><path d="M105.22 210.53l.54 1.25 2.46-.27-3.4-2.92z" class="r"/><use xlink:href="#n" x="-7" y="-7" class="s"/><path d="M131.47 180.8l3.06 3.27.17-2.47-1.27-.5z" class="r"/><use xlink:href="#o" x="-7" y="-7" class="s"/><path d="M63.657 153.675l11.25-11.728 1.083 1.038-11.25 11.728z" class="t"/><path d="M149.73 197.62c-1.3 1.57-2.68 8.7-1.1 8.13.68-.25 2.88-5.38 3.07-6 .4-1.3-1.03-3.27-1.97-2.14zm-27.35 28.5c-1.1 1 .93 2.34 2.22 1.88.6-.22 5.64-2.63 5.86-3.32.5-1.6-6.56.06-8.08 1.44z" class="s"/><use xlink:href="#p" x="-7" y="-7" class="r"/><g class="s"><path d="M139.38 215.06c-.44.46-.57 1.05-.28 1.32.28.27.87.12 1.3-.34s.57-1.05.28-1.32-.87-.12-1.3.34z"/><path d="M138.62 214.34l1.27 1.22c-.46-.68 5.28-9.5 5.28-9.5s-2.85 4.42-6.55 8.28zm-8.02 6.9s8.58-6.1 9.27-5.67l-1.27-1.22c-3.7 3.85-8 6.9-8 6.9z"/></g><path d="M132.76 195.3l3.4-5.4-1.14-1.1zm1.66 1.6l3.4-5.4-1.13-1.1zm1.68 1.6l3.4-5.4-1.14-1.1zm-22 14.38l5.26-3.6-6.4 2.52zm1.65 1.6l5.26-3.6-6.4 2.52zm1.67 1.6l5.26-3.6-6.4 2.52z" class="r"/><g class="y"><use xlink:href="#h" x="66.568" y="-215.389"/><use xlink:href="#g" x="-199.117" y="-274.982"/></g><g class="w"><use xlink:href="#R" x="144.711" y="-316.696"/><use xlink:href="#R" x="175.563" y="-348.913"/><use xlink:href="#R" x="202.844" y="-260.918"/><use xlink:href="#R" x="233.726" y="-293.108"/><use xlink:href="#q"/><use xlink:href="#r"/><use xlink:href="#s"/><use xlink:href="#t"/><path d="M356.76 67.1c-11.98 6.28-20.54 15.2-26.3 27.43 11.54 13.7 24.52 26.06 38.8 36.9 9.84-8.05 18.36-16.93 26-27.1a242.89 242.89 0 0 0-38.48-37.23z"/><path d="M363.7 79.17c-1.85 1.1-3.56 2.35-5.22 3.63a6.51 6.51 0 0 0-1.18.96c-.3.23-.57.4-.8.64-3.33 2.74-6.2 5.74-8.8 9.18-.22.23-.4.5-.6.8-.35.36-.65.77-.9 1.22-1.2 1.72-2.38 3.48-3.4 5.37 6.68 8.5 14.5 15.9 23.3 22.1 1.53-1.32 3.02-2.7 4.46-4.1.4-.32.8-.64 1.14-1 .22-.23.48-.4.7-.73a107.57 107.57 0 0 0 8.81-9.18c.3-.23.48-.5.7-.73.35-.36.65-.77.96-1.18a101.46 101.46 0 0 0 3.91-4.62C380.2 93 372.48 85.5 363.7 79.17z"/><path d="M331.2 93l-.77 1.55 1.7 1.97 10.9 4.83-.27-.33.63-1.03-12.2-7zm19.12 22.46l2.38 2.2 2.07-3.7-1.6-1.48-2.86 2.98zm6.44-48.36l-1.5.83 7.48 11.9 1-.67a4.36 4.36 0 0 1 .34.26l-5.28-10.7-2.03-1.62zm29 33.15l1.04 1.3-.66.8 7.3 4.32 1.8-2.34-2.23-2.63-7.27-1.46z"/><use xlink:href="#Y" x="144.7" y="-316.68"/><use xlink:href="#Z" x="144.69" y="-316.68"/><path d="M359.2 66.85l-2.45.26 3.4 2.92-.4-1.94z"/><use xlink:href="#u"/><path d="M330.28 97l1.26.5 1.96.3-3.06-3.26z"/><use xlink:href="#v"/><path d="M389.005 135.652l11.25-11.726 1.082 1.038-11.25 11.726z"/><use xlink:href="#c" x="144.69" y="-316.69"/><path d="M340.37 50.6c-.6.22-5.64 2.63-5.86 3.32-.5 1.6 6.56-.06 8.08-1.44 1.1-.98-.93-2.34-2.22-1.88z"/><use xlink:href="#w"/><use xlink:href="#e" x="144.69" y="-316.69"/><use xlink:href="#f" x="144.7" y="-316.69"/><path d="M325.08 63.07l1.27 1.22c3.7-3.86 8-6.9 8-6.9s-8.57 6.1-9.27 5.67zm4.88 26.76l2.26-6.5-3.4 5.4zm-1.66-1.6l2.25-6.5-3.4 5.4zm-1.67-1.6l2.25-6.5-3.4 5.4zm19-17.28l6.4-2.52-1.14-1.1zm-1.66-1.6l6.4-2.53-1.14-1.1zm-1.66-1.6l6.4-2.52-1.14-1.1z"/><use xlink:href="#h" x="369.053" y="-214.029"/><use xlink:href="#g" x="144.7" y="-316.673"/></g><g class="u"><use xlink:href="#R" x="137.711" y="-323.697"/><use xlink:href="#R" x="168.563" y="-355.912"/><use xlink:href="#R" x="195.844" y="-267.918"/><use xlink:href="#R" x="226.726" y="-300.11"/></g><use xlink:href="#q" x="-7" y="-7" fill="#b8b8b8"/><use xlink:href="#r" x="-7" y="-7" fill="#f0f0f0"/><use xlink:href="#s" x="-7" y="-7" class="s"/><use xlink:href="#t" x="-7" y="-7" fill="#fff"/><path d="M349.76 60.12c-11.98 6.28-20.54 15.2-26.3 27.43 11.54 13.7 24.52 26.06 38.8 36.9 9.84-8.05 18.36-16.93 26-27.1-11.43-13.82-24.3-26.27-38.48-37.23z" class="z"/><path d="M356.7 72.17c-1.85 1.1-3.56 2.35-5.22 3.63a6.51 6.51 0 0 0-1.18.96c-.3.23-.57.4-.8.64-3.33 2.74-6.2 5.74-8.8 9.18-.22.23-.4.5-.6.8-.35.36-.65.77-.9 1.22-1.2 1.72-2.38 3.48-3.4 5.37 6.68 8.5 14.5 15.9 23.3 22.1 1.53-1.32 3.02-2.7 4.46-4.1.4-.32.8-.64 1.14-1 .22-.23.48-.4.7-.73a107.57 107.57 0 0 0 8.81-9.18c.3-.23.48-.5.7-.73.35-.36.65-.77.96-1.18a101.46 101.46 0 0 0 3.91-4.62C373.2 86 365.48 78.5 356.7 72.17z" class="s"/><g class="AF"><path d="M324.2 86l-.77 1.55 1.7 1.97 10.9 4.83-.27-.33.63-1.03-12.2-7zm19.12 22.46l2.38 2.2 2.07-3.7-1.6-1.48-2.86 2.98z"/><use xlink:href="#W" x="137.69" y="-323.68"/><path d="M378.75 93.25l1.04 1.3-.66.8 7.3 4.32 1.8-2.34-2.23-2.63-7.27-1.46z"/><use xlink:href="#Y" x="137.7" y="-323.68"/><use xlink:href="#Z" x="137.69" y="-323.68"/></g><path d="M352.2 59.85l-2.45.27 3.4 2.9-.4-1.94z" class="r"/><use xlink:href="#u" x="-7" y="-7" class="s"/><path d="M323.28 90l1.26.5 1.96.3-3.06-3.26z" class="r"/><use xlink:href="#v" x="-7" y="-7" class="s"/><path d="M382.005 128.652l11.25-11.726 1.082 1.038-11.25 11.726z" class="t"/><g class="s"><use xlink:href="#c" x="137.69" y="-323.69"/><path d="M333.37 43.6c-.6.22-5.64 2.63-5.86 3.32-.5 1.6 6.56-.06 8.08-1.44 1.1-.98-.93-2.34-2.22-1.88z"/></g><use xlink:href="#w" x="-7" y="-7" class="r"/><g class="s"><use xlink:href="#e" x="137.69" y="-323.69"/><use xlink:href="#f" x="137.7" y="-323.69"/><path d="M318.08 56.07l1.27 1.22c3.7-3.86 8-6.9 8-6.9s-8.57 6.1-9.27 5.67z"/></g><path d="M322.96 82.83l2.26-6.5-3.4 5.4zm-1.66-1.6l2.25-6.5-3.4 5.4zm-1.67-1.6l2.25-6.5-3.4 5.4zm19-17.28l6.4-2.52-1.14-1.1zm-1.66-1.6l6.4-2.53-1.14-1.1zm-1.66-1.6l6.4-2.52-1.14-1.1z" class="r"/><g class="y"><use xlink:href="#h" x="362.052" y="-221.028"/><use xlink:href="#g" x="137.7" y="-323.673"/></g><g class="w"><path d="M40.68 209.28c-3.92-3.35-9.6-3.98-14-1.3-.17.1-.35.2-.52.32-7.1 4.44-12.67 10.23-16.82 17.5l-.3.53c-2.5 4.5-1.65 10.16 1.85 13.94 14.6 15.8 35.52 35.86 52.26 50.12 4.66 3.97 11.56 4 16.12-.08l1.72-1.57c3.9-3.58 7.53-7.37 10.94-11.4l1.5-1.77c3.9-4.72 3.58-11.62-.57-16.1-14.9-16.16-35.8-36.25-52.17-50.2z"/><use xlink:href="#x"/><use xlink:href="#y"/><use xlink:href="#z"/><use xlink:href="#AA"/><use xlink:href="#AB"/><path d="M42.33 268.1l2.3 2.14 2.02-3.6-1.54-1.44-2.8 2.9z"/><use xlink:href="#AC"/><use xlink:href="#AD"/><use xlink:href="#AE"/><path d="M66.96 242.48l1.5 1.5 3.5-2.16-2.23-2.23-2.78 2.9zm-15.94-21.64l-2.4.26 3.3 2.84-.37-1.9z"/><use xlink:href="#AF"/><path d="M22.85 250.15l1.23.48 1.9.3-2.97-3.18z"/><use xlink:href="#AG"/><use xlink:href="#AH"/><path d="M56.5 244.58l-9.77 10.17 5.24 5.04 5.14-2.17 7.63-7.94-2.26-2.18z"/><path d="M46.72 254.75l5.24 5.04.07-2.07-2.26-2.18z"/><path d="M46.72 254.75l3.05.8 7.63-7.94-.9-3.02z"/><path d="M57.4 247.6l2.26 2.18 2.07-.16-5.24-5.04z"/><path d="M52.03 257.72l-.07 2.07 9.77-10.17-2.07.16z"/><path d="M49.77 255.532l7.635-7.947 2.264 2.175-7.635 7.947zM24.34 237.5l3.1 2.1 2.27-3.1-2.94-2.3-2.42 3.3zm-4.67 8.23l.52-1.14-3.08-1.53 2.56 2.67z"/><path d="M20.2 244.6l3.35 1.67 1.84-3.4-3.23-1.9-1.96 3.62z"/><use xlink:href="#AI"/><path d="M41.82 220.5l2.02 3.15 3.32-1.97-1.8-3.28-3.54 2.1zm-22.9 18.58l3.23 1.9 2.2-3.47-3.1-2.1-2.33 3.68z"/><path d="M36.2 219.82l2.23 3 3.38-2.33-2.02-3.15-3.6 2.47zm-6.82 11.25l2.78 2.5 2.66-2.76-2.6-2.68-2.83 2.94z"/><path d="M35.23 225.38l2.42 2.85 3-2.4-2.23-3-3.2 2.55zm5.13-12.7l-2.58 1.53 2.02 3.15 3.67-2.18-2.22-1.96c-.27-.22-.6-.34-.9-.54z"/><path d="M29.6 225.45l2.6 2.68 3.02-2.75-2.42-2.85-3.2 2.92zm.8-5.77l2.42 2.85 3.4-2.7-2.23-3-3.6 2.86zM18.16 233.3l3.1 2.1 2.56-3.5-2.94-2.3-2.7 3.72zm27.2-14.9l1.1-.56-2.77-2.45 1.66 3z"/><path d="M23.82 226.07l2.78 2.5 3-3.13-2.6-2.68-3.17 3.3z"/><path d="M23.8 231.9l2.94 2.3 2.63-3.13-2.78-2.5-2.8 3.32z"/><use xlink:href="#AJ"/><use xlink:href="#AK"/><ellipse transform="matrix(.6928 -.7211 .7211 .6928 -151.2206 79.867)" cx="18.14" cy="217.44" rx="7.96" ry="1.97"/><use xlink:href="#AL"/><use xlink:href="#AM"/><use xlink:href="#AN"/></g><path d="M33.68 202.28c-3.92-3.35-9.6-3.98-14-1.3-.17.1-.35.2-.52.32-7.1 4.44-12.67 10.23-16.82 17.5l-.3.53C-.47 223.85.4 229.5 3.9 233.3c14.6 15.8 35.52 35.86 52.26 50.12 4.66 3.97 11.56 4 16.12-.08l1.72-1.57c3.9-3.58 7.53-7.37 10.94-11.4l1.5-1.77c3.9-4.72 3.58-11.62-.57-16.1-14.9-16.16-35.8-36.25-52.17-50.2z" class="v"/><use xlink:href="#x" x="-7" y="-7" class="AG"/><use xlink:href="#y" x="-7" y="-7" class="u"/><use xlink:href="#z" x="-7" y="-7" class="z"/><use xlink:href="#AA" x="-7" y="-7" class="u"/><g class="v"><use xlink:href="#AB" x="-7" y="-7"/><path d="M35.33 261.1l2.3 2.14 2.02-3.6-1.54-1.44-2.8 2.9z"/><use xlink:href="#AC" x="-7" y="-7"/><use xlink:href="#AD" x="-7" y="-7"/><use xlink:href="#AE" x="-7" y="-7"/><path d="M59.96 235.48l1.5 1.5 3.5-2.16-2.23-2.23-2.78 2.9z"/></g><g class="r"><path d="M44.02 213.84l-2.4.26 3.3 2.84-.37-1.9z"/><use xlink:href="#AF" x="-7" y="-7"/><path d="M15.85 243.15l1.23.48 1.9.3-2.97-3.18z"/><use xlink:href="#AG" x="-7" y="-7"/></g><use xlink:href="#AH" x="-7" y="-7" class="t"/><path d="M49.5 237.58l-9.77 10.17 5.24 5.04 5.14-2.17 7.63-7.94-2.26-2.18z" class="x"/><path d="M39.72 247.75l5.24 5.04.07-2.07-2.26-2.18z" class="AB"/><path d="M39.72 247.75l3.05.8 7.63-7.94-.9-3.02z" class="v"/><path d="M50.4 240.6l2.26 2.18 2.07-.16-5.24-5.04z" class="AB"/><path d="M45.03 250.72l-.07 2.07 9.77-10.17-2.07.16z" class="v"/><path d="M42.77 248.533l7.635-7.947 2.264 2.175-7.635 7.947z" class="x"/><g class="AD"><path d="M17.34 230.5l3.1 2.1 2.27-3.1-2.94-2.3-2.42 3.3zm-4.67 8.23l.52-1.14-3.08-1.53 2.56 2.67z"/><path d="M13.2 237.6l3.35 1.67 1.84-3.4-3.23-1.9-1.96 3.62z"/><use xlink:href="#AI" x="-7" y="-7"/><path d="M34.82 213.5l2.02 3.15 3.32-1.97-1.8-3.28-3.54 2.1zm-22.9 18.58l3.23 1.9 2.2-3.47-3.1-2.1-2.33 3.68z"/><path d="M29.2 212.82l2.23 3 3.38-2.33-2.02-3.15-3.6 2.47zm-6.82 11.25l2.78 2.5 2.66-2.76-2.6-2.68-2.83 2.94z"/><path d="M28.23 218.38l2.42 2.85 3-2.4-2.23-3-3.2 2.55zm5.13-12.7l-2.58 1.53 2.02 3.15 3.67-2.18-2.22-1.96c-.27-.22-.6-.34-.9-.54z"/><path d="M22.6 218.45l2.6 2.68 3.02-2.75-2.42-2.85-3.2 2.92zm.8-5.77l2.42 2.85 3.4-2.7-2.23-3-3.6 2.86zM11.16 226.3l3.1 2.1 2.56-3.5-2.94-2.3-2.7 3.72zm27.2-14.9l1.1-.56-2.77-2.45 1.66 3z"/><path d="M16.82 219.07l2.78 2.5 3-3.13-2.6-2.68-3.17 3.3z"/><path d="M16.8 224.9l2.94 2.3 2.63-3.13-2.78-2.5-2.8 3.32z"/></g><g class="s"><use xlink:href="#AJ" x="-7" y="-7"/><use xlink:href="#AK" x="-7" y="-7"/></g><ellipse transform="matrix(.6928 -.7211 .7211 .6928 -148.3228 72.6691)" cx="11.14" cy="210.44" rx="7.96" ry="1.97" class="AD"/><use xlink:href="#AL" x="-7" y="-7" class="s"/><g class="y"><use xlink:href="#AM" x="-7" y="-7"/><use xlink:href="#AN" x="-7" y="-7"/></g><g class="w"><use xlink:href="#AO"/><use xlink:href="#AP"/><path d="M383.14 198.4c-3.9-3.32-9.6-3.95-13.93-1.23A41.97 41.97 0 0 0 354.95 212c-2.55 4.44-1.7 10.1 1.78 13.87 13.92 15.1 29.97 30.14 45.63 42.74 9.9-7.5 18.2-16.14 25.3-26.33-13.2-15.15-28.88-30.6-44.52-43.9z"/><use xlink:href="#AQ"/><use xlink:href="#AA" x="341.89" y="-14.83"/><use xlink:href="#AB" x="341.89" y="-14.83"/><path d="M384.22 253.28l2.3 2.14 2.02-3.6-1.54-1.44-2.8 2.9z"/><use xlink:href="#AC" x="341.89" y="-14.83"/><use xlink:href="#AD" x="341.9" y="-14.83"/><use xlink:href="#AE" x="341.89" y="-14.83"/><path d="M408.85 227.65l1.5 1.5 3.5-2.16-2.23-2.23-2.78 2.9zM392.9 206l-2.4.26 3.3 2.84-.38-1.9z"/><use xlink:href="#AR"/><path d="M364.74 235.32l1.23.48 1.9.3-2.98-3.18z"/><path d="M362.23 236.55L361 238.6a2.56 2.56 0 0 0 .88 3.51l.23.14 3.87-6.45-.23-.14c-1.22-.73-2.8-.34-3.52.88zm59.62 36.4l10.948-11.393 1.053 1.012-10.948 11.393zm-23.47-43.2l-9.77 10.16 5.24 5.04 5.14-2.17 7.63-7.94-2.26-2.18z"/><path d="M388.6 239.92l5.24 5.04.07-2.07-2.26-2.18z"/><path d="M388.6 239.92l3.05.8 7.63-7.94-.9-3zm10.7-7.15l2.27 2.18 2.06-.16-5.24-5.03z"/><path d="M393.92 242.9l-.07 2.07 9.77-10.17-2.06.16z"/><path d="M391.68 240.706l7.636-7.947 2.264 2.176-7.636 7.947zm-25.45-18.026l3.1 2.1 2.27-3.1-2.94-2.3-2.42 3.3zm-4.67 8.22l.52-1.14-3.08-1.53 2.56 2.67z"/><path d="M362.08 229.77l3.35 1.67 1.84-3.4-3.23-1.9-1.96 3.62z"/><use xlink:href="#AI" x="341.89" y="-14.83"/><path d="M383.7 205.67l2.02 3.15 3.32-1.97-1.8-3.28-3.54 2.1zm-22.9 18.58l3.23 1.9 2.2-3.47-3.1-2.1-2.33 3.68z"/><path d="M378.1 205l2.23 3 3.38-2.33-2.02-3.15-3.6 2.47zm-6.83 11.24l2.78 2.5 2.66-2.76-2.6-2.68-2.83 2.94z"/><path d="M377.12 210.55l2.42 2.85 3-2.4-2.23-3-3.2 2.55zm5.14-12.7l-2.58 1.53 2.02 3.15 3.67-2.18-2.22-1.96c-.28-.22-.6-.34-.9-.54z"/><path d="M371.5 210.62l2.6 2.68 3.02-2.75-2.42-2.85-3.2 2.92z"/><path d="M372.28 204.85l2.42 2.85 3.4-2.7-2.23-3-3.6 2.86zm-12.23 13.62l3.1 2.1 2.56-3.5-2.94-2.3-2.7 3.72zm27.2-14.9l1.12-.56-2.77-2.45 1.65 3zm-21.55 7.67l2.78 2.5 3-3.13-2.6-2.68-3.17 3.3z"/><path d="M365.7 217.06l2.94 2.3 2.63-3.13-2.78-2.5-2.8 3.32z"/><use xlink:href="#AJ" x="341.88" y="-14.83"/><use xlink:href="#AS"/><use xlink:href="#AT"/><use xlink:href="#AU"/><use xlink:href="#AV"/><use xlink:href="#AW"/></g><use xlink:href="#AO" x="-7" y="-7" class="v"/><use xlink:href="#AP" x="-7" y="-7" class="AG"/><path d="M376.14 191.4c-3.9-3.32-9.6-3.95-13.93-1.23A41.97 41.97 0 0 0 347.95 205c-2.55 4.44-1.7 10.1 1.78 13.87 13.92 15.1 29.97 30.14 45.63 42.74 9.9-7.5 18.2-16.14 25.3-26.33-13.2-15.15-28.88-30.6-44.52-43.9z" class="u"/><use xlink:href="#AQ" x="-7" y="-7" class="z"/><use xlink:href="#AA" x="334.89" y="-21.83" class="u"/><g class="v"><use xlink:href="#AB" x="334.89" y="-21.83"/><path d="M377.22 246.28l2.3 2.14 2.02-3.6-1.54-1.44-2.8 2.9z"/><use xlink:href="#AC" x="334.89" y="-21.83"/><use xlink:href="#AD" x="334.9" y="-21.83"/><use xlink:href="#AE" x="334.89" y="-21.83"/><path d="M401.85 220.65l1.5 1.5 3.5-2.16-2.23-2.23-2.78 2.9z"/></g><g class="r"><path d="M385.9 199l-2.4.26 3.3 2.84-.38-1.9z"/><use xlink:href="#AR" x="-7" y="-7"/><path d="M357.74 228.32l1.23.48 1.9.3-2.98-3.18z"/><path d="M355.23 229.55L354 231.6a2.56 2.56 0 0 0 .88 3.51l.23.14 3.87-6.45-.23-.14c-1.22-.73-2.8-.34-3.52.88z"/></g><use xlink:href="#AH" x="334.873" y="-21.837" class="t"/><path d="M391.38 222.76l-9.77 10.16 5.24 5.04 5.14-2.17 7.63-7.94-2.26-2.18z" class="x"/><path d="M381.6 232.92l5.24 5.04.07-2.07-2.26-2.18z" class="AB"/><path d="M381.6 232.92l3.05.8 7.63-7.94-.9-3z" class="v"/><path d="M392.3 225.77l2.27 2.18 2.06-.16-5.24-5.03z" class="AB"/><path d="M386.92 235.9l-.07 2.07 9.77-10.17-2.06.16z" class="v"/><path d="M384.678 233.706l7.636-7.947 2.264 2.176-7.636 7.947z" class="x"/><g class="AD"><path d="M359.23 215.68l3.1 2.1 2.27-3.1-2.94-2.3-2.42 3.3zm-4.67 8.22l.52-1.14-3.08-1.53 2.56 2.67z"/><path d="M355.08 222.77l3.35 1.67 1.84-3.4-3.23-1.9-1.96 3.62z"/><use xlink:href="#AI" x="334.89" y="-21.83"/><path d="M376.7 198.67l2.02 3.15 3.32-1.97-1.8-3.28-3.54 2.1zm-22.9 18.58l3.23 1.9 2.2-3.47-3.1-2.1-2.33 3.68z"/><path d="M371.1 198l2.23 3 3.38-2.33-2.02-3.15-3.6 2.47zm-6.83 11.24l2.78 2.5 2.66-2.76-2.6-2.68-2.83 2.94z"/><path d="M370.12 203.55l2.42 2.85 3-2.4-2.23-3-3.2 2.55zm5.14-12.7l-2.58 1.53 2.02 3.15 3.67-2.18-2.22-1.96c-.28-.22-.6-.34-.9-.54z"/><path d="M364.5 203.62l2.6 2.68 3.02-2.75-2.42-2.85-3.2 2.92z"/><path d="M365.28 197.85l2.42 2.85 3.4-2.7-2.23-3-3.6 2.86zm-12.23 13.62l3.1 2.1 2.56-3.5-2.94-2.3-2.7 3.72zm27.2-14.9l1.12-.56-2.77-2.45 1.65 3zm-21.55 7.67l2.78 2.5 3-3.13-2.6-2.68-3.17 3.3z"/><path d="M358.7 210.06l2.94 2.3 2.63-3.13-2.78-2.5-2.8 3.32z"/></g><g class="s"><use xlink:href="#AJ" x="334.88" y="-21.83"/><use xlink:href="#AS" x="-7" y="-7"/></g><use xlink:href="#AT" x="-7" y="-7" class="AD"/><use xlink:href="#AU" x="-7" y="-7" class="s"/><g class="y"><use xlink:href="#AV" x="-7" y="-7"/><use xlink:href="#AW" x="-7" y="-7"/></g><g class="w"><use xlink:href="#AX"/><use xlink:href="#AY"/><use xlink:href="#AZ"/><use xlink:href="#Aa"/><path d="M357.64 307.44l3.4-5.4-1.14-1.1zm1.66 1.6l3.4-5.4-1.14-1.1zm1.67 1.6l3.4-5.4-1.14-1.1zm-22 14.4l5.26-3.6-6.4 2.52zm1.66 1.6l5.26-3.62-6.4 2.53zm1.67 1.6l5.26-3.6-6.4 2.52z"/><use xlink:href="#Ab"/><use xlink:href="#Ac"/><path d="M348.7 291.26l.26.32-.6 1 11.86 6.8.75-1.5-1.65-1.9-10.6-4.7zm-11.4-12.28l1.54 1.44 2.8-2.9-2.3-2.14-2.02 3.6zm-8.73 33.82l-.33-.25 5.13 10.42 1.98 1.58 1.47-.8-7.27-11.58-.98.64zm-21.77-22.57l-7.1-4.2-1.76 2.27 2.17 2.56 7.06 1.44-1-1.27.64-.8z"/><path d="M323.24 261.96l-2.2 1.85 4.5 6.93.76-.68 1.3.96-1.72-7-2.64-2.07zM312 303.83l2.23 2.23 2.8-2.9-1.5-1.5-3.52 2.16zm20.42 19.77l.53 1.2 2.4-.26-3.3-2.84z"/><use xlink:href="#Ad"/><path d="M357.98 294.7l2.97 3.18.17-2.4-1.23-.48z"/><use xlink:href="#Ae"/><use xlink:href="#AH" x="212.085" y="-19.524"/><path d="M326.87 288.02l-7.63 7.94 2.26 2.18 5.98 2.9 9.77-10.17-5.24-5.03z"/><path d="M331.94 287.92l2.26 2.17 3.05.8-5.24-5.03z"/><path d="M326.57 298.04l.9 3 9.77-10.17-3.05-.8z"/><path d="M324.3 295.86l-2.06.16 5.24 5.03-.9-3z"/><path d="M324.3 295.86l7.64-7.94.07-2.07-9.77 10.17zm.024.012l7.636-7.947 2.264 2.176-7.636 7.947z"/><use xlink:href="#Af"/><use xlink:href="#Ag"/><use xlink:href="#Ah"/><use xlink:href="#Ai"/><use xlink:href="#Aj"/><use xlink:href="#Ak"/></g><use xlink:href="#AX" x="-7" y="-7" class="v"/><use xlink:href="#AY" x="-7" y="-7" class="AG"/><use xlink:href="#AZ" x="-7" y="-7" class="u"/><use xlink:href="#Aa" x="-7" y="-7" fill="#ffe95c"/><path d="M350.64 300.44l3.4-5.4-1.14-1.1zm1.66 1.6l3.4-5.4-1.14-1.1zm1.67 1.6l3.4-5.4-1.14-1.1zm-22 14.4l5.26-3.6-6.4 2.52zm1.66 1.6l5.26-3.62-6.4 2.53zm1.67 1.6l5.26-3.6-6.4 2.52z" class="r"/><use xlink:href="#Ab" x="-7" y="-7" class="z"/><use xlink:href="#Ac" x="-7" y="-7" class="u"/><path d="M341.7 284.26l.26.32-.6 1 11.86 6.8.75-1.5-1.65-1.9-10.6-4.7zm-11.4-12.28l1.54 1.44 2.8-2.9-2.3-2.14-2.02 3.6zm-8.73 33.82l-.33-.25 5.13 10.42 1.98 1.58 1.47-.8-7.27-11.58-.98.64zm-21.77-22.57l-7.1-4.2-1.76 2.27 2.17 2.56 7.06 1.44-1-1.27.64-.8zm16.44-28.27l-2.2 1.85 4.5 6.93.76-.68 1.3.96-1.72-7-2.64-2.07zM305 296.83l2.23 2.23 2.8-2.9-1.5-1.5-3.52 2.16z" class="v"/><g class="r"><path d="M325.42 316.6l.53 1.2 2.4-.26-3.3-2.84z"/><use xlink:href="#Ad" x="-7" y="-7"/><path d="M350.98 287.7l2.97 3.18.17-2.4-1.23-.48z"/><use xlink:href="#Ae" x="-7" y="-7"/></g><use xlink:href="#AH" x="205.085" y="-26.523" class="t"/><path d="M319.87 281.02l-7.63 7.94 2.26 2.18 5.98 2.9 9.77-10.17-5.24-5.03z" class="x"/><path d="M324.94 280.92l2.26 2.17 3.05.8-5.24-5.03z" class="AB"/><path d="M319.57 291.04l.9 3 9.77-10.17-3.05-.8z" class="v"/><path d="M317.3 288.86l-2.06.16 5.24 5.03-.9-3z" class="AB"/><path d="M317.3 288.86l7.64-7.94.07-2.07-9.77 10.17z" class="v"/><path d="M317.324 288.872l7.636-7.947 2.264 2.176-7.636 7.947z" class="x"/><g class="s"><use xlink:href="#Af" x="-7" y="-7"/><use xlink:href="#Ag" x="-7" y="-7"/></g><use xlink:href="#Ah" x="-7" y="-7" class="AD"/><use xlink:href="#Ai" x="-7" y="-7" class="s"/><g class="y"><use xlink:href="#Aj" x="-7" y="-7"/><use xlink:href="#Ak" x="-7" y="-7"/></g><g class="w"><use xlink:href="#Al"/><use xlink:href="#Am"/><use xlink:href="#An"/><use xlink:href="#Ao"/><path d="M286.95 368.98c5.78-4.98 10.47-11.02 14.15-18.3-4.45-5.58-9.14-10.94-14.05-16.1l-.1 34.4zm-41.13-18.53l3.83 4.2.17-30.5-3.87 3.9-.13 22.4zm11.1 11.7l2.82 2.8.2-49.84-2.77 2.32-.25 44.73zm10.12 9.47l6.9 5.88c1.97-.97 3.82-2.03 5.6-3.14l.17-47.15A250 250 0 0 0 267.28 316l-.23 55.63z"/><use xlink:href="#Ap"/><path d="M288.62 343.5l.26.34-.66 1.02 12.07 7.34.8-1.53-1.66-2.02-10.82-5.15zm-11.42-12.98l1.56 1.53 2.95-2.92-2.33-2.27-2.18 3.66zm-9.92 34.68l-.34-.27 5.02 10.9 2 1.68 1.54-.8-7.2-12.15-1.02.64zm-21.88-23.87l-7.22-4.54-1.88 2.3 2.17 2.7 7.25 1.67-1-1.34.7-.8zm17.73-28.75l-2.32 1.86 4.45 7.27.8-.68 1.32 1.02-1.6-7.27-2.67-2.2zM250.4 355.5l2.25 2.36 2.95-2.92-1.5-1.57-3.7 2.13zm-13.2-30.7l.95.96 11.6-11.47-.95-.96a135.01 135.01 0 0 0-11.6 11.47z"/><use xlink:href="#Aq"/><use xlink:href="#Ar"/><path d="M270.97 376.45l.5 1.27 2.47-.2-3.32-3.02z"/><use xlink:href="#As"/><path d="M298.12 347.3l3 3.36.23-2.47-1.26-.53z"/><use xlink:href="#At"/><path d="M301.8 360.64l1.28 1.3 2.75-3.58-1.14-1.35zm2.13 2.16l1.13 1.14 2.68-3.3-1.1-1.3zm2.2 2.2l1.57 1.6 2.28-3.3-1.3-1.5zm-25.9 16.17l1.34 1.15 3.6-2.7-1.27-1.3zm2.3 1.98l1.3 1.1 3.34-2.64-1.13-1.15zm2.44 2.07l1.5 1.3 3.34-2.25-1.58-1.58z"/><use xlink:href="#Au"/><path d="M310.86 368.46l2.5 2.66 3.44-6.86-2.05-1.68zM285.7 391.3l1.65 2.07 6.9-3.36-2.64-2.54z"/></g><use xlink:href="#Al" x="-5" y="-5" fill="#d1b592"/><use xlink:href="#Am" x="-5" y="-5" fill="#e6d2b8"/><use xlink:href="#An" x="-5" y="-5" fill="#f5e0c4"/><g class="AH"><use xlink:href="#Ao" x="-5" y="-5"/><path d="M281.95 363.98c5.78-4.98 10.47-11.02 14.15-18.3-4.45-5.58-9.14-10.94-14.05-16.1l-.1 34.4zm-41.13-18.53l3.83 4.2.17-30.5-3.87 3.9-.13 22.4zm11.1 11.7l2.82 2.8.2-49.84-2.77 2.32-.25 44.73zm10.12 9.47l6.9 5.88c1.97-.97 3.82-2.03 5.6-3.14l.17-47.15A250 250 0 0 0 262.28 311l-.23 55.63z"/></g><use xlink:href="#Ap" x="-5" y="-5" fill="#f5e0c4"/><path d="M283.62 338.5l.26.34-.66 1.02 12.07 7.34.8-1.53-1.66-2.02-10.82-5.15zm-11.42-12.98l1.56 1.53 2.95-2.92-2.33-2.27-2.18 3.66zm-9.92 34.68l-.34-.27 5.02 10.9 2 1.68 1.54-.8-7.2-12.15-1.02.64zm-21.88-23.87l-7.22-4.54-1.88 2.3 2.17 2.7 7.25 1.67-1-1.34.7-.8zm17.73-28.75l-2.32 1.86 4.45 7.27.8-.68 1.32 1.02-1.6-7.27-2.67-2.2zM245.4 350.5l2.25 2.36 2.95-2.92-1.5-1.57-3.7 2.13z" class="r"/><path d="M232.2 319.8l.95.96 11.6-11.47-.95-.96c-4.1 3.6-7.96 7.4-11.6 11.47z" class="t"/><g fill="#e84646"><use xlink:href="#Aq" x="-5" y="-5"/><use xlink:href="#Ar" x="-5" y="-5"/></g><path d="M265.97 371.45l.5 1.27 2.47-.2-3.32-3.02z" class="AA"/><use xlink:href="#As" x="-5" y="-5" class="x"/><path d="M293.12 342.3l3 3.36.23-2.47-1.26-.53z" class="AA"/><use xlink:href="#At" x="-5" y="-5" class="x"/><path d="M296.8 355.64l1.28 1.3 2.75-3.58-1.14-1.35zm2.13 2.16l1.13 1.14 2.68-3.3-1.1-1.3zm2.2 2.2l1.57 1.6 2.28-3.3-1.3-1.5zm-25.9 16.17l1.34 1.15 3.6-2.7-1.27-1.3zm2.3 1.98l1.3 1.1 3.34-2.64-1.13-1.15zm2.44 2.07l1.5 1.3 3.34-2.25-1.58-1.58z" class="AA"/><use xlink:href="#Au" x="-5" y="-5" fill="#19334d"/><path d="M305.86 363.46l2.5 2.66 3.44-6.86-2.05-1.68zM280.7 386.3l1.65 2.07 6.9-3.36-2.64-2.54z" class="t"/><g class="w"><path d="M0,405.8V450h44.57C31.1,434.84,15.27,419.15,0,405.8z"/><path d="M0,406.07V450h44.34C31.18,434.85,15.27,419.08,0,406.07z"/><path d="M0,422.55V450h28.18C19.1,440.56,9.28,430.98,0,422.55z"/><path d="M0 409.77V450h32.03l2.82-5.1C24.45 432.02 12.78 420.3 0 409.77z"/><path d="M20.6 428.8l.1 21.2H32l2.82-5.1c-4.5-5.58-9.26-10.95-14.24-16.1zm-20-18.56L.7 450h12.64l-.15-28.56a248.06 248.06 0 0 0-12.6-11.2z"/><path d="M0 415.77V450h13.4c3.45-3.5 6.47-7.44 9.1-11.88-6.4-8.5-13.95-15.98-22.5-22.35z"/><path d="M22.25 437.78l.27.34-.65 1.03 12.2 7.3.8-1.55-1.68-2.02-10.94-5.1zm-11.6-12.98l1.58 1.53 2.95-2.96-2.36-2.27-2.17 3.7z"/><path d="M0 413.1v2.7l.73.56L0 413.1zm31.83 28.44l3.03 3.36.22-2.5-1.27-.52z"/><path d="M38.2 435.4l-.24-.15-4.15 6.63.24.15a2.66 2.66 0 0 0 3.67-.85l1.32-2.1c.78-1.25.4-2.9-.84-3.67zm-26.44 6.04l-3.9-3.9-3.93 1.57L0 443.05v3.8L4.2 449z"/><path d="M7.77 439.1l1.7 1.68 2.3.65-3.9-3.9z"/><path d="M3.56 446.7l.65 2.3 7.55-7.56-2.3-.65zm-1.7-1.68l-1.57.1 3.9 3.9-.65-2.3z"/><path d="M1.87 445.02l5.9-5.9.1-1.57L.3 445.1z"/><path d="M1.854 445.04l5.906-5.917 1.685 1.68-5.906 5.917zm-.324-24.78l1.68-1.685 1.685 1.68-1.68 1.685z"/><path d="M0 422.1v3.07l1.54-1.54zm0-3.37v3.07l1.53-1.54z"/></g><path d="M0 405.24V450h43.94C31 434.97 15.4 419.1 0 405.24z" fill="#ff8000"/><path d="M0 405.4V450h43.6C31.08 435 15.4 419 0 405.4z" fill="#ffb300"/><path d="M0,422.15V450h27.93C19.17,440.66,9.43,430.95,0,422.15z" fill="#ffc400"/><g class="AH"><path d="M0 409v41h23.63c2.33-3.08 4.4-6.43 6.23-10.1C20.82 428.72 10.83 418.4 0 409z"/><path d="M15.6 423.8l.12 26.2h7.9c2.34-3.07 4.42-6.43 6.24-10.1a244.92 244.92 0 0 0-14.25-16.1zM0 409.03V450h8.34l-.15-33.56c-2.67-2.53-5.4-5-8.2-7.4z"/></g><path d="M17.5 433.12c-5.13-6.82-11-12.96-17.5-18.4V450h2.82c5.88-4.64 10.7-10.2 14.7-16.88z" fill="#ffe266"/><path d="M17.25 432.78l.27.34-.65 1.03 12.2 7.3.8-1.55-1.68-2.02-10.94-5.1zM5.66 419.8l1.58 1.53 2.95-2.96-2.36-2.27-2.17 3.7z" class="x"/><path d="M26.83 436.54l3.03 3.36.22-2.5-1.27-.52z" class="AA"/><path d="M33.2 430.4l-.24-.15-4.15 6.63.24.15a2.66 2.66 0 0 0 3.67-.85l1.32-2.1c.78-1.25.4-2.9-.84-3.67zm-30.34 2.14L0 433.68v9.53l6.76-6.77z" class="x"/><path d="M2.77 434.1l1.7 1.68 2.3.65-3.9-3.9z" class="AB"/><path d="M4.46 435.8L0 440.26v2.95l6.76-6.77zm-1.6-3.26L0 435.4v1.48l2.77-2.78z" class="v"/><path d="M2.77 434.1L0 436.9v3.37l4.46-4.47z" class="x"/><path d="M33.5 446.24l-2.88 3.7.07.07h2.15l1.82-2.4zm2 2.33L34.4 450h2.12l.1-.13z" class="AA"/><g class="w"><path d="M56.74 343.3c-2-1.96-5.87-2.58-8.44-1.16-11.4 6.28-20.42 15.5-26.45 27.04-1.37 2.62-.68 6.47 1.33 8.43l54.35 53.17c2.02 1.98 5.54 2.22 7.78.44 2.4-1.9 4.73-3.88 7.02-5.92a154.04 154.04 0 0 0 13.61-13.91 146.52 146.52 0 0 0 5.77-7.15c1.72-2.28 1.4-5.8-.6-7.77L56.74 343.3z"/><use xlink:href="#Av"/><path d="M35.67 389.1l.97.4 1.5.26-2.33-2.55z"/><path d="M33.67 390.06l-1 1.62a2.03 2.03 0 0 0 .67 2.79l.18.1 3.1-5.1-.18-.1c-.95-.57-2.2-.27-2.8.68zm34.86-34.53l-1.9.2 2.6 2.28-.28-1.5z"/><use xlink:href="#Aw"/><use xlink:href="#Ax"/><use xlink:href="#Ay"/><path d="M65.62 354.48c-2.42-2.36-6.7-2.8-9.77-1l-2.27 1.45.55 50.44 15 14.7-.72-62.84-2.8-2.74zm8.5 8.32l.7 62.8 1.25 1.22c.67.65 1.46 1.13 2.3 1.45l-.84-62.14-3.4-3.33zm9.08 8.88l.8 56.38c.57-.26 1.13-.57 1.64-.98l2.58-2.17-.6-48.93-4.42-4.3zm10.08 9.87l.47 38.34 1.6-1.58-.2-34.93-1.87-1.83z"/><path d="M66.56 359c-1.33-1.3-4.12-1.45-6.14-.2-8.9 5.56-16.27 13.1-21.64 22.12-1.2 2.04-1 4.84.33 6.14l38.3 37.48c1.33 1.3 3.9 1.2 5.7-.3 7.9-6.6 15.16-14.02 21.6-22.07 1.45-1.83 1.5-4.4.17-5.7L66.56 359z"/><use xlink:href="#Az"/><use xlink:href="#Az" x="1.208" y="-1.231"/><use xlink:href="#Az" x="2.416" y="-2.461"/><use xlink:href="#Az" x="21.827" y="-22.309"/><use xlink:href="#Az" x="20.614" y="-21.071"/><use xlink:href="#Az" x="19.394" y="-19.827"/><path d="M90.56 423.57l1.77 1.73a154.04 154.04 0 0 0 13.61-13.91l-1.77-1.73-13.6 13.9zm-6.558 5.226l3.546-3.054 1.1 1.265-3.546 3.054zm22.268-22.21l2.976-3.612 1.3 1.062-2.976 3.612z"/><use xlink:href="#BA"/><path d="M36.84 364.424l7.014-7.17.665.65-7.014 7.17zm-1.23-1.206l7.014-7.17.665.65-7.014 7.17z"/><use xlink:href="#BB"/><use xlink:href="#BB" x="-2.1" y="0.02"/><path d="M61.225 387.05l5.804-5.933.85.832-5.804 5.933zm-39.605-17.1s1.5 2.36 3.55.25c2.07-2.1.1-6.87.1-6.87l-3.65 6.62zm27.44-28.06l-6.53 3.8s4.8 1.86 6.86-.25-.33-3.55-.33-3.55zm-11 41.06l-5.74-2.68a8.66 8.66 0 0 0 .67 3.57l5.07 1.07a6.44 6.44 0 0 1 0-1.96zm45-7.8l1.48 1.44 2.36-1.3-2.03-2-1.8 1.84zm-29.26 29.9l2.03 2 1.24-2.4-1.47-1.44-1.8 1.84zm5.8-52.66l2.8 5.68a5.89 5.89 0 0 1 1.96-.04L63.18 353c-1.12-.45-2.35-.65-3.6-.6zm45.73 44.7c.6 1.04.64 2.47.1 3.8l3.42 1.17c.53-1.9.28-3.96-.72-5.63l-2.8.67zM78.03 425l-.6 2.82c1.7.96 3.74 1.16 5.64.6l-1.24-3.4c-1.32.56-2.76.55-3.8-.03z"/></g><path d="M51.74 338.3c-2-1.96-5.87-2.58-8.44-1.16-11.4 6.28-20.42 15.5-26.45 27.04-1.37 2.62-.68 6.47 1.33 8.43l54.35 53.17c2.02 1.98 5.54 2.22 7.78.44 2.4-1.9 4.73-3.88 7.02-5.92a154.04 154.04 0 0 0 13.61-13.91 146.52 146.52 0 0 0 5.77-7.15c1.72-2.28 1.4-5.8-.6-7.77L51.74 338.3z" fill="#e6caac"/><use xlink:href="#Av" x="-5" y="-5" fill="#f5e1b8"/><path d="M30.67 384.1l.97.4 1.5.26-2.33-2.55z" class="AA"/><path d="M28.67 385.06l-1 1.62a2.03 2.03 0 0 0 .67 2.79l.18.1 3.1-5.1-.18-.1c-.95-.57-2.2-.27-2.8.68z" class="t"/><path d="M63.53 350.53l-1.9.2 2.6 2.28-.28-1.5z" class="AA"/><use xlink:href="#Aw" x="-5" y="-5" class="t"/><g class="AH"><use xlink:href="#Ax" x="-5" y="-5"/><use xlink:href="#Ay" x="-5" y="-5"/><path d="M60.62 349.48c-2.42-2.36-6.7-2.8-9.77-1l-2.27 1.45.55 50.44 15 14.7-.72-62.84-2.8-2.74zm8.5 8.32l.7 62.8 1.25 1.22c.67.65 1.46 1.13 2.3 1.45l-.84-62.14-3.4-3.33zm9.08 8.88l.8 56.38c.57-.26 1.13-.57 1.64-.98l2.58-2.17-.6-48.93-4.42-4.3zm10.08 9.87l.47 38.34 1.6-1.58-.2-34.93-1.87-1.83z"/></g><path d="M61.56 354c-1.33-1.3-4.12-1.45-6.14-.2-8.9 5.56-16.27 13.1-21.64 22.12-1.2 2.04-1 4.84.33 6.14l38.3 37.48c1.33 1.3 3.9 1.2 5.7-.3 7.9-6.6 15.16-14.02 21.6-22.07 1.45-1.83 1.5-4.4.17-5.7L61.56 354z" class="t"/><g fill="#2c5a87"><use xlink:href="#Az" x="-5" y="-5"/><use xlink:href="#Az" x="-3.792" y="-6.231"/><use xlink:href="#Az" x="-2.583" y="-7.461"/><use xlink:href="#Az" x="16.827" y="-27.308"/><use xlink:href="#Az" x="15.614" y="-26.071"/><use xlink:href="#Az" x="14.394" y="-24.827"/></g><path d="M85.56 418.57l1.77 1.73a154.04 154.04 0 0 0 13.61-13.91l-1.77-1.73-13.6 13.9z" class="t"/><path d="M79.002 423.796l3.546-3.054 1.1 1.265-3.546 3.054zm22.268-22.21l2.976-3.612 1.3 1.062-2.976 3.612z" fill="#e84646"/><use xlink:href="#BA" x="-5" y="-5" class="t"/><path d="M31.84 359.423l7.014-7.17.665.65-7.014 7.17zm-1.24-1.205l7.014-7.17.665.65-7.014 7.17z" class="AA"/><use xlink:href="#BB" x="-5" y="-5" class="AF"/><use xlink:href="#BB" x="-7.1" y="-4.98" fill="#f5e1b8"/><path d="M56.225 382.05l5.804-5.933.85.832-5.804 5.933z" fill="#19334d"/><path d="M16.62 364.96s1.5 2.36 3.55.25c2.07-2.1.1-6.87.1-6.87l-3.65 6.62zm27.44-28.06l-6.53 3.8s4.8 1.86 6.86-.25-.33-3.55-.33-3.55z" class="t"/><path d="M33.07 377.96l-5.74-2.68a8.66 8.66 0 0 0 .67 3.57l5.07 1.07a6.44 6.44 0 0 1 0-1.96zm45-7.8l1.48 1.44 2.36-1.3-2.03-2-1.8 1.84zm-29.26 29.9l2.03 2 1.24-2.4-1.47-1.44-1.8 1.84zm5.8-52.66l2.8 5.68a5.89 5.89 0 0 1 1.96-.04L58.18 348c-1.12-.45-2.35-.65-3.6-.6zm45.73 44.7c.6 1.04.64 2.47.1 3.8l3.42 1.17c.53-1.9.28-3.96-.72-5.63l-2.8.67zM73.03 420l-.6 2.82c1.7.96 3.74 1.16 5.64.6l-1.24-3.4c-1.32.56-2.76.55-3.8-.03z" fill="#fff2d9"/><defs ><path id="B" d="M284.835 218.198l.785-.756 2.193 2.275-.785.756z"/><path id="C" d="M231.73 163.87c-3.72 2.62-7.27 5.37-10.67 8.28-4.22 3.6-8.2 7.43-11.95 11.5-3.03 3.27-5.9 6.72-8.66 10.35 16.48 20.55 38.05 43.05 57.86 60.42 3.15-1.2 6.1-2.58 8.82-4.15 7.65-4.38 13.7-10.22 18.37-17.7a60.27 60.27 0 0 0 4.47-8.66c-16.62-20.44-38.3-42.82-58.24-60.05z"/><path id="D" d="M234.2 166.43a152.73 152.73 0 0 0-10.59 8.37c-4.2 3.62-8.18 7.45-11.95 11.5a152.28 152.28 0 0 0-8.74 10.26c15 19 34.78 39.65 53.1 55.47 3.08-1.27 5.96-2.72 8.64-4.33 7.52-4.5 13.6-10.35 18.37-17.7 1.7-2.63 3.27-5.45 4.65-8.48-15.13-18.9-35.05-39.4-53.47-55.1z"/><path id="E" d="M235.9 171.84a120.8 120.8 0 0 0-27.62 26.63 422.83 422.83 0 0 0 49.54 51.74c13.42-4.95 22.52-13.72 27.96-26.95-15.14-18.52-31.83-35.73-49.88-51.42z"/><path id="F" d="M235.65 171.58a157.9 157.9 0 0 0-27.62 26.63c11.12 14.56 23.76 27.8 37.8 39.56 12.48-5.93 21.58-14.7 27.96-26.95-11.24-14.47-24-27.6-38.14-39.24z"/><path id="G" d="M238.53 180.2c-8.04 6.45-15.24 13.4-21.98 21.2 6.37 9.02 13.95 16.98 22.65 23.77 9.33-5.34 16.58-12.32 22.25-21.45a112.04 112.04 0 0 0-22.92-23.51z"/><path id="H" d="M242.8 236.64l-6.77 4.07.15.24a2.69 2.69 0 0 0 3.69.92l2.16-1.3a2.69 2.69 0 0 0 .92-3.69l-.15-.24z"/><path id="I" d="M277.34 201.28l-.24-.15-4.32 6.62.24.15c1.24.8 2.9.46 3.72-.78l1.38-2.1c.8-1.25.46-2.92-.78-3.73z"/><path id="J" d="M287.86 225.03c-.77-.42-1.74-.13-2.16.64l-2.13 3.93c-.42.77-.13 1.74.64 2.16s1.74.13 2.16-.64l2.13-3.93c.42-.78.13-1.74-.64-2.16z"/><path id="K" d="M266.37 248.94a1.59 1.59 0 0 0-2.13-.72l-4 2a1.59 1.59 0 0 0 1.41 2.85l4-2c.8-.4 1.1-1.34.72-2.13z"/><path id="L" d="M231.2 166c-.54-.56-1.44-.65-2.1-.15l-1.78 1.35h-.02l-1.75 1.33c-.72.52-.88 1.53-.34 2.23l.14.14c.54.56 1.44.65 2.12.18l3.55-2.7c.7-.54.83-1.53.32-2.25l-.15-.15z"/><path id="M" d="M274.2 239.2c-4.26 4.1-6.55 8.66-5.85 9.38.7.73 4.72-2.02 9-6.13 4.26-4.1 7.16-8.03 6.46-8.76-.7-.72-5.33 1.4-9.6 5.5z"/><path id="N" d="M274.8 239.83c-4.26 4.1-7.16 8.03-6.46 8.76s4.72-2.02 9-6.13c4.26-4.1 7.16-8.03 6.46-8.76-.7-.72-4.72 2.02-9 6.13z"/><path id="O" d="M207.6 187.73c-.68-.57-1.7-.45-2.24.26l-1.4 1.7h-.02l-1.4 1.72c-.52.64-.47 1.53.08 2.1l.14.14c.7.54 1.7.45 2.26-.23l2.83-3.45c.5-.66.44-1.56-.1-2.12l-.15-.14z"/><path id="P" d="M160.18 442.74l-2.16 1.3a2.69 2.69 0 0 0-.92 3.69l.15.24 6.77-4.07-.15-.24c-.76-1.27-2.42-1.7-3.7-.92z"/><path id="Q" d="M140.53 432.27a1.59 1.59 0 0 0-2.13-.72l-4 2a1.59 1.59 0 0 0 1.41 2.85l4-2c.8-.38 1.1-1.34.72-2.13z"/><path id="R" d="M169.914 401.38l.734-.765 2.23 2.14-.734.765z"/><path id="S" d="M198.08 370.4c-12.94 5.36-21.5 14.28-26.3 27.43 15.52 17.52 34.28 35.42 52.53 50.07 10.18-7.72 18.7-16.6 26-27.1-15.4-17.62-34.05-35.62-52.2-50.4z"/><path id="T" d="M212.07 383.8c-11.98 6.28-20.54 15.2-26.3 27.43 11.54 13.7 24.52 26.06 38.8 36.9 9.84-8.05 18.36-16.93 26-27.1-11.43-13.8-24.3-26.27-38.48-37.23z"/><path id="U" d="M219.02 395.87c-1.85 1.1-3.56 2.35-5.22 3.63a6.51 6.51 0 0 0-1.18.96c-.3.23-.57.4-.8.64-3.33 2.74-6.2 5.74-8.8 9.18-.22.23-.4.5-.6.8-.35.36-.65.77-.9 1.22-1.2 1.72-2.38 3.48-3.4 5.37 6.68 8.5 14.5 15.9 23.3 22.1 1.53-1.32 3.02-2.7 4.46-4.1.4-.32.8-.64 1.14-1 .22-.23.48-.4.7-.73a107.57 107.57 0 0 0 8.81-9.18c.3-.23.48-.5.7-.73.35-.36.65-.77.96-1.18a101.46 101.46 0 0 0 3.91-4.62c-6.56-8.55-14.3-16.05-23.06-22.37z"/><path id="V" d="M203.02 410.27l24.68 23.67a107.57 107.57 0 0 0 8.81-9.18l-24.68-23.67a53.91 53.91 0 0 0-8.81 9.18z"/><path id="W" d="M212.07 383.8l-1.5.83 7.48 11.9 1-.67a4.36 4.36 0 0 1 .34.26l-5.28-10.7-2.03-1.62z"/><path id="X" d="M241.06 416.94l1.04 1.3-.66.8 7.3 4.32 1.8-2.34-2.24-2.63-7.26-1.46z"/><path id="Y" d="M221.4 439.8l-1.34-.98 1.77 7.2 2.72 2.12 2.26-1.9-4.62-7.12-.8.7z"/><path id="Z" d="M230.93 405.78l1.55 1.53 3.6-2.22-2.3-2.3-2.86 2.98z"/><path id="a" d="M217.74 379.55l-2.06 1.35c-1.22.8-1.56 2.43-.76 3.65l.15.23 6.47-4.24-.15-.23c-.8-1.22-2.44-1.55-3.65-.76z"/><path id="b" d="M183 414.96l-1.27 2.12c-.75 1.25-.34 2.87.9 3.6l.24.14 3.97-6.64-.24-.14c-1.25-.74-2.87-.33-3.6.9z"/><path id="c" d="M171.66 389.56c-.68.25-2.88 5.38-3.07 6-.4 1.3 1.03 3.27 1.97 2.14 1.3-1.57 2.68-8.7 1.1-8.13z"/><path id="d" d="M187.6 371.44a58.43 58.43 0 0 0-15.21 15.86c-.55.84-.32 1.93.48 2.4.8.48 1.84.2 2.34-.57 3.8-5.84 8.66-10.9 14.34-14.94.76-.54.98-1.6.47-2.37-.5-.77-1.6-.96-2.42-.38z"/><path id="e" d="M179.88 379.27c-.44.46-.57 1.05-.28 1.32.28.27.87.12 1.3-.34s.57-1.05.28-1.32c-.28-.27-.87-.12-1.3.34z"/><path id="f" d="M175.1 389.26s2.85-4.42 6.56-8.28l-1.27-1.22c.45.68-5.3 9.5-5.3 9.5z"/><path id="g" d="M255.6 438.29l6.222-7.854 1.983 1.57-6.222 7.854z"/><path id="h" d="M10.06 356.325l7.588-6.544 1.652 1.916-7.588 6.544z"/><path id="i" d="M92 140.45c-3.54 2.7-6.9 5.53-10.1 8.5-4 3.7-7.73 7.58-11.24 11.72-2.84 3.32-5.52 6.8-8.07 10.45 16.9 19.47 47.25 48.68 67.3 64.9a58.74 58.74 0 0 0 8.47-4.4c7.3-4.58 13.02-10.52 17.28-18.02 1.53-2.68 2.88-5.55 4.04-8.64-17.06-19.34-47.52-48.44-67.66-64.53z"/><path id="j" d="M94.52 142.82c-3.3 2.6-6.44 5.34-9.45 8.12-.22.14-.4.32-.57.5-.17.18-.35.36-.57.5l-.7.73a107.57 107.57 0 0 0-8.81 9.18l-.7.73c-.13.23-.3.4-.48.6-.17.18-.35.36-.48.6-2.65 3.13-5.26 6.4-7.68 9.74 15.4 18.07 43.93 45.54 62.4 60.3 2.96-1.35 5.73-2.88 8.32-4.58 1-.7 2.02-1.38 2.98-2.1.4-.32.83-.6 1.18-.96.3-.14.57-.4.83-.6 3.33-2.74 6.2-5.74 8.8-9.18.17-.27.43-.54.56-.86.35-.36.6-.8.9-1.22.7-1 1.34-2.03 2-3.07 1.6-2.66 3-5.5 4.23-8.5-15.5-17.84-44.12-45.22-62.77-59.9z"/><path id="k" d="M116.48 181.3c-5 3.46-9.02 7.7-12.22 12.9a373.5 373.5 0 0 0 32.75 31.9c6.72-1.94 10.74-6.2 12.37-13.07-9.93-10.88-21.68-22.22-32.9-31.74z"/><path id="l" d="M102.73 154.18c-9.84 8.05-18.36 16.93-26 27.1a241.59 241.59 0 0 0 38.48 37.23c11.98-6.28 20.54-15.2 26.3-27.43-11.54-13.7-24.52-26.06-38.8-36.9z"/><path id="m" d="M105.88 162.54l-4.46 4.1-1.14 1c-.22.23-.48.4-.7.73a107.57 107.57 0 0 0-8.81 9.18c-.3.23-.48.5-.7.73-.35.36-.65.77-.96 1.18a101.46 101.46 0 0 0-3.91 4.62 109.65 109.65 0 0 0 23.05 22.37c1.85-1.1 3.56-2.35 5.22-3.63a6.51 6.51 0 0 0 1.18-.96c.3-.23.57-.4.8-.64 3.33-2.74 6.2-5.74 8.8-9.18.22-.23.4-.5.6-.8.35-.36.65-.77.9-1.22 1.2-1.72 2.38-3.48 3.4-5.37a109.53 109.53 0 0 0-23.3-22.1z"/><path id="n" d="M112.22 217.53l-6.47 4.24.15.23c.8 1.22 2.43 1.56 3.65.76l2.06-1.35c1.22-.8 1.56-2.43.76-3.65l-.15-.23z"/><path id="o" d="M144.64 181.62l-.24-.14-3.97 6.64.24.14c1.25.75 2.87.34 3.6-.9l1.27-2.12a2.64 2.64 0 0 0-.91-3.61z"/><path id="p" d="M154.42 212.6c-.8-.48-1.83-.2-2.34.57-3.8 5.84-8.66 10.9-14.34 14.94-.76.54-.98 1.6-.47 2.37s1.6.96 2.42.38a58.43 58.43 0 0 0 15.21-15.86c.55-.83.32-1.92-.48-2.4z"/><path id="q" d="M342.1 49.6c-3.04 1.28-5.86 2.76-8.47 4.4-7.3 4.58-13.02 10.52-17.28 18.02-1.53 2.68-2.88 5.55-4.04 8.64 17.05 19.34 47.5 48.44 67.65 64.53 3.54-2.7 6.9-5.53 10.1-8.5 4-3.7 7.73-7.58 11.24-11.72 2.84-3.32 5.52-6.8 8.07-10.45-16.9-19.46-47.24-48.67-67.28-64.9z"/><path id="r" d="M344.48 51.83c-2.96 1.35-5.73 2.88-8.32 4.58l-2.98 2.1c-.4.32-.83.6-1.18.96-.3.14-.57.4-.83.6-3.33 2.74-6.2 5.74-8.8 9.18-.17.27-.43.54-.56.86-.35.36-.6.8-.9 1.22-.7 1-1.34 2.03-1.98 3.07-1.6 2.66-3 5.5-4.23 8.5 15.5 17.85 44.14 45.22 62.8 59.9 3.3-2.6 6.44-5.34 9.45-8.12.22-.14.4-.32.57-.5.17-.18.35-.36.57-.5l.7-.73a107.57 107.57 0 0 0 8.81-9.18l.7-.73c.13-.23.3-.4.48-.6.17-.18.35-.36.48-.6 2.65-3.13 5.26-6.4 7.68-9.74-15.42-18.08-43.97-45.55-62.44-60.3z"/><path id="s" d="M342.77 53.7c-12.94 5.36-21.5 14.28-26.3 27.43 15.52 17.52 34.28 35.42 52.53 50.07 10.18-7.72 18.7-16.6 26-27.1-15.4-17.63-34.06-35.63-52.2-50.4z"/><path id="t" d="M334.96 59.5c-6.72 1.94-10.74 6.2-12.37 13.07 9.93 10.88 21.7 22.22 32.9 31.74 5-3.46 9.02-7.7 12.22-12.9-9.88-10.93-21.58-22.33-32.75-31.9z"/><path id="u" d="M362.43 62.86l-2.06 1.35c-1.22.8-1.56 2.43-.76 3.65l.15.23 6.47-4.24-.15-.23c-.8-1.22-2.44-1.56-3.65-.76z"/><path id="v" d="M327.7 98.27l-1.27 2.12c-.75 1.25-.34 2.87.9 3.6l.24.14 3.97-6.64-.24-.14a2.64 2.64 0 0 0-3.61.91z"/><path id="w" d="M332.3 54.75a58.43 58.43 0 0 0-15.21 15.86c-.55.84-.32 1.93.48 2.4.8.48 1.83.2 2.34-.57 3.8-5.84 8.66-10.9 14.34-14.94.76-.54.98-1.6.47-2.37s-1.6-.96-2.42-.38z"/><path id="x" d="M43.17 211.56c-4-3.4-9.8-3.97-14.2-1.13-.12.08-.24.15-.36.23-.98.67-1.97 1.34-2.9 2.05-.38.3-.8.58-1.15.93-.3.14-.55.4-.8.58-3.24 2.66-6.04 5.58-8.57 8.92-.17.26-.42.53-.55.83-.34.35-.6.8-.9 1.2-.67.97-1.3 1.98-1.93 2.98-.07.12-.15.24-.22.37-2.67 4.52-1.86 10.3 1.7 14.15 13.23 14.37 32.18 32.56 47.43 45.5 4.63 3.93 11.52 3.82 16.02-.25l1.18-1.08c.2-.13.38-.3.55-.5s.34-.35.55-.5l.68-.7c3.02-2.8 5.9-5.8 8.57-8.92l.68-.7c.13-.22.3-.4.47-.57.17-.18.34-.35.47-.57l1-1.2c3.9-4.65 3.72-11.52-.37-16-13.52-14.73-32.45-32.94-47.34-45.6z"/><path id="y" d="M41.25 213.2c-3.9-3.32-9.6-3.95-13.93-1.23a41.97 41.97 0 0 0-14.26 14.84c-2.55 4.44-1.7 10.1 1.78 13.87 13.92 15.1 29.97 30.14 45.63 42.74 9.9-7.5 18.2-16.14 25.3-26.33-13.2-15.15-28.88-30.58-44.52-43.9z"/><path id="z" d="M48.63 221.1c-11.65 6.1-20 14.77-25.6 26.66a235.28 235.28 0 0 0 37.71 35.92 150.53 150.53 0 0 0 25.3-26.33 234.89 234.89 0 0 0-37.4-36.25z"/><path id="AA" d="M55.38 232.83c-1.8 1.08-3.46 2.28-5.08 3.52a6.16 6.16 0 0 0-1.15.93l-.77.62c-3.24 2.66-6.04 5.58-8.57 8.92-.2.22-.38.48-.6.8a6.26 6.26 0 0 0-.89 1.19c-1.18 1.67-2.32 3.38-3.32 5.22 6.5 8.27 14.08 15.5 22.65 21.5 1.5-1.3 2.94-2.6 4.34-4 .38-.3.77-.62 1.1-.98.2-.22.47-.4.68-.7 3.02-2.8 5.9-5.8 8.57-8.92.3-.22.47-.5.68-.7.34-.35.63-.75.93-1.15a102.53 102.53 0 0 0 3.81-4.49c-6.36-8.3-13.87-15.6-22.4-21.75z"/><path id="AB" d="M23.76 246.25l-.75 1.5 1.65 1.9 10.6 4.7-.26-.32.6-1-11.86-6.8z"/><path id="AC" d="M48.63 221.1l-1.47.8 7.27 11.58.97-.65.33.25-5.13-10.42-1.97-1.57z"/><path id="AD" d="M76.8 253.35l1 1.27-.64.8 7.1 4.2 1.76-2.27-2.17-2.56-7.06-1.44z"/><path id="AE" d="M57.67 275.57l-1.3-.96 1.72 7 2.64 2.07 2.2-1.85-4.5-6.93-.76.68z"/><path id="AF" d="M54.15 216.96l-2 1.3c-1.18.77-1.5 2.36-.74 3.55l.15.23 6.3-4.12-.15-.23c-.77-1.18-2.36-1.5-3.54-.74z"/><path id="AG" d="M20.34 251.38l-1.23 2.06a2.56 2.56 0 0 0 .88 3.51l.23.14 3.87-6.45-.23-.14c-1.22-.73-2.8-.34-3.52.88z"/><path id="AH" d="M79.935 287.76l10.946-11.393 1.053 1.01-10.946 11.393z"/><path id="AI" d="M14.26 239.83c.2.28.34.6.58.86l2.05 2.14 2.03-3.75-3.23-1.9-1.43 2.64z"/><path id="AJ" d="M11.12 223.58c-.9.34-3.57 5.38-3.4 6.6.14.95 1.26 2.3 1.97 1.9.7-.4 3.52-6.6 3.4-7.16-.1-.56-1.08-1.68-2-1.34z"/><path id="AK" d="M30.46 206.53c-1.23-.14-6.17 2.72-6.47 3.65-.3.92.85 1.85 1.42 1.94s6.64-2.96 7.02-3.7c.37-.73-1.02-1.8-1.97-1.9z"/><path id="AL" d="M18.85 218.13c-.53.55-.64 1.3-.25 1.68s1.14.23 1.66-.32c.53-.55.64-1.3.25-1.68-.38-.37-1.13-.23-1.66.32z"/><path id="AM" d="M78.62 287.08c-.42-.12-5.85 3.67-6.23 4.06s.56 2.15 1.1 2.04 6.14-3.05 6.55-4c.42-.93-.36-1.8-1.4-2.1z"/><path id="AN" d="M93.87 268.8c-.38.4-3.95 5.97-3.8 6.38.35 1.04 1.26 1.78 2.17 1.33.92-.45 3.63-6.17 3.72-6.7.1-.53-1.7-1.4-2.08-1z"/><path id="AO" d="M382.58 194.45c-3.92-3.35-9.6-3.98-14-1.3-.17.1-.35.2-.52.32-7.1 4.44-12.67 10.23-16.82 17.5l-.3.53c-2.5 4.5-1.65 10.16 1.85 13.94 14.6 15.8 35.52 35.86 52.26 50.12 4.66 3.97 11.56 4 16.12-.08l1.72-1.57c3.9-3.58 7.53-7.37 10.94-11.4l1.5-1.77c3.9-4.72 3.58-11.62-.57-16.1-14.92-16.16-35.8-36.25-52.17-50.2z"/><path id="AP" d="M385.06 196.73c-4-3.4-9.8-3.97-14.2-1.13-.12.08-.24.15-.36.23-.98.67-1.97 1.34-2.9 2.05-.38.3-.8.58-1.15.93-.3.14-.55.4-.8.58-3.24 2.66-6.04 5.58-8.57 8.92-.17.26-.42.53-.55.83-.34.35-.6.8-.9 1.2-.67.97-1.3 1.98-1.93 2.98-.07.12-.15.24-.22.37-2.67 4.52-1.86 10.3 1.7 14.15 13.23 14.37 32.18 32.56 47.43 45.5 4.63 3.93 11.52 3.82 16.02-.25l1.18-1.08c.2-.13.38-.3.55-.5s.34-.35.55-.5l.68-.7c3.02-2.8 5.9-5.8 8.57-8.92l.68-.7c.13-.22.3-.4.46-.57.17-.18.34-.35.47-.57l1-1.2c3.9-4.65 3.72-11.52-.37-16-13.5-14.73-32.44-32.94-47.33-45.6z"/><path id="AQ" d="M390.52 206.27c-11.65 6.1-20 14.77-25.6 26.66a235.28 235.28 0 0 0 37.71 35.92 150.53 150.53 0 0 0 25.3-26.33c-11.1-13.45-23.62-25.58-37.4-36.25z"/><path id="AR" d="M396.04 202.13l-2 1.3c-1.18.78-1.5 2.36-.74 3.55l.15.23 6.3-4.12-.15-.23c-.77-1.18-2.36-1.5-3.54-.74z"/><path id="AS" d="M372.35 191.7c-1.23-.14-6.17 2.72-6.47 3.65-.3.92.85 1.85 1.42 1.94s6.64-2.96 7.02-3.7-1.02-1.8-1.97-1.9z"/><path id="AT" d="M358.6 201.24c-3.05 3.17-4.88 6.35-4.1 7.1s3.9-1.2 6.94-4.37 4.88-6.35 4.1-7.1-3.9 1.2-6.94 4.37z"/><path id="AU" d="M360.75 203.3c-.53.55-.64 1.3-.25 1.68s1.14.23 1.66-.32c.53-.55.64-1.3.25-1.68-.4-.37-1.14-.23-1.66.32z"/><path id="AV" d="M420.5 272.25c-.42-.12-5.85 3.67-6.23 4.06s.56 2.15 1.1 2.04 6.14-3.05 6.55-4c.42-.92-.36-1.8-1.4-2.1z"/><path id="AW" d="M435.76 253.96c-.38.4-3.95 5.97-3.8 6.38.35 1.04 1.26 1.78 2.17 1.33.92-.45 3.63-6.17 3.72-6.7.1-.52-1.7-1.4-2.08-1z"/><path id="AX" d="M320.82 255.22c-4.66-3.97-11.56-4-16.12.08l-1.72 1.57c-3.9 3.58-7.53 7.37-10.94 11.4l-1.5 1.77c-3.9 4.72-3.58 11.62.57 16.1 14.92 16.16 35.8 36.26 52.17 50.22 3.92 3.35 9.6 3.98 14 1.3.17-.1.35-.2.52-.32 7.1-4.44 12.67-10.23 16.82-17.5l.3-.53c2.5-4.5 1.65-10.16-1.85-13.94-14.6-15.8-35.52-35.86-52.26-50.13z"/><path id="AY" d="M323.27 257.47c-4.63-3.93-11.52-3.82-16.02.25l-1.18 1.08c-.2.13-.38.3-.55.5s-.34.35-.55.5l-.68.7c-3.02 2.8-5.9 5.8-8.57 8.92l-.68.7c-.13.22-.3.4-.46.57-.17.18-.34.35-.47.57l-1 1.2c-3.9 4.65-3.72 11.52.37 16 13.5 14.75 32.44 32.97 47.34 45.62 4 3.4 9.8 3.97 14.2 1.13.12-.08.24-.15.36-.23.98-.67 1.97-1.34 2.9-2.05.38-.3.8-.58 1.15-.93.3-.14.55-.4.8-.58 3.24-2.66 6.04-5.58 8.57-8.92.17-.26.42-.53.55-.83.34-.35.6-.8.9-1.2.67-.97 1.3-1.98 1.93-2.98.07-.12.15-.24.22-.37 2.67-4.52 1.86-10.3-1.7-14.15-13.25-14.4-32.2-32.57-47.44-45.5z"/><path id="AZ" d="M323.5 262.2c-9.9 7.5-18.2 16.14-25.3 26.33 13.2 15.15 28.9 30.58 44.53 43.9 3.9 3.32 9.6 3.95 13.93 1.23a41.97 41.97 0 0 0 14.26-14.84c2.55-4.44 1.7-10.1-1.78-13.87-13.93-15.1-29.97-30.14-45.64-42.74z"/><path id="Aa" d="M334.36 286.46c-5 3.46-9.02 7.7-12.22 12.9 9.88 10.93 21.58 22.33 32.75 31.9 6.72-1.94 10.74-6.2 12.37-13.07-9.93-10.9-21.7-22.23-32.9-31.74z"/><path id="Ab" d="M323.24 261.96a150.53 150.53 0 0 0-25.3 26.33 235.34 235.34 0 0 0 37.4 36.25c11.65-6.1 20-14.77 25.6-26.66a235.28 235.28 0 0 0-37.71-35.92z"/><path id="Ac" d="M326.3 270.1l-4.34 4-1.1.98c-.2.22-.47.4-.68.7-3.02 2.8-5.9 5.8-8.57 8.92-.3.22-.47.5-.68.7-.34.35-.63.75-.93 1.15a102.53 102.53 0 0 0-3.81 4.49c6.36 8.32 13.87 15.62 22.4 21.78 1.8-1.08 3.46-2.28 5.08-3.52a6.16 6.16 0 0 0 1.15-.93c.3-.22.55-.4.77-.62 3.24-2.66 6.04-5.58 8.57-8.92.2-.22.38-.48.6-.8.34-.35.64-.75.9-1.2 1.18-1.67 2.32-3.38 3.32-5.22a106.11 106.11 0 0 0-22.65-21.54z"/><path id="Ad" d="M332.42 323.6l-6.3 4.12.15.23c.78 1.18 2.36 1.5 3.55.74l2-1.3c1.18-.78 1.5-2.36.74-3.55l-.16-.23z"/><path id="Ae" d="M363.98 288.7l-.23-.14-3.87 6.45.23.14a2.56 2.56 0 0 0 3.51-.88l1.23-2.06a2.54 2.54 0 0 0-.87-3.51z"/><path id="Af" d="M374.26 313.56c-.7.4-3.52 6.6-3.4 7.16.1.56 1.08 1.68 2 1.34.9-.34 3.57-5.38 3.4-6.6-.15-.95-1.27-2.3-1.98-1.9z"/><path id="Ag" d="M358.55 333.52c-.57-.1-6.64 2.96-7.02 3.7-.37.73 1.02 1.8 1.97 1.9 1.23.14 6.17-2.72 6.47-3.65.3-.92-.85-1.85-1.42-1.93z"/><path id="Ah" d="M364.4 326.83c-3.05 3.17-4.88 6.35-4.1 7.1s3.9-1.2 6.94-4.37 4.88-6.35 4.1-7.1c-.78-.76-3.9 1.2-6.94 4.37z"/><path id="Ai" d="M363.7 326.15c-.53.55-.64 1.3-.25 1.68s1.14.23 1.67-.32.64-1.3.25-1.68c-.4-.37-1.15-.23-1.67.32z"/><path id="Aj" d="M310.48 252.45c-.53.1-6.14 3.05-6.55 4-.4.93.37 1.8 1.42 2.12.42.12 5.85-3.67 6.23-4.06.37-.4-.57-2.16-1.1-2.05z"/><path id="Ak" d="M291.73 269.13c-.92.45-3.63 6.17-3.72 6.7-.1.53 1.7 1.4 2.1 1s3.95-5.97 3.8-6.38c-.35-1.04-1.26-1.78-2.18-1.34z"/><path id="Al" d="M259.18 305.05c-3.63 2.62-7.08 5.37-10.38 8.27-4.1 3.6-7.96 7.4-11.6 11.47-2.94 3.26-5.72 6.68-8.38 10.28 16.46 20 37.94 41.84 57.63 58.67 3.08-1.2 5.95-2.6 8.62-4.2 7.46-4.4 13.35-10.22 17.83-17.63a60.12 60.12 0 0 0 4.29-8.57c-16.6-19.88-38.2-41.6-58-58.3z"/><path id="Am" d="M261.64 307.54c-3.6 2.66-7.02 5.43-10.3 8.36-4.1 3.62-7.95 7.43-11.6 11.47a144.82 144.82 0 0 0-8.46 10.2c14.97 18.5 34.68 38.54 52.88 53.86 3-1.28 5.82-2.75 8.44-4.37 7.34-4.52 13.23-10.35 17.83-17.63a62.35 62.35 0 0 0 4.46-8.39c-15.1-18.38-34.94-38.3-53.25-53.5z"/><path id="An" d="M262.94 324.88c-1.84 1.1-3.56 2.3-5.17 3.64-2 1.64-3.82 3.44-5.48 5.42-1.34 1.6-2.57 3.3-3.7 5.12 12.6 14.34 28.5 30.47 42.65 43.32 1.7-.32 3.25-.8 4.65-1.4 3.92-1.68 6.7-4.43 8.42-8.33.62-1.4 1.1-2.93 1.45-4.63-12.7-14.3-28.64-30.37-42.83-43.15z"/><path id="Ao" d="M263.13 312.58c-10.1 7.82-18.9 16.52-26.82 26.52 11.1 14.18 23.7 27.03 37.65 38.4 12.2-5.98 21.03-14.72 27.15-26.84-11.23-14.08-23.94-26.82-37.98-38.1z"/><path id="Ap" d="M266.06 321.03c-7.82 6.44-14.82 13.36-21.34 21.1 6.38 8.8 13.92 16.5 22.56 23.08 9.1-5.36 16.14-12.3 21.6-21.36-6.48-8.7-14.1-16.34-22.83-22.82z"/><path id="Aq" d="M257.56 307.98c-.27-.32-.95-.2-1.5.27l-3.5 2.93c-.56.47-.8 1.1-.52 1.44l.04.05c.27.32.95.2 1.5-.27l3.5-2.93c.56-.47.8-1.1.52-1.44l-.04-.05z"/><path id="Ar" d="M236.46 328.02c-.32-.28-.97-.05-1.44.5l-2.97 3.46c-.48.55-.6 1.23-.28 1.5l.05.04c.32.28.97.05 1.44-.5l2.97-3.46c.48-.55.6-1.23.28-1.5l-.05-.04z"/><path id="As" d="M270.97 376.45l-6.6 4.1.15.24c.77 1.24 2.4 1.63 3.64.86l2.1-1.3c1.24-.77 1.63-2.4.86-3.64l-.15-.25z"/><path id="At" d="M304.48 341.26l-.23-.15-4.16 6.56.23.15c1.23.78 2.87.42 3.65-.82l1.33-2.1a2.65 2.65 0 0 0-.82-3.65z"/><path id="Au" d="M312.38 371.44c-.87-.5-1.97-.2-2.52.67a45.51 45.51 0 0 1-14.56 14.4c-.13.07-.24.17-.35.27-.6.6-.77 1.5-.35 2.24.12.22.28.4.46.53 7.46-4.4 13.35-10.22 17.83-17.63-.04-.08-.1-.14-.16-.2-.1-.1-.22-.2-.35-.28z"/><path id="Av" d="M58.32 344.85c-1.9-1.84-5.6-2.32-8.15-.88a68.83 68.83 0 0 0-26.45 27.04c-1.4 2.58-.85 6.3 1.04 8.15l51.08 49.97c1.9 1.86 5.3 1.98 7.53.2a163.86 163.86 0 0 0 6.98-5.96c4.8-4.37 9.35-9 13.6-13.9 2-2.33 3.94-4.68 5.8-7.1 1.74-2.26 1.54-5.66-.36-7.52l-51.08-49.98z"/><path id="Aw" d="M71.04 352.48l-1.6 1.03c-.94.6-1.22 1.86-.6 2.8l.12.18 5.02-3.22-.12-.18a2.03 2.03 0 0 0-2.81-.62z"/><path id="Ax" d="M65.62 354.48c-2.42-2.36-6.7-2.8-9.77-1a62.22 62.22 0 0 0-12.77 10.02c-3.78 3.86-7.05 8.23-9.74 13-1.73 3.1-1.2 7.37 1.22 9.74l41.5 40.6c2.5 2.46 6.7 2.57 9.56.26a145.55 145.55 0 0 0 11.6-10.61c3.66-3.74 7.14-7.72 10.36-11.84 2.25-2.9 2.05-7.1-.47-9.55l-41.5-40.6z"/><path id="Ay" d="M43.08 363.5c-3.78 3.86-7.05 8.23-9.74 13-1.73 3.1-1.2 7.37 1.22 9.74l13.88 13.58-.45-40.78c-1.7 1.4-3.36 2.9-4.9 4.47z"/><path id="Az" d="M76.216 418.414l.678-.693 2.738 2.678-.678.693z"/><path id="BA" d="M39.12 349.87l-9.75 9.97c-2 2.06-2.65 4.8-1.47 6.3l5.82 7.4a100.66 100.66 0 0 1 19.18-19.61l-7.5-5.65c-1.54-1.15-4.26-.45-6.27 1.6z"/><path id="BB" d="M72.5 376.6c-1.02-1-2.65-.98-3.64.04l-10 10.22c-1 1.02-.98 2.65.04 3.64l5.2 5.1c1.02 1 2.65.98 3.64-.04l10-10.22c1-1.02.98-2.65-.04-3.64l-5.2-5.1z"/></defs></svg>