<svg xmlns="http://www.w3.org/2000/svg" xmlns:xlink="http://www.w3.org/1999/xlink" viewBox="0 0 600 450"><style><![CDATA[.t{opacity:.5}.u{fill:#242993}.v{fill:#4553c7}.w{fill:#42ffff}.x{fill:#91afff}]]></style><linearGradient id="A" gradientUnits="userSpaceOnUse" x1="555.212" y1="20.349" x2="-140.181" y2="577.976"><stop offset="0" stop-color="#4482cc"/><stop offset=".037" stop-color="#447ecc"/><stop offset=".468" stop-color="#4553c7"/><stop offset=".596" stop-color="#3b44bc"/><stop offset=".844" stop-color="#2b2dab"/><stop offset="1" stop-color="#2525a5"/></linearGradient><path d="M0 0h600v450H0z" fill="url(#A)"/><defs><filter id="B" filterUnits="userSpaceOnUse" x="0" y="0" width="600" height="450"><feFlood flood-color="#fff" flood-opacity="1"/><feBlend in="SourceGraphic"/></filter><path id="C" d="M596.2.37L565.3 18.2 534.4.37l.63-.37h-1l-.14.08-.14-.08h-1l.64.37-30.9 17.84L471.58.37l.62-.37h-1l-.13.08-.14-.08h-1l.63.37-30.9 17.84L408.75.37l.64-.37h-1l-.13.08-.14-.08h-1l.63.37-30.9 17.84L345.95.37l.62-.37h-1l-.13.08-.14-.08h-1l.63.37-30.9 17.84L283.13.37l.62-.37h-1l-.13.08-.13-.08h-1l.63.37-30.9 17.84L220.32.37l.62-.37h-1l-.13.08-.13-.08h-1l.63.36-30.9 17.84L157.5.36l.6-.36h-1l-.13.08-.13-.08h-1l.63.36-30.9 17.84L94.68.36 95.3 0h-1l-.13.07-.13-.07h-1l.63.36-30.9 17.85L31.86.36 32.5 0h-1l-.13.07-.13-.07h-1l.63.36L0 18.18v.63l30.86 17.82L0 54.45v.63L30.86 72.9 0 90.7v.63l30.86 17.82L0 126.98v.63l30.86 17.82L0 163.25v.63l30.86 17.82L0 199.5v.63l30.86 17.82L0 235.78v.62l30.86 17.82L0 272.05v.62l30.86 17.82L0 308.3v.62l15.42 8.9 15.45 8.92L0 344.58v.62l15.42 8.9 15.45 8.92L0 380.85v.62l15.42 8.9 15.45 8.92L0 417.1v.62l15.42 8.9 15.45 8.92L5.85 450h1l24.5-14.15L55.87 450h1l-25-14.44 30.9-17.84 30.9 17.84-25 14.44h1l24.5-14.15L118.7 450h1l-25-14.44 30.9-17.84 30.9 17.84-25 14.44h1l24.5-14.15L181.5 450h1l-25-14.44 30.9-17.84 30.9 17.84-15.45 8.92-9.53 5.52h1l24.5-14.15 24.5 14.15h1l-25-14.44 30.9-17.84 30.9 17.84-25 14.44h1l24.5-14.15 24.5 14.15h1l-25-14.44 30.9-17.84 30.9 17.84-25 14.44h1l24.5-14.15 24.5 14.15h1l-25-14.44 30.9-17.84 30.9 17.84-25 14.44h1l24.5-14.15 24.5 14.15h1l-25-14.44 30.9-17.84 30.9 17.84-25 14.44h1l24.5-14.15L495.5 450h1l-25-14.44 30.9-17.84 30.9 17.84-25 14.44h1l24.5-14.15L558.3 450h1l-25-14.44 30.9-17.84 30.9 17.84-15.45 8.92-9.44 5.52h1l24.5-14.15 3.3 1.9v-.58l-2.8-1.6 2.8-1.6v-.58l-3.3 1.9-30.9-17.84 30.9-17.84 3.3 1.9v-.58l-2.8-1.6 2.8-1.6v-.58l-3.3 1.9-30.9-17.84 30.9-17.84 3.3 1.9v-.58l-2.8-1.6 2.8-1.6v-.58l-3.3 1.9-30.9-17.84 30.9-17.84 3.3 1.9v-.58l-2.8-1.6 2.8-1.6v-.58l-3.3 1.9-30.9-17.84 30.9-17.84 3.3 1.9v-.58l-2.8-1.6 2.8-1.6v-.58l-3.3 1.9-30.9-17.84 30.9-17.84 3.3 1.9v-.58l-2.8-1.62 2.8-1.62v-.58l-3.3 1.9-30.9-17.84 30.9-17.84 3.3 1.9v-.58l-2.8-1.62 2.8-1.62v-.58l-3.3 1.9-30.9-17.84L596.7 182l3.3 1.9v-.58l-2.8-1.62 2.8-1.62v-.58l-3.3 1.9-30.9-17.84 30.9-17.84 3.3 1.9v-.58l-2.8-1.62 2.8-1.62v-.58l-3.3 1.9-30.9-17.84 30.9-17.84 3.3 1.9v-.58l-2.8-1.62 2.8-1.62V107l-3.3 1.9-30.9-17.84 30.9-17.84 3.3 1.9v-.58l-2.8-1.62 2.8-1.62v-.6l-3.3 1.9-30.9-17.84 30.9-17.84 3.3 1.9v-.58l-2.8-1.62 2.8-1.62v-.58l-3.3 1.9-30.9-17.84L596.7.67l3.3 1.9V2L597.2.37l.63-.37h-1l-.14.08-.13-.08h-1l.63.37zm-77.76 9.2L533.88.66l30.9 17.84-30.9 17.84-30.9-17.84 15.45-8.92zM203.86 209.04l15.45 8.92-30.9 17.84-30.9-17.84 30.9-17.84 15.45 8.92zm-14.96-9.2L219.8 182l30.9 17.84-30.9 17.84-30.9-17.84zm15.46 27.34l15.45-8.92 30.9 17.84-30.9 17.84-30.9-17.84 15.45-8.92zm31.4-.3l-15.45-8.92 30.9-17.84 30.9 17.84-30.9 17.84-15.45-8.92zm15.95-27.05l30.9-17.84 30.9 17.84-30.9 17.84-30.9-17.84zm15.45 27.34l15.45-8.92 30.9 17.84-30.9 17.84-30.9-17.84 15.45-8.92zm31.4-.3l-15.45-8.92 30.9-17.84 30.9 17.84-30.9 17.84-15.45-8.92zm15.95-27.05l30.9-17.84 30.9 17.84-30.9 17.84-30.9-17.84zM330 227.17l15.45-8.92 30.9 17.84-30.9 17.84-30.9-17.84 15.45-8.92zm31.4-.3l-15.45-8.92 30.9-17.84 30.9 17.84-30.9 17.84-15.45-8.92zm31.4.3l15.45-8.92 30.9 17.84-30.9 17.84-30.9-17.84 15.45-8.92zm0-18.42l-15.45-8.92 30.9-17.84 30.9 17.84-30.9 17.84-15.45-8.92zm0-36.26l-15.45-8.92 30.9-17.84 30.9 17.84-30.9 17.84-15.45-8.92zm-.5.28l15.45 8.92-30.9 17.84-30.9-17.84 30.9-17.84 15.45 8.92zm-31.4-.28l-15.45 8.92-30.9-17.84 30.9-17.84 30.9 17.84-15.45 8.92zm-31.4.28l15.45 8.92-30.9 17.84-30.9-17.84 30.9-17.84 15.45 8.92zm-31.4-.28l-15.45 8.92-30.9-17.84 30.9-17.84 30.9 17.84-15.45 8.92zm-31.4.28l15.45 8.92-30.9 17.84-30.9-17.84 30.9-17.84 15.45 8.92zm-31.4-.3l-15.45 8.92-30.9-17.84 30.9-17.84 30.9 17.84-15.45 8.92zm-31.4.3l15.45 8.92-30.9 17.84-30.9-17.84 30.9-17.84 15.45 8.92zm-31.4-.3L157 181.4l-30.9-17.84 30.9-17.84 30.9 17.84-15.45 8.9zm0 18.43l15.45 8.92-30.9 17.84-30.9-17.84L157 182l15.45 8.92zm0 36.26l15.45 8.92-30.9 17.85-30.9-17.84 30.9-17.84 15.45 8.9zm0 36.27l15.45 8.92L157 290.2l-30.9-17.84 30.9-17.84 15.45 8.92zm.5-.3l-15.45-8.92 30.9-17.84 30.9 17.84-30.9 17.84-15.45-8.92zm31.4.3l15.45-8.92 30.9 17.84-30.9 17.84-30.9-17.84 15.45-8.92zm31.4-.3l-15.45-8.92 30.9-17.84 30.9 17.84-30.9 17.84-15.45-8.92zm31.4.3l15.45-8.92 30.9 17.84-30.9 17.84-30.9-17.84 15.45-8.92zm31.4-.3l-15.45-8.92 30.9-17.84 30.9 17.84-30.9 17.84-15.45-8.92zm31.4.3l15.45-8.92 30.9 17.84-30.9 17.84-30.9-17.84 15.45-8.92zm31.4-.3l-15.45-8.92 30.9-17.84 30.9 17.84-30.9 17.84-15.45-8.92zm31.4.3l15.45-8.92 30.9 17.84-30.9 17.84-30.9-17.84 15.45-8.92zm31.4-.3l-15.45-8.92 30.9-17.84 30.9 17.84-30.9 17.84-15.45-8.92zm0-36.26l-15.45-8.92 30.9-17.84 30.9 17.84-30.9 17.84-15.45-8.92zm0-36.27l-15.45-8.92 30.9-17.84 30.9 17.84-30.9 17.84-15.45-8.92zm0-36.27l-15.45-8.92 30.9-17.84 30.9 17.84-30.9 17.84-15.45-8.92zm-.5-18.13l-15.45 8.92-30.9-17.84 30.9-17.84 30.9 17.84-15.45 8.92zm-31.4.3l15.45 8.92-30.9 17.84-30.9-17.84 30.9-17.84 15.45 8.92zm-31.4-.3l-15.45 8.92-30.9-17.84 30.9-17.84 30.9 17.84-15.45 8.92zm-31.4.3l15.45 8.92-30.9 17.84-30.9-17.84 30.9-17.84 15.45 8.92zm-31.4-.3l-15.45 8.92-30.9-17.84 30.9-17.84 30.9 17.84-15.45 8.92zm-31.4.3l15.45 8.92-30.9 17.84-30.9-17.84 30.9-17.84 15.45 8.92zm-31.4-.3l-15.45 8.92-30.9-17.84 30.9-17.84 30.9 17.84-15.45 8.92zm-31.4.3l15.45 8.92-30.9 17.84-30.9-17.84 30.9-17.84 15.45 8.92zm-31.4-.3L157 145.14l-30.9-17.84 30.9-17.84 30.9 17.84-15.45 8.92zm-31.4.3l15.45 8.92-30.9 17.84-30.9-17.84 30.9-17.84 15.45 8.92zm0 36.26l15.45 8.92-30.9 17.84-30.9-17.84 30.9-17.84 15.45 8.92zm0 36.27l15.45 8.92-30.9 17.84-30.9-17.84 30.9-17.84 15.45 8.92zm0 36.27l15.45 8.92-30.9 17.84-30.9-17.84 30.9-17.84 15.45 8.92zm0 36.26l15.45 8.92-30.9 17.84-30.9-17.84 30.9-17.84 15.45 8.92zm.5 18.13l15.45-8.92 30.9 17.84-30.9 17.85-30.9-17.84 15.44-8.93zm31.4-.28l-15.45-8.92 30.9-17.84 30.9 17.84-30.9 17.84-15.45-8.92zm31.4.3l15.45-8.92 30.9 17.84-30.9 17.84-30.9-17.84 15.45-8.92zm31.4-.3l-15.45-8.92 30.9-17.84 30.9 17.84-30.9 17.84-15.45-8.92zm31.4.3l15.45-8.92 30.9 17.84-30.9 17.84-30.9-17.84 15.45-8.92zm31.4-.3l-15.45-8.92 30.9-17.84 30.9 17.84-30.9 17.84-15.45-8.92zm31.4.3l15.45-8.92 30.9 17.84-30.9 17.84-30.9-17.84L330 299.7zm31.4-.3l-15.45-8.92 30.9-17.84 30.9 17.84-30.9 17.84-15.45-8.92zm31.4.3l15.45-8.92 30.9 17.84-30.9 17.84-30.9-17.84 15.45-8.92zm31.4-.3l-15.45-8.92 30.9-17.84 30.9 17.84-30.9 17.84-15.45-8.92zm31.4.3l15.45-8.92 30.9 17.84-30.9 17.84-30.9-17.84 15.45-8.92zm0-18.43l-15.45-8.92 30.9-17.84 30.9 17.84-30.9 17.84-15.45-8.92zm0-36.26l-15.45-8.92 30.9-17.84 30.9 17.84-30.9 17.84-15.45-8.92zm0-36.27l-15.45-8.92 30.9-17.84 30.9 17.84-30.9 17.84-15.45-8.92zm0-36.26l-15.45-8.92 30.9-17.84 30.9 17.84-30.9 17.84-15.45-8.92zm0-36.27l-15.45-8.92 30.9-17.84 30.9 17.84-30.9 17.84-15.45-8.92zm-.01-36.27l-15.45-8.92 30.9-17.84 30.9 17.84-30.9 17.84-15.45-8.92zm-.5.3l15.45 8.92-30.9 17.84-30.9-17.84 30.9-17.84 15.45 8.92zm-31.4-.3l-15.45 8.92-30.9-17.84 30.9-17.84 30.9 17.84-15.45 8.92zm-31.4.3l15.45 8.92-30.9 17.84-30.9-17.84 30.9-17.84 15.45 8.92zm-31.4-.3l-15.45 8.92-30.9-17.84 30.9-17.84 30.9 17.84-15.45 8.92zm-31.4.3l15.45 8.92-30.9 17.84-30.9-17.84 30.9-17.84 15.45 8.92zm-31.4-.3l-15.45 8.92-30.9-17.84 30.9-17.84 30.9 17.84-15.45 8.92zm-31.4.3l15.45 8.92-30.9 17.84-30.9-17.84 30.9-17.84 15.45 8.92zm-31.4-.3l-15.45 8.92-30.9-17.84 30.9-17.84 30.9 17.84-15.45 8.92zm-31.4.3l15.45 8.92L188.4 127l-30.9-17.84 30.9-17.84 15.45 8.92zm-31.4-.3L157 108.87l-30.9-17.84L157 73.2l30.9 17.84-15.45 8.92zm-31.4.3l15.45 8.92L125.6 127l-30.9-17.84 30.9-17.84 15.45 8.92zm-31.4-.3l-15.45 8.92-30.9-17.84 30.9-17.84 30.9 17.84-15.45 8.92zm0 18.42l15.45 8.92-30.9 17.84-30.9-17.84 30.9-17.84 15.45 8.92zm0 36.27l15.45 8.92-30.9 17.84-30.9-17.84 30.9-17.84 15.45 8.92zm0 36.27l15.45 8.92-30.9 17.84-30.9-17.84L94.18 182l15.45 8.92zm.01 36.26l15.45 8.92-30.9 17.84-30.9-17.84 30.9-17.84 15.45 8.92zm0 36.27l15.45 8.92-30.9 17.84-30.9-17.84 30.9-17.84 15.45 8.92zm0 36.26l15.45 8.92-30.9 17.84-30.9-17.84 30.9-17.84 15.45 8.92zm0 36.27l15.45 8.92-30.9 17.84-30.9-17.84 30.9-17.84 15.45 8.92zm.5-.3l-15.45-8.92 30.9-17.84 30.9 17.84-30.9 17.84-15.45-8.92zm31.4.3l15.45-8.92 30.9 17.84-30.9 17.85-30.9-17.84 15.45-8.93zm31.4-.3l-15.45-8.92 30.9-17.84 30.9 17.84-30.9 17.84-15.45-8.92zm31.4.3l15.45-8.92 30.9 17.84-30.9 17.84-30.9-17.84 15.45-8.92zm31.4-.3l-15.45-8.92 30.9-17.84 30.9 17.84-30.9 17.84-15.45-8.92zm31.4.3l15.45-8.92 30.9 17.84-30.9 17.84-30.9-17.84 15.45-8.92zm31.4-.3l-15.45-8.92 30.9-17.84 30.9 17.84-30.9 17.84-15.45-8.92zm31.4.3l15.45-8.92 30.9 17.84-30.9 17.84-30.9-17.84 15.45-8.92zm31.4-.3l-15.45-8.92 30.9-17.84 30.9 17.84-30.9 17.84-15.45-8.92zm31.4.3l15.45-8.92 30.9 17.84-30.9 17.84-30.9-17.84 15.45-8.92zm31.4-.3l-15.45-8.92 30.9-17.84 30.9 17.84-30.9 17.84-15.45-8.92zm31.4.3l15.45-8.92 30.9 17.84-30.9 17.84-30.9-17.84 15.45-8.92zm31.4-.3l-15.45-8.92 30.9-17.84 30.9 17.84-30.9 17.84-15.45-8.92zm0-36.26l-15.45-8.92 30.9-17.84 30.9 17.84-30.9 17.84-15.45-8.92zm0-36.27l-15.45-8.92 30.9-17.84 30.9 17.84-30.9 17.84-15.45-8.92zm-.01-36.26l-15.45-8.92 30.9-17.84 30.9 17.84-30.9 17.84-15.45-8.92zm0-36.27l-15.45-8.92 30.9-17.84 30.9 17.84-30.9 17.84-15.45-8.92zm0-36.27l-15.45-8.92 30.9-17.84 30.9 17.84-30.9 17.84-15.45-8.92zm0-36.26l-15.45-8.92 30.9-17.84 30.9 17.84-30.9 17.84-15.45-8.92zm0-36.27l-15.45-8.92 30.9-17.84 30.9 17.84-30.9 17.84-15.45-8.92zm-.5-18.13l-15.45 8.92-30.9-17.84 30.9-17.84 30.9 17.84-15.45 8.92zm-31.4.3l15.45 8.92-30.9 17.84-30.9-17.84 30.9-17.84 15.45 8.92zm-31.4-.3l-15.45 8.92-30.9-17.84 30.9-17.84 30.9 17.84-15.45 8.92zm-31.4.3l15.45 8.92-30.9 17.84-30.9-17.84 30.9-17.84 15.45 8.92zm-31.4-.3l-15.45 8.92-30.9-17.84 30.9-17.84 30.9 17.84-15.45 8.92zm-31.4.3l15.45 8.92-30.9 17.84-30.9-17.84 30.9-17.84 15.45 8.92zm-31.4-.3l-15.45 8.92-30.9-17.84 30.9-17.84 30.9 17.84-15.45 8.92zm-31.4.3l15.45 8.92-30.9 17.84-30.9-17.84 30.9-17.84 15.45 8.92zm-31.4-.3L219.8 72.6l-30.9-17.84 30.9-17.84 30.9 17.84-15.45 8.92zm-31.4.28l15.45 8.92-30.9 17.84-30.9-17.84 30.9-17.84 15.45 8.92zm-31.4-.28L157 72.6l-30.9-17.84L157 36.93l30.9 17.84-15.45 8.92zm-31.4.28l15.45 8.92-30.9 17.84-30.9-17.83 30.9-17.84 15.46 8.9zm-31.4-.3L94.18 72.6l-30.9-17.84 30.9-17.84 30.9 17.84-15.45 8.92zm-31.4.3l15.45 8.92-30.9 17.84-30.9-17.83 30.9-17.84 15.46 8.9zm0 36.27l15.45 8.92L62.77 127l-30.9-17.84 30.9-17.84 15.45 8.92zm.01 36.27l15.45 8.92-30.9 17.84-30.9-17.84 30.9-17.84 15.45 8.92zm0 36.26l15.45 8.92-30.9 17.84-30.9-17.84 30.9-17.84 15.45 8.92zm0 36.27l15.45 8.92-30.9 17.84-30.9-17.84 30.9-17.84 15.45 8.92zm0 36.26l15.45 8.92-30.9 17.84-30.9-17.84 30.9-17.84 15.45 8.92zm0 36.27l15.45 8.92-30.9 17.84-30.9-17.84 30.9-17.84 15.45 8.92zm0 36.27l15.45 8.92-30.9 17.84-30.9-17.84 30.9-17.84 15.45 8.92zm0 36.26l15.45 8.92-30.9 17.84-30.9-17.84 30.9-17.84 15.45 8.92zm.5 18.14l15.45-8.92 30.9 17.84L94.2 399l-30.9-17.84 15.44-8.92zm31.4-.3l-15.45-8.92 30.9-17.84 30.9 17.84-30.9 17.84-15.45-8.92zm31.4.3l15.45-8.92 30.9 17.84L157 399l-30.9-17.84 15.45-8.92zm31.4-.3l-15.45-8.92 30.9-17.84 30.9 17.84-30.9 17.84-15.45-8.92zm31.4.3l15.45-8.92 30.9 17.84-30.9 17.84-30.9-17.84 15.44-8.92zm31.4-.3l-15.45-8.92 30.9-17.84 30.9 17.84-30.9 17.84-15.45-8.92zm31.4.3l15.45-8.92 30.9 17.84-30.9 17.84-30.9-17.84 15.45-8.92zm31.4-.3l-15.45-8.92 30.9-17.84 30.9 17.84-30.9 17.84-15.45-8.92zm31.4.3l15.45-8.92 30.9 17.84-30.9 17.84-30.9-17.84 15.45-8.92zm31.4-.3l-15.45-8.92 30.9-17.84 30.9 17.84-30.9 17.84-15.45-8.92zm31.4.3l15.45-8.92 30.9 17.84-30.9 17.84-30.9-17.84 15.45-8.92zm31.4-.3l-15.45-8.92 30.9-17.84 30.9 17.84-30.9 17.84-15.45-8.92zm31.4.3l15.45-8.92 30.9 17.84-30.9 17.84-30.9-17.84 15.45-8.92zm31.4-.3l-15.45-8.92 30.9-17.84 30.9 17.84-30.9 17.84-15.45-8.92zm31.4.3l15.45-8.92 30.9 17.84L533.9 399 503 381.16l15.45-8.92zm0-18.42L503 344.9l30.9-17.84 30.9 17.84-30.9 17.84-15.45-8.92zm-.01-36.27l-15.45-8.92 30.9-17.84 30.9 17.84-30.9 17.84-15.45-8.92zm0-36.26l-15.45-8.92 30.9-17.84 30.9 17.84-30.9 17.84-15.45-8.92zm0-36.27l-15.45-8.92 30.9-17.84 30.9 17.84-30.9 17.84-15.45-8.92zm0-36.27l-15.45-8.92 30.9-17.84 30.9 17.84-30.9 17.84-15.45-8.92zm0-36.26l-15.45-8.92 30.9-17.84 30.9 17.84-30.9 17.84-15.45-8.92zm0-36.27l-15.45-8.92 30.9-17.84 30.9 17.84-30.9 17.84-15.45-8.92zm0-36.27l-15.45-8.92 30.9-17.84 30.9 17.84-30.9 17.84-15.45-8.92zm0-36.26l-15.45-8.92 30.9-17.84 30.9 17.84-30.9 17.84-15.45-8.92zm-.5-35.98l15.45 8.92-30.9 17.84-30.9-17.84 30.9-17.84 15.45 8.92zM455.6 9.58L471.06.66l30.9 17.84-30.9 17.84-30.9-17.84 15.45-8.92zm-.5 18.13l15.45 8.92-30.9 17.84-30.9-17.84 30.9-17.84 15.45 8.92zM392.8 9.58L408.25.66l30.9 17.84-30.9 17.84-30.9-17.84 15.45-8.92zm-.5 18.13l15.45 8.92-30.9 17.84-30.9-17.84 30.9-17.84 15.45 8.92zM329.98 9.58L345.43.66l30.9 17.84-30.9 17.84-30.9-17.84 15.45-8.92zm-.5 18.13l15.45 8.92-30.9 17.84-30.9-17.84 30.9-17.84 15.45 8.92zm-62.3-18.13L282.62.66l30.9 17.84-30.9 17.84-30.9-17.84 15.45-8.92zm-.5 18.13l15.45 8.92-30.9 17.84-30.9-17.84 30.9-17.84 15.45 8.92zM204.35 9.58L219.8.66l30.9 17.84-30.9 17.84-30.9-17.84 15.45-8.92zm-.5 18.13l15.45 8.92-30.9 17.84-30.9-17.84 30.9-17.84 15.45 8.92zm-62.3-18.13L157 .66l30.9 17.84L157 36.34 126.1 18.5l15.45-8.92zm-.5 18.13l15.45 8.92-30.9 17.84-30.9-17.84 30.9-17.84 15.45 8.92zM78.72 9.57L94.17.65l30.9 17.84-30.9 17.84-30.9-17.83 15.45-8.93zm-.5 18.14l15.45 8.92-30.9 17.84-30.9-17.84 30.9-17.84 15.45 8.92zm-62.3-.3L.45 18.5 31.35.66l30.9 17.84-30.9 17.84-15.44-8.92zm0 36.26L.46 54.76l30.9-17.84 30.9 17.84-30.9 17.84-15.45-8.92zm0 36.27L.46 91.03l30.9-17.84 30.9 17.84-30.9 17.84-15.45-8.92zm0 36.27L.46 127.3l30.9-17.84 30.9 17.84-30.9 17.84-15.45-8.92zm0 36.26L.46 163.56l30.9-17.84 30.9 17.84-30.9 17.84-15.45-8.92zm0 36.27L.46 199.83 31.36 182l30.9 17.84-30.9 17.84-15.45-8.92zm0 36.26L.46 236.1l30.9-17.84 30.9 17.84-30.9 17.84L15.9 245zm0 36.27L.46 272.36l30.9-17.84 30.9 17.84-30.9 17.84-15.45-8.92zm.01 36.27L.47 308.63l30.9-17.84 30.9 17.84-30.9 17.84-15.45-8.92zm0 36.26L.47 344.9l30.9-17.84 30.9 17.84-30.9 17.84-15.45-8.92zm0 36.27L.47 381.16l30.9-17.84 30.9 17.84L31.37 399l-15.45-8.92zm30.9 36.27l-15.45 8.92-30.9-17.84 30.9-17.84 30.9 17.84-15.45 8.92zm.5-18.14l-15.45-8.92 30.9-17.84 30.9 17.84-30.9 17.84-15.45-8.92zm62.32 18.14l-15.45 8.92-30.9-17.84 30.9-17.84 30.9 17.84-15.45 8.92zm.5-18.14L94.7 399.3l30.9-17.84 30.9 17.84-30.9 17.84-15.45-8.92zm62.32 18.14L157 435.27l-30.9-17.84L157 399.6l30.9 17.84-15.44 8.92zm.5-18.14l-15.45-8.92 30.9-17.84 30.9 17.84-30.9 17.84-15.45-8.92zm62.32 18.14l-15.45 8.92-30.9-17.84 30.9-17.84 30.9 17.84-15.45 8.92zm.5-18.14l-15.45-8.92 30.9-17.84 30.9 17.84-30.9 17.84-15.45-8.92zm62.3 18.14l-15.45 8.92-30.9-17.84 30.9-17.84 30.9 17.84-15.45 8.92zm.5-18.13l-15.45-8.92 30.9-17.84 30.9 17.84-30.9 17.84-15.45-8.92zm62.32 18.13l-15.45 8.92-30.9-17.84 30.9-17.84 30.9 17.84-15.45 8.92zm.5-18.13l-15.45-8.92 30.9-17.84 30.9 17.84-30.9 17.84-15.45-8.92zm62.3 18.13l-15.45 8.92-30.9-17.84 30.9-17.84 30.9 17.84-15.45 8.92zm.5-18.13l-15.45-8.92 30.9-17.84 30.9 17.84-30.9 17.84-15.45-8.92zm62.32 18.13l-15.45 8.92-30.9-17.84 30.9-17.84 30.9 17.84-15.45 8.92zm.5-18.13l-15.45-8.92 30.9-17.84 30.9 17.84-30.9 17.84-15.45-8.92zm62.3 18.13l-15.45 8.92-30.9-17.84 30.9-17.84 30.9 17.84-15.45 8.92zm31.4-35.98l15.45 8.92-30.9 17.84-30.9-17.84 30.9-17.84 15.45 8.92zm0-36.26l15.45 8.92-30.9 17.84-30.9-17.84 30.9-17.84 15.45 8.92zm0-36.27l15.45 8.92-30.9 17.84-30.9-17.84 30.9-17.84 15.45 8.92zm0-36.27l15.45 8.92-30.9 17.84-30.9-17.84 30.9-17.84 15.45 8.92zm0-36.26l15.45 8.92-30.9 17.84-30.9-17.84 30.9-17.84 15.45 8.92zm0-36.27l15.45 8.92-30.9 17.84-30.9-17.84 30.9-17.84 15.45 8.92zm0-36.26l15.45 8.92-30.9 17.84-30.9-17.84 30.9-17.84 15.45 8.92zm-.01-36.27l15.45 8.92-30.9 17.84-30.9-17.84 30.9-17.84 15.45 8.92zm0-36.27l15.45 8.92L565.3 127l-30.9-17.84 30.9-17.84 15.45 8.92zm0-36.26l15.45 8.92-30.9 17.84-30.9-17.84 30.9-17.84 15.45 8.92zm0-36.27l15.45 8.92-30.9 17.84-30.9-17.84 30.9-17.84 15.45 8.92z"/><path id="D" d="M115.5 262.46l-43.2-24.94c-.74-.43-.65-1.17.2-1.66l42.78-24.7c.85-.5 2.14-.55 2.88-.12l43.2 24.94c.74.43.65 1.17-.2 1.66l-42.78 24.7c-.85.5-2.14.55-2.88.12z"/><path id="E" d="M115.74 231.7l-35.18-20.3c-.6-.35-.53-.95.17-1.36l34.84-20.1c.7-.4 1.75-.44 2.35-.1l35.18 20.3c.6.35.53.95-.17 1.36l-34.84 20.1c-.7.4-1.75.45-2.35.1z"/><path id="F" d="M376.86 164.86l-9.54-5.42.33-2.07 9.54 5.43z"/><path id="G" d="M381.75 167.64l-3.43-1.95.32-2.06 3.44 1.95z"/><path id="H" d="M385.55 169.8l-2.34-1.33.33-2.06 2.33 1.33z"/><path id="I" d="M383.4 173.7l-2.33-1.32.32-2.07 2.33 1.33z"/><path id="J" d="M369.6 171l-3.76-2.14.33-2.06 3.76 2.14z"/><path id="K" d="M382.8 204.2l-2.34-1.33.33-2.06 2.33 1.32z"/><path id="L" d="M393.4 184.54l3.76 2.14.33-2.06-3.76-2.14z"/><path id="M" d="M390.18 198.1l4.77 2.7.33-2.06-4.77-2.7z"/><path id="N" d="M375.68 205.27l-4.57-2.6.33-2.06 4.56 2.6z"/><path id="O" d="M413.87 185.82l-9.54-5.43.32-2.06 9.54 5.42z"/><path id="P" d="M418.76 188.6l-3.44-1.95.33-2.07 3.43 1.96z"/><path id="Q" d="M422.55 190.76l-2.33-1.33.32-2.06 2.33 1.32z"/><path id="R" d="M420.4 194.67l-2.33-1.33.32-2.06 2.34 1.33z"/><path id="S" d="M424 196.72l-2.33-1.33.32-2.06 2.33 1.33z"/><path id="T" d="M406.6 191.96l-3.76-2.14.32-2.06 3.76 2.14z"/><path id="U" d="M405.13 201.4l-3.76-2.14.32-2.07 3.76 2.14z"/><path id="V" d="M420.56 215.3l-3.76-2.14.32-2.06 3.76 2.13z"/><path id="W" d="M414.37 216.9l-5.54-3.15.33-2.06 5.53 3.15z"/><path id="X" d="M427.97 209.24l5.47 3.1.32-2.06-5.47-3.1z"/><path id="Y" d="M298.08 124.74l-2.34-1.32.33-2.07 2.33 1.33z"/><path id="Z" d="M289.1 300.88l-8.24-4.76 1.63-.94 8.24 4.76z"/><path id="a" d="M295.7 304.7l-2.42-1.4 1.63-.94 2.42 1.4z"/><path id="b" d="M269.42 301.2l-2.4-1.4 1.63-.94 2.4 1.4z"/></defs><mask maskUnits="userSpaceOnUse" x="0" y="0" width="600" height="450" id="d"><g filter="url(#B)"><defs/><mask maskUnits="userSpaceOnUse" x="0" y="0" width="600" height="450" id="d"/><radialGradient id="e" cx="-.983" cy="1.345" r="791.074" gradientUnits="userSpaceOnUse"><stop offset="0" stop-color="#fff"/><stop offset=".079" stop-color="#e4e4e4"/><stop offset=".25" stop-color="#9e9e9e"/><stop offset=".498" stop-color="#2f2f2f"/><stop offset=".516" stop-color="#262626"/><stop offset=".638" stop-color="#292929"/><stop offset=".708" stop-color="#313131"/><stop offset=".764" stop-color="#3f3f3f"/><stop offset=".813" stop-color="#535353"/><stop offset=".858" stop-color="#6c6c6c"/><stop offset=".9" stop-color="#8c8c8c"/><stop offset=".939" stop-color="#b2b2b2"/><stop offset=".975" stop-color="#dcdcdc"/><stop offset="1" stop-color="#fff"/></radialGradient><use xlink:href="#C" mask="url(#d)" fill="url(#e)"/></g></mask><radialGradient id="f" cx="-.983" cy="1.345" r="791.074" gradientUnits="userSpaceOnUse"><stop offset="0" stop-color="#42e8e0"/><stop offset="1" stop-color="#42e8e0"/></radialGradient><use xlink:href="#C" opacity=".2" fill="url(#f)"/><use xlink:href="#D" class="t u"/><path d="M116.7 275.26c-.77 0-1.5-.16-2.07-.5l-63.2-36.48c-.62-.36-.96-.88-.97-1.47 0-.67.46-1.32 1.27-1.8l62.58-36.13c1.4-.8 3.46-.88 4.7-.17l63.2 36.48c.62.36.96.88.96 1.47 0 .67-.46 1.32-1.27 1.8l-62.58 36.13c-.75.43-1.7.66-2.6.66zm-1.6-1.3c.93.54 2.65.46 3.75-.17l62.58-36.13c.5-.3.8-.65.8-.97 0-.3-.27-.52-.5-.65l-63.2-36.48c-.93-.54-2.65-.46-3.75.17l-62.58 36.13c-.5.3-.8.65-.8.97 0 .3.27.52.5.65l63.2 36.48z" class="w"/><linearGradient id="g" gradientUnits="userSpaceOnUse" x1="142.612" y1="194.451" x2="72.435" y2="250.726"><stop offset="0" stop-color="#bcd5ff"/><stop offset=".151" stop-color="#a3beff"/><stop offset=".387" stop-color="#82a0ff"/><stop offset=".612" stop-color="#6a8aff"/><stop offset=".822" stop-color="#5c7dff"/><stop offset="1" stop-color="#5778ff"/></linearGradient><path d="M161.85 219.1v-8.33l-13.57.01-30.1-17.4c-.74-.43-2.03-.37-2.88.12l-30 17.3H71.8v8.35h.01c.01.26.17.5.5.7l43.2 24.94c.74.43 2.03.37 2.88-.12l42.78-24.7c.45-.25.68-.57.7-.88z" fill="url(#g)"/><linearGradient id="h" gradientUnits="userSpaceOnUse" x1="155.875" y1="253.055" x2="49.476" y2="219.823"><stop offset="0" stop-color="#c0d6ff"/><stop offset=".298" stop-color="#c5dbff"/><stop offset=".649" stop-color="#d3e9ff"/><stop offset="1" stop-color="#e9ffff"/></linearGradient><use xlink:href="#D" y="-26" fill="url(#h)"/><path d="M115.64 233.54l-38.3-22.1c-.66-.38-.57-1.04.18-1.48l37.92-21.9c.76-.44 1.9-.48 2.56-.1l38.3 22.1c.65.38.57 1.04-.18 1.48l-37.92 21.9c-.76.44-1.9.5-2.56.1z" class="u"/><use xlink:href="#E" class="v"/><path d="M116.02 209.43l-4.12-2.38 2.25-1.3 4.1 2.37zm7.64-.33l-4.1 2.38-2.25-1.3 4.12-2.37zm-8.58.87l-2.24 1.3-2.25-1.3 2.25-1.3zm7.77 4.48l-2.25 1.3-6.48-3.74 2.25-1.3z" class="w"/><use xlink:href="#D" x="394.03" y="48.32" class="t u"/><path d="M510.75 321.98c-.74 0-1.45-.15-2-.47l-60.54-34.96c-.6-.35-.93-.85-.93-1.42 0-.65.45-1.28 1.22-1.73l59.96-34.62c1.35-.78 3.33-.85 4.5-.17l60.54 34.96c.6.35.93.85.93 1.42 0 .65-.45 1.28-1.22 1.73l-59.96 34.62c-.72.43-1.64.64-2.5.64zm.24-72.88c-.7 0-1.48.17-2.06.5l-59.96 34.62c-.47.27-.75.6-.75.9 0 .28.25.48.46.6l60.54 34.96c.9.5 2.52.44 3.57-.17l59.96-34.62c.47-.27.75-.6.75-.9 0-.28-.25-.48-.46-.6l-60.54-34.95c-.4-.23-.94-.34-1.5-.34z" class="w"/><linearGradient id="i" gradientUnits="userSpaceOnUse" x1="536.651" y1="243.887" x2="466.473" y2="300.162"><stop offset="0" stop-color="#bcd5ff"/><stop offset=".151" stop-color="#a3beff"/><stop offset=".387" stop-color="#82a0ff"/><stop offset=".612" stop-color="#6a8aff"/><stop offset=".822" stop-color="#5c7dff"/><stop offset="1" stop-color="#5778ff"/></linearGradient><path d="M555.9 268.52v-8.33h-13.57l-30.1-17.4c-.74-.43-2.03-.37-2.88.12l-29.98 17.3-13.5.01v8.35h.01c.01.26.17.5.5.7l43.2 24.94c.74.43 2.03.37 2.88-.12l42.78-24.7c.43-.25.67-.58.7-.9z" fill="url(#i)"/><linearGradient id="j" gradientUnits="userSpaceOnUse" x1="155.884" y1="253.051" x2="49.484" y2="219.819"><stop offset="0" stop-color="#c0d6ff"/><stop offset=".298" stop-color="#c5dbff"/><stop offset=".649" stop-color="#d3e9ff"/><stop offset="1" stop-color="#e9ffff"/></linearGradient><use xlink:href="#D" x="394.03" y="23.44" fill="url(#j)"/><use xlink:href="#D" x="394.03" y="23.44" fill="url(#j)"/><path d="M509.68 282.98l-38.3-22.1c-.65-.38-.57-1.04.18-1.48l37.92-21.9c.76-.44 1.9-.48 2.56-.1l38.3 22.1c.65.38.57 1.04-.18 1.48l-37.92 21.9c-.76.44-1.9.5-2.56.1z" class="u"/><path d="M509.78 281.13l-35.18-20.3c-.6-.35-.53-.95.17-1.36l34.84-20.1c.7-.4 1.75-.44 2.35-.1l35.18 20.3c.6.35.53.95-.17 1.36l-34.84 20.1c-.7.4-1.75.44-2.35.1z" class="v"/><g class="w"><path d="M510.06 258.87l-4.12-2.38 2.25-1.3 4.1 2.38zm7.64-.34l-4.1 2.37-2.25-1.3 4.1-2.38zm-8.58.87l-2.24 1.3-2.25-1.3 2.25-1.3zm7.76 4.5l-2.24 1.3-6.48-3.74 2.25-1.3z"/><path d="M555.9 249l-18.38.1-25.32-14.62c-.74-.43-2.03-.37-2.88.12l-25.67 14.82-17.82.1v10.82l.01.01c.04.23.2.44.5.6l43.2 24.94c.74.43 2.03.37 2.88-.12l42.78-24.7c.4-.22.6-.5.68-.78h.03V249z" opacity=".4"/></g><linearGradient id="k" gradientUnits="userSpaceOnUse" x1="536.651" y1="225.424" x2="466.473" y2="281.698"><stop offset="0" stop-color="#bcd5ff"/><stop offset=".151" stop-color="#a3beff"/><stop offset=".387" stop-color="#82a0ff"/><stop offset=".612" stop-color="#6a8aff"/><stop offset=".822" stop-color="#5c7dff"/><stop offset="1" stop-color="#5778ff"/></linearGradient><path d="M555.9 250.06v-8.33l-13.57.01-30.1-17.4c-.74-.43-2.03-.37-2.88.12l-29.98 17.3-13.5.01v8.35h.01c.01.26.17.5.5.7l43.2 24.94c.74.43 2.03.37 2.88-.12l42.78-24.7c.43-.26.67-.58.7-.9z" fill="url(#k)"/><linearGradient id="l" gradientUnits="userSpaceOnUse" x1="549.914" y1="258.027" x2="443.514" y2="224.796"><stop offset="0" stop-color="#c0d6ff"/><stop offset=".298" stop-color="#c5dbff"/><stop offset=".649" stop-color="#d3e9ff"/><stop offset="1" stop-color="#e9ffff"/></linearGradient><path d="M509.53 267.44l-43.2-24.94c-.74-.43-.65-1.17.2-1.66l42.78-24.7c.85-.5 2.14-.55 2.88-.12l43.2 24.94c.74.43.65 1.17-.2 1.66l-42.78 24.7c-.85.5-2.14.54-2.88.12z" fill="url(#l)"/><path d="M509.68 264.52l-38.3-22.1c-.65-.38-.57-1.04.18-1.48l37.92-21.9c.76-.44 1.9-.48 2.56-.1l38.3 22.1c.65.38.57 1.04-.18 1.48l-37.92 21.9c-.76.44-1.9.48-2.56.1z" class="u"/><use xlink:href="#E" x="394.04" y="30.96" class="v"/><path d="M510.06 240.4l-4.12-2.37 2.25-1.3 4.1 2.38zm7.64-.33l-4.1 2.37-2.25-1.3 4.1-2.37zm-8.58.87l-2.24 1.3-2.25-1.3 2.25-1.3zm7.76 4.48l-2.24 1.3-6.48-3.74 2.25-1.3zm-100.28 175a3.97 3.97 0 0 1-1.98-.53l-35.46-20.47.47-.82 35.46 20.47a3.02 3.02 0 0 0 3.02 0l158.4-91.45a.7.7 0 0 0 .35-.6.69.69 0 0 0-.35-.6l-36.24-20.93.47-.82L577 325.6a1.62 1.62 0 0 1 .82 1.43 1.64 1.64 0 0 1-.82 1.43L418.6 419.9c-.62.34-1.3.52-2 .52zM116.82 342.6c-.88 0-1.75-.22-2.53-.67L28.05 292.2a1.49 1.49 0 0 1-.75-1.29 1.48 1.48 0 0 1 .74-1.29l56.83-32.8.47.82-56.83 32.8c-.25.14-.27.38-.27.47s.03.33.27.47l86.24 49.74c1.27.74 2.85.73 4.12 0l17.4-10.04.47.82-17.4 10.04c-.76.44-1.64.67-2.52.67z" class="w"/><linearGradient id="m" gradientUnits="userSpaceOnUse" x1="460.655" y1="201.195" x2="244.411" y2="201.195"><stop offset="0" stop-color="#c0d6ff"/><stop offset=".298" stop-color="#c5dbff"/><stop offset=".649" stop-color="#d3e9ff"/><stop offset="1" stop-color="#e9ffff"/></linearGradient><path d="M244.45 214.64l23.42-138.96-1.88-.8 2.83-1.62v.02c.55-.37 1.33-.34 2.18.15L458.2 181.5c1.54.9 2.7 3.16 2.43 4.75L437 326.33c-.12.73-.48 1.2-1 1.43l-2.77 1.6-.48-2.6.16.05L246.88 219.4c-1.54-.9-2.7-3.17-2.43-4.76z" fill="url(#m)"/><linearGradient id="n" gradientUnits="userSpaceOnUse" x1="460.654" y1="256.652" x2="423.523" y2="256.652"><stop offset="0" stop-color="#5778ff"/><stop offset=".178" stop-color="#5c7dff"/><stop offset=".388" stop-color="#6a8aff"/><stop offset=".613" stop-color="#82a0ff"/><stop offset=".849" stop-color="#a3beff"/><stop offset="1" stop-color="#bcd5ff"/></linearGradient><path d="M457.14 185.3l3.08-1.36c.35.8.5 1.62.4 2.32L437 326.34c-.12.73-.48 1.2-1 1.43l-2.77 1.6-.48-2.6.16.05-9.4-5.44 33.62-136.08z" fill="url(#n)"/><path d="M243.94 221.08l187.2 108.07c1.45.83 2.68.35 2.94-1.14l23.6-140.07c.27-1.6-.9-3.87-2.43-4.75L268.06 75.12c-1.45-.83-2.68-.35-2.94 1.14l-23.6 140.07c-.27 1.6.9 3.87 2.43 4.75z" class="u"/><path d="M270.5 84.06l180.43 104.17-22.37 131.92-180.32-104.1z" class="t v"/><path d="M316.48 434.73c-1.6 0-3.3-.4-4.63-1.17L112.64 318.5c-1.36-.8-2.14-1.86-2.14-2.95 0-.93.56-1.77 1.58-2.36l125.73-72.6c2.16-1.25 5.8-1.1 8.26.32l199.2 115.05c1.36.8 2.14 1.86 2.14 2.95 0 .93-.56 1.77-1.58 2.36l-125.73 72.6c-.98.58-2.27.86-3.62.86zM241.44 240.7c-1.18 0-2.3.24-3.15.72L112.55 314c-.73.42-1.1.95-1.1 1.55 0 .74.6 1.52 1.67 2.14l199.2 115.05c2.17 1.25 5.46 1.4 7.32.32l125.73-72.6c.73-.42 1.1-.95 1.1-1.54 0-.75-.6-1.52-1.67-2.14L245.6 241.74c-1.2-.7-2.72-1.05-4.16-1.05z" class="w"/><path d="M127.86 316.92L313.14 423.9c2.03 1.17 5.1 1.3 6.85.28l110.57-63.84c1.76-1 1.54-2.8-.5-3.96L244.78 249.4c-2.03-1.17-5.1-1.3-6.85-.28l-110.57 63.84c-1.75 1-1.53 2.78.5 3.95z" class="t u"/><linearGradient id="o" gradientUnits="userSpaceOnUse" x1="431.684" y1="318.991" x2="126.276" y2="318.991"><stop offset="0" stop-color="#5778ff"/><stop offset=".178" stop-color="#5c7dff"/><stop offset=".388" stop-color="#6a8aff"/><stop offset=".613" stop-color="#82a0ff"/><stop offset=".849" stop-color="#a3beff"/><stop offset="1" stop-color="#bcd5ff"/></linearGradient><path d="M126.28 287.4l10.22 5.33 102.44-59.14c1.7-1 4.7-.87 6.7.28l176.67 102c1.7-.95 9.4-4.65 9.4-4.65l-3.74 9.74s-.01-.01-.02-.01c-.15.43-.5.84-1.05 1.16L319 404.4c-1.7 1-4.7.87-6.7-.28l-180.8-104.37c-.8-.47-1.3-1.04-1.52-1.6v.01l-3.7-10.74z" fill="url(#o)"/><linearGradient id="p" gradientUnits="userSpaceOnUse" x1="329.066" y1="308.808" x2="23.495" y2="308.808"><stop offset="0" stop-color="#c0d6ff"/><stop offset=".298" stop-color="#c5dbff"/><stop offset=".649" stop-color="#d3e9ff"/><stop offset="1" stop-color="#e9ffff"/></linearGradient><path d="M127.86 289.07l185.3 106.98c2.03 1.17 5.1 1.3 6.85.28l110.57-63.84c1.76-1 1.54-2.8-.5-3.96l-185.3-106.96c-2.03-1.17-5.1-1.3-6.85-.28l-110.57 63.84c-1.75 1-1.53 2.77.5 3.94z" fill="url(#p)"/><path d="M369.03 372.9v-2.03c0-.2-.12-.28-.26-.2l-7.17 4.14c-.14.08-.26.3-.26.5v2.03c0 .2.12.28.26.2l7.17-4.14c.14-.08.26-.3.26-.5zm-10.73 6.2v-2.03c0-.2-.12-.28-.26-.2l-7.17 4.14c-.14.08-.26.3-.26.5v2.03c0 .2.12.28.26.2l7.17-4.14c.15-.1.26-.3.26-.5z" fill="#2859cb"/><path d="M401.74 326.52l-153.97-88.9c-1.03-.6-2.3-.6-3.32 0l-54.83 31.72c-.8.46-.8 1.6 0 2.05l153.9 88.86c1.03.6 2.3.6 3.3 0l54.9-31.68c.8-.46.8-1.6.01-2.05z" fill="#adc8ff"/><path d="M401.74 328.57l-.55.32-153.42-88.58c-1.03-.6-2.3-.6-3.32 0l-54.28 31.4-.55-.32c-.8-.45-.8-1.6 0-2.05l54.83-31.72c1.03-.6 2.3-.6 3.32 0l153.97 88.9c.78.45.78 1.6 0 2.05z" class="x"/><path d="M240.3 245.66l133.74 77.22 5.95-3.44-133.75-77.22zm-14.57 8.42l125.45 72.42 5.95-3.43-125.46-72.43zm-9.5 5.48l147.7 85.27 5.94-3.43-147.7-85.28zm-9.5 5.48l147.7 85.28 5.95-3.44-147.7-85.27zm-9.5 5.48l147.7 85.28 5.95-3.43-147.7-85.28zm184.9 57.02l5.94 3.44 5.95-3.44-5.95-3.43zm-20.98 4.73l12.34 7.12 5.95-3.43-12.34-7.13z" class="u"/><linearGradient id="q" gradientUnits="userSpaceOnUse" x1="277.318" y1="326.155" x2="199.1" y2="326.155"><stop offset="0" stop-color="#c0d6ff"/><stop offset=".298" stop-color="#c5dbff"/><stop offset=".649" stop-color="#d3e9ff"/><stop offset="1" stop-color="#e9ffff"/></linearGradient><path d="M241.83 348.03l-41.52-23.97c-1.62-.94-1.62-2.46 0-3.4l28.4-16.4c1.62-.94 4.25-.94 5.88 0l41.52 23.97c1.62.94 1.62 2.46 0 3.4l-28.4 16.4c-1.62.94-4.25.94-5.88 0z" fill="url(#q)"/><path d="M276.1 329.64l-41.52-23.97c-1.62-.94-4.25-.94-5.88 0l-28.4 16.4c-.5.3-.83.64-1.02 1-.43-.82-.1-1.74 1.02-2.4l28.4-16.4c1.62-.94 4.25-.94 5.88 0l41.52 23.97c1.12.65 1.45 1.57 1.02 2.4-.2-.37-.52-.7-1.02-1z" class="x"/><g opacity=".1"><defs><path id="r" d="M270.5 84.06l180.43 104.17-22.37 131.92-180.32-104.1z" opacity=".1"/></defs><clipPath id="s"><use xlink:href="#r"/></clipPath><g clip-path="url(#s)"><linearGradient id="t" gradientUnits="userSpaceOnUse" x1="445.811" y1="241.079" x2="140.241" y2="241.079"><stop offset="0" stop-color="#c0d6ff"/><stop offset=".298" stop-color="#c5dbff"/><stop offset=".649" stop-color="#d3e9ff"/><stop offset="1" stop-color="#e9ffff"/></linearGradient><path d="M244.6 221.35l185.3 106.98c2.03 1.17 5.1 1.3 6.85.28l110.57-63.84c1.76-1 1.54-2.8-.5-3.96l-185.3-106.97c-2.03-1.17-5.1-1.3-6.85-.28L244.1 217.4c-1.76 1-1.54 2.77.5 3.95z" fill="url(#t)"/><linearGradient id="u" gradientUnits="userSpaceOnUse" x1="465.923" y1="218.648" x2="387.705" y2="218.648"><stop offset="0" stop-color="#c0d6ff"/><stop offset=".298" stop-color="#c5dbff"/><stop offset=".649" stop-color="#d3e9ff"/><stop offset="1" stop-color="#e9ffff"/></linearGradient><path d="M430.44 240.52l-41.52-23.97c-1.62-.94-1.62-2.46 0-3.4l28.4-16.4c1.62-.94 4.25-.94 5.88 0l41.52 23.97c1.62.94 1.62 2.46 0 3.4l-28.4 16.4c-1.63.94-4.26.94-5.88 0z" fill="url(#u)"/><path d="M464.7 222.13l-41.52-23.97c-1.62-.94-4.25-.94-5.88 0l-28.4 16.4c-.5.3-.83.64-1.02 1-.43-.82-.1-1.74 1.02-2.4l28.4-16.4c1.62-.94 4.25-.94 5.88 0l41.52 23.97c1.12.65 1.45 1.57 1.02 2.4-.2-.36-.52-.7-1.02-1z" class="x"/><path d="M482.96 277.98L329 189.08c-1.03-.6-2.3-.6-3.32 0l-54.83 31.72c-.8.46-.8 1.6 0 2.05l153.9 88.86c1.03.6 2.3.6 3.3 0l54.9-31.68a1.19 1.19 0 0 0 .01-2.05z" fill="#adc8ff"/><path d="M482.96 280.03l-.55.32L329 191.77c-1.03-.6-2.3-.6-3.32 0l-54.28 31.4-.55-.32c-.8-.45-.8-1.6 0-2.05l54.83-31.72c1.03-.6 2.3-.6 3.32 0l153.97 88.9c.78.46.78 1.6 0 2.05z" class="x"/><g class="u"><path d="M285.18 218.65l134.14 77.44-5.3 3.07-134.14-77.44zm14.14-8.15l127.5 73.6-5.3 3.07-127.5-73.6zm137 79.1l11.9 6.88-5.3 3.07-11.9-6.88zm-10.5 10.24l8.3 4.8-5.3 3.07-8.3-4.8zm-117.65-94.46l148.93 85.98-5.32 3.06-148.92-85.98zm8.86-5.12l148.92 85.98-5.3 3.07-148.92-85.98zm8.87-5.1l148.92 85.98-5.3 3.07-148.93-85.98z"/></g></g></g><radialGradient id="v" cx="1389.406" cy="280.412" r="87.601" gradientTransform="matrix(-1 0 0 1 1732.0824 0)" gradientUnits="userSpaceOnUse"><stop offset="0" stop-color="#2b3aa5"/><stop offset="1" stop-color="#182484"/></radialGradient><path d="M330.4 318.6l39.92-24.56-89.75-51.82-42.35 28.47z" opacity=".42" fill="url(#v)"/><radialGradient id="w" cx="1370.247" cy="241.004" r="67.053" gradientTransform="matrix(-1 0 0 1 1732.0824 0)" gradientUnits="userSpaceOnUse"><stop offset="0" stop-color="#2b3aa5"/><stop offset="1" stop-color="#182484"/></radialGradient><path d="M370.3 294.04l9.14-57.76-84.22-48.3v62.6z" opacity=".42" fill="url(#w)"/><g class="w"><use xlink:href="#F" class="t"/><use xlink:href="#G" class="t"/><use xlink:href="#H" class="t"/><path d="M371.78 167.1l-5.2-2.96.33-2.06 5.2 2.95zm7.82 4.46l-6.37-3.62.32-2.07 6.37 3.62z" class="t"/><use xlink:href="#I" class="t"/><path d="M387 175.77l-2.34-1.33.33-2.07 2.33 1.33z" class="t"/><use xlink:href="#J"/><path d="M372.35 172.56l-1.3-.73.32-2.06 1.3.73z"/><use xlink:href="#H" x="-9.41" y="4.92" class="t"/><path d="M378.98 181.47l-13.88-7.9.33-2.07 13.88 7.9z" class="t"/><use xlink:href="#G" x="2.12" y="16.61" class="t"/><use xlink:href="#J" x="-1.48" y="9.43" class="t"/><path d="M376.95 185.45l-7.37-4.2.32-2.06 7.37 4.2zm3.8 2.15l-2.33-1.33.32-2.07 2.33 1.33zm-9.42-.22l-7.7-4.37.33-2.07 7.7 4.38z" class="t"/><path d="M378.34 191.37l-5.57-3.16.33-2.06 5.56 3.16z"/><path d="M383.56 194.34l-3.77-2.14.33-2.06 3.76 2.14zm-18.08-5.14l-2.6-1.48.32-2.06 2.6 1.47zm4.9 2.78l-3.43-1.95.32-2.07 3.44 1.96zm7 3.98l-5.53-3.15.32-2.07 5.54 3.15zm-7.26 1l-7.96-4.53.32-2.06 7.97 4.53zm8.92 5.07l-7.46-4.24.32-2.06 7.46 4.24z" class="t"/><use xlink:href="#K"/><use xlink:href="#K" x="3.65" y="2.06" class="t"/><path d="M366.17 199.86l-4.77-2.7.32-2.07 4.77 2.72z" class="t"/><path d="M392.04 173.5l6.6 3.76.33-2.06-6.62-3.76z"/><path d="M392.72 179l5.2 2.96.33-2.06-5.2-2.96z" class="t"/><use xlink:href="#L" class="t"/><path d="M390.96 188.3l5.47 3.1.33-2.07-5.47-3.1z" class="t"/><use xlink:href="#L" x="-1.47" y="9.43" class="t"/><use xlink:href="#M" class="t"/><path d="M391.6 204.06l2.6 1.48.33-2.07-2.6-1.47zm-3.16 3.34l5.03 2.86.33-2.06-5.04-2.87zm-.48 4.85l4.77 2.7.32-2.06-4.76-2.7zm-18.3-10.4l-2.02-1.15.32-2.07 2.03 1.16z" class="t"/><use xlink:href="#N" class="t"/><use xlink:href="#O" class="t"/><use xlink:href="#P" class="t"/><use xlink:href="#Q"/><path d="M408.78 188.06l-5.2-2.95.32-2.07 5.2 2.96zm7.82 4.44l-6.37-3.62.33-2.06 6.37 3.62z" class="t"/><use xlink:href="#R"/><use xlink:href="#S" class="t"/><use xlink:href="#T" class="t"/><path d="M409.35 193.52l-1.3-.73.33-2.07 1.28.74z" class="t"/><use xlink:href="#I" x="29.74" y="21.97" class="t"/><path d="M416 202.43l-13.88-7.9.32-2.06 13.88 7.9z" class="t"/><use xlink:href="#P" x="2.12" y="16.6" class="t"/><use xlink:href="#U" class="t"/><path d="M413.95 206.4l-7.37-4.2.33-2.06 7.37 4.2z" class="t"/><use xlink:href="#R" x="-2.66" y="13.89" class="t"/><path d="M408.32 208.34l-7.7-4.38.33-2.06 7.7 4.37z"/><path d="M415.34 212.33l-5.56-3.16.32-2.07 5.57 3.17z" class="t"/><use xlink:href="#V" class="t"/><path d="M402.48 210.15l-2.6-1.47.33-2.07 2.6 1.48zm4.9 2.78l-3.44-1.95.32-2.06 3.44 1.95z" class="t"/><use xlink:href="#W"/><path d="M407.1 217.92l-7.96-4.53.33-2.06 7.96 4.52zm8.92 5.08l-7.46-4.25.33-2.06 7.46 4.24zm3.78 2.14l-2.33-1.32.32-2.07 2.34 1.33z" class="t"/><use xlink:href="#S" x="-0.55" y="30.48" class="t"/><path d="M403.17 220.8l-4.77-2.7.33-2.06 4.77 2.7z" class="t"/><path d="M429.04 194.45l6.62 3.76.32-2.06-6.6-3.76z"/><path d="M429.72 199.97l5.2 2.95.32-2.06-5.2-2.95zm.7 5.53l3.76 2.14.32-2.07-3.76-2.13z" class="t"/><use xlink:href="#X" class="t"/><path d="M428.94 214.93l3.76 2.14.32-2.07-3.76-2.14zm-1.74 4.14l4.77 2.7.32-2.06-4.77-2.72zm1.42 5.93l2.6 1.48.32-2.06-2.6-1.48zm-3.18 3.34l5.04 2.87.32-2.07-5.04-2.86zm-.48 4.86l4.77 2.7.33-2.06-4.77-2.72z" class="t"/><path d="M406.66 222.8l-2.03-1.16.32-2.06 2.03 1.15z"/><path d="M412.68 226.22l-4.56-2.6.32-2.07 4.57 2.6z" class="t"/><use xlink:href="#F" x="-6.66" y="42.44" class="t"/><path d="M375.1 210.1l-3.44-1.95.33-2.06 3.43 1.95z" class="t"/><use xlink:href="#H" x="-6.67" y="42.45" class="t"/><path d="M365.1 209.56l-5.2-2.96.33-2.06 5.2 2.95zm7.84 4.44l-6.37-3.62.32-2.07 6.37 3.62z" class="t"/><use xlink:href="#I" x="-6.67" y="42.46" class="t"/><path d="M380.34 218.22L378 216.9l.33-2.06 2.33 1.32zm-17.4-4.77l-3.76-2.13.33-2.07 3.76 2.14zm2.75 1.55l-1.3-.73.33-2.06 1.28.73z" class="t"/><use xlink:href="#H" x="-16.08" y="47.37" class="t"/><path d="M372.3 223.92l-13.88-7.9.33-2.06 13.88 7.9zm4.9 2.78l-3.44-1.95.33-2.06 3.43 1.95z" class="t"/><use xlink:href="#J" x="-8.15" y="51.88" class="t"/><path d="M370.28 227.9l-7.37-4.2.33-2.06 7.36 4.2z" class="t"/><use xlink:href="#Q" x="-48.48" y="39.3" class="t"/><path d="M364.65 229.83l-7.7-4.37.33-2.07 7.7 4.38zm7.02 4l-5.57-3.17.33-2.06 5.56 3.16z" class="t"/><use xlink:href="#T" x="-29.7" y="44.84" class="t"/><path d="M358.8 231.65l-2.6-1.48.33-2.06 2.6 1.47zm4.9 2.78l-3.43-1.95.32-2.07 3.44 1.96zm7 3.97l-5.53-3.15.32-2.06 5.54 3.14zm-7.27 1l-7.96-4.53.33-2.06 7.96 4.53zm8.92 5.08l-7.46-4.24.32-2.06 7.46 4.24z" class="t"/><use xlink:href="#Q" x="-46.41" y="55.88" class="t"/><use xlink:href="#K" x="-3.02" y="44.5" class="t"/><path d="M359.5 242.3l-4.77-2.7.33-2.07 4.76 2.72zm25.87-26.36l6.62 3.77.32-2.07-6.6-3.76zm.68 5.52l5.2 2.96.32-2.06-5.2-2.96zm.7 5.54l3.77 2.14.32-2.06-3.76-2.14zm-2.44 3.74l5.47 3.1.33-2.07-5.47-3.1z" class="t"/><use xlink:href="#L" x="-8.14" y="51.88" class="t"/><use xlink:href="#M" x="-6.68" y="42.46" class="t"/><path d="M384.94 246.5l2.6 1.48.33-2.07-2.6-1.47zm-3.17 3.34l5.03 2.86.33-2.06-5.04-2.87zm-.47 4.86l4.77 2.72.33-2.07-4.77-2.7zM363 244.3l-2.03-1.15.32-2.07 2.03 1.16z" class="t"/><use xlink:href="#N" x="-6.68" y="42.45" class="t"/><path d="M370.63 263.57l-7.7-4.38.32-2.06 7.7 4.38zm5.27 3l-3.04-1.72.33-2.07 3.03 1.73z" class="t"/><use xlink:href="#O" x="-6.67" y="42.45" class="t"/><path d="M412.1 231.05l-3.43-1.95.32-2.07 3.43 1.96z" class="t"/><use xlink:href="#Q" x="-6.67" y="42.44" class="t"/><path d="M402.12 230.5l-5.2-2.95.32-2.07 5.2 2.96zm7.82 4.46l-6.37-3.62.33-2.06 6.37 3.62z" class="t"/><use xlink:href="#R" x="-6.67" y="42.45" class="t"/><use xlink:href="#R" x="-3.06" y="44.5" class="t"/><use xlink:href="#T" x="-6.66" y="42.44" class="t"/><path d="M402.68 235.97l-1.28-.73.32-2.07 1.3.74zm3.8 2.16l-2.33-1.33.32-2.07 2.34 1.33zm2.85 6.75l-13.88-7.9.32-2.06 13.88 7.9zm4.88 2.78l-3.43-1.95.32-2.07 3.43 1.96z" class="t"/><use xlink:href="#U" x="-6.67" y="42.44" class="t"/><path d="M407.28 248.86l-7.37-4.2.33-2.07 7.37 4.2z" class="t"/><use xlink:href="#R" x="-9.33" y="56.33" class="t"/><path d="M401.65 250.8l-7.7-4.38.32-2.06 7.7 4.37zm7.02 3.98l-5.56-3.16.32-2.07 5.57 3.17z" class="t"/><use xlink:href="#V" x="-6.66" y="42.45" class="t"/><path d="M395.8 252.6l-2.6-1.47.32-2.07 2.6 1.48zm4.9 2.8l-3.44-1.96.33-2.06 3.43 1.95z" class="t"/><use xlink:href="#W" x="-6.67" y="42.46" class="t"/><path d="M400.44 260.37l-7.96-4.53.32-2.06 7.96 4.52zm8.9 5.07l-7.46-4.24.33-2.07 7.46 4.24zm3.8 2.16l-2.33-1.32.32-2.07 2.34 1.33z" class="t"/><use xlink:href="#R" x="-3.62" y="74.99" class="t"/><path d="M396.5 263.27l-4.77-2.72.33-2.06 4.77 2.7zm25.88-26.37l6.6 3.76.32-2.06-6.6-3.76zm.67 5.52l5.2 2.96.32-2.07-5.2-2.95zm.7 5.53l3.76 2.14.32-2.06-3.76-2.14z" class="t"/><use xlink:href="#X" x="-6.67" y="42.46" class="t"/><path d="M422.27 257.38l3.76 2.14.32-2.07-3.76-2.14zm-1.75 4.14l4.77 2.7.32-2.06-4.77-2.72zm1.43 5.95l2.6 1.47.32-2.06-2.6-1.48zm-3.18 3.33l5.04 2.87.32-2.07-5.04-2.86zm-.47 4.86l4.77 2.7.32-2.06-4.77-2.7zm-18.3-10.4l-2.03-1.16.33-2.06 2.02 1.15zm6 3.42l-4.56-2.6.32-2.07 4.57 2.6zm1.64 15.86l-7.7-4.38.33-2.07 7.7 4.4zm5.26 3l-3.03-1.73.32-2.06 3.04 1.73z" class="t"/><use xlink:href="#F" x="-88.93" y="-51.02" class="t"/><use xlink:href="#G" x="-88.93" y="-51.02" class="t"/><path d="M296.6 118.78l-2.33-1.33.33-2.06 2.33 1.32zm-13.75-2.7l-5.2-2.95.33-2.06 5.2 2.95zm7.83 4.46l-6.37-3.63.32-2.06 6.37 3.62z" class="t"/><use xlink:href="#H" x="-91.08" y="-47.1" class="t"/><use xlink:href="#Y" class="t"/><use xlink:href="#J" x="-88.93" y="-51.02"/><path d="M283.42 121.54l-1.3-.73.32-2.06 1.3.73z"/><use xlink:href="#K" x="-95.6" y="-80.5" class="t"/><path d="M290.05 130.45l-13.88-7.9.33-2.07 13.88 7.9z" class="t"/><use xlink:href="#G" x="-86.81" y="-34.41" class="t"/><path d="M279.2 129.4l-3.76-2.14.32-2.06 3.77 2.14zm8.82 5.03l-7.37-4.2.32-2.07 7.37 4.2z" class="t"/><use xlink:href="#Y" x="-6.28" y="11.84" class="t"/><path d="M282.38 136.36l-7.7-4.38.32-2.06 7.7 4.38z" class="t"/><path d="M289.4 140.35l-5.57-3.16.33-2.06 5.56 3.16z"/><use xlink:href="#J" x="-74.98" y="-27.68" class="t"/><path d="M276.55 138.18l-2.6-1.48.32-2.07 2.6 1.48zm4.9 2.78L278 139l.32-2.06 3.43 1.95zm7 3.97l-5.53-3.14.32-2.07 5.54 3.15zm-7.26 1l-7.96-4.53.32-2.06 7.96 4.53zm8.93 5.06l-7.46-4.24.32-2.07 7.46 4.25z" class="t"/><path d="M293.88 153.17l-2.34-1.33.33-2.07 2.33 1.33z"/><use xlink:href="#Y" x="-0.56" y="30.49" class="t"/><path d="M277.24 148.84l-4.77-2.72.32-2.06 4.77 2.7z" class="t"/><path d="M303.1 122.47l6.6 3.76.33-2.06-6.62-3.76z"/><path d="M303.8 128l5.2 2.96.33-2.07-5.2-2.95z" class="t"/><use xlink:href="#L" x="-88.92" y="-51.02" class="t"/><path d="M302.03 137.26l5.47 3.1.33-2.06-5.47-3.1zm.97 5.7l3.76 2.14.33-2.07-3.76-2.13z" class="t"/><use xlink:href="#M" x="-88.93" y="-51" class="t"/><path d="M302.68 153.04l2.6 1.48.33-2.07-2.6-1.48zm-3.18 3.33l5.04 2.86.32-2.06-5.03-2.87zm-.47 4.86l4.77 2.7.32-2.06-4.77-2.7zm-18.3-10.4l-2.02-1.15.32-2.07 2.03 1.16zm6.03 3.42l-4.57-2.6.33-2.07 4.56 2.6z" class="t"/><use xlink:href="#O" x="-88.93" y="-51.02" class="t"/><path d="M329.83 137.58l-3.44-1.96.33-2.06 3.43 1.95z" class="t"/><use xlink:href="#Y" x="35.54" y="14.99"/><path d="M319.85 137.04l-5.2-2.96.32-2.06 5.2 2.96zm7.83 4.46l-6.37-3.62.33-2.06 6.36 3.62z" class="t"/><path d="M331.47 143.65l-2.33-1.33.32-2.06 2.34 1.32z"/><use xlink:href="#S" x="-88.92" y="-51.02" class="t"/><use xlink:href="#V" x="-102.88" y="-74.36" class="t"/><path d="M320.42 142.5l-1.3-.73.33-2.07 1.28.73z" class="t"/><use xlink:href="#I" x="-59.2" y="-29.05" class="t"/><path d="M327.06 151.4l-13.9-7.9.33-2.06 13.88 7.9zm4.9 2.8l-3.44-1.95.33-2.07 3.43 1.95zm-15.75-3.84l-3.77-2.13.33-2.07 3.76 2.14zm8.82 5.02l-7.37-4.2.33-2.06 7.36 4.2z" class="t"/><use xlink:href="#R" x="-91.6" y="-37.13" class="t"/><path d="M319.4 157.32l-7.7-4.38.33-2.06 7.7 4.37z"/><path d="M326.4 161.3l-5.56-3.17.32-2.06 5.56 3.17z" class="t"/><use xlink:href="#U" x="-73.5" y="-37.12" class="t"/><path d="M313.55 159.13l-2.6-1.48.33-2.06 2.6 1.48z" class="t"/><use xlink:href="#G" x="-63.31" y="-5.74" class="t"/><use xlink:href="#W" x="-88.93" y="-51"/><path d="M318.17 166.9l-7.96-4.52.33-2.07 7.96 4.53zm8.93 5.06l-7.46-4.24.33-2.06 7.45 4.24z" class="t"/><use xlink:href="#R" x="-89.52" y="-20.55" class="t"/><use xlink:href="#S" x="-89.48" y="-20.52" class="t"/><path d="M314.24 169.8l-4.77-2.7.33-2.06 4.77 2.7z" class="t"/><path d="M340.1 143.43l6.62 3.76.32-2.06-6.6-3.77z"/><path d="M340.8 148.95l5.2 2.95.32-2.06-5.2-2.96zm.7 5.53l3.76 2.14.32-2.07-3.76-2.14z" class="t"/><use xlink:href="#X" x="-88.93" y="-51.02" class="t"/><path d="M340 163.9l3.77 2.13.32-2.06-3.76-2.14zm-1.74 4.15l4.76 2.7.33-2.07-4.77-2.7zm1.44 5.95l2.6 1.48.33-2.06-2.6-1.48zm-3.2 3.32l5.03 2.86.33-2.06-5.04-2.86zm-.47 4.88l4.77 2.7.33-2.06-4.77-2.72z" class="t"/><path d="M317.73 171.78l-2.03-1.16.32-2.06 2.03 1.15z"/><use xlink:href="#N" x="-51.93" y="-30.07" class="t"/><use xlink:href="#F" x="-95.6" y="-8.56" class="t"/><use xlink:href="#G" x="-95.6" y="-8.57" class="t"/><use xlink:href="#H" x="-95.6" y="-8.57" class="t"/><path d="M276.18 158.54l-5.2-2.96.33-2.06 5.2 2.95zM284 163l-6.37-3.63.32-2.06 6.37 3.62z" class="t"/><use xlink:href="#I" x="-95.6" y="-8.56" class="t"/><use xlink:href="#Y" x="-6.68" y="42.46" class="t"/><use xlink:href="#J" x="-95.6" y="-8.57" class="t"/><path d="M276.75 164l-1.3-.73.33-2.06 1.28.73z" class="t"/><use xlink:href="#K" x="-102.26" y="-38.05" class="t"/><path d="M283.38 172.9L269.5 165l.33-2.07 13.88 7.9z" class="t"/><use xlink:href="#G" x="-93.48" y="8.04" class="t"/><use xlink:href="#J" x="-97.08" y="0.86" class="t"/><path d="M281.35 176.88l-7.37-4.2.32-2.07 7.37 4.2z" class="t"/><use xlink:href="#I" x="-98.26" y="5.33" class="t"/><path d="M275.72 178.8l-7.7-4.38.33-2.06 7.7 4.38zm7.02 4l-5.57-3.16.33-2.06 5.56 3.16z" class="t"/><use xlink:href="#T" x="-118.64" y="-6.19" class="t"/><path d="M269.88 180.63l-2.6-1.48.33-2.07 2.6 1.48zm4.9 2.77l-3.43-1.96.32-2.06 3.44 1.95zm7 3.98l-5.53-3.14.32-2.07 5.54 3.15zm-7.26 1.02l-7.96-4.53.32-2.06 7.97 4.53zm8.92 5.06l-7.46-4.24.32-2.07 7.46 4.25z" class="t"/><use xlink:href="#K" x="-95.6" y="-8.58" class="t"/><use xlink:href="#Y" x="-7.23" y="72.94" class="t"/><path d="M270.57 191.3l-4.77-2.7.32-2.07 4.77 2.7zm25.87-26.38l6.62 3.76.32-2.06-6.6-3.76zm.68 5.52l5.2 2.96.33-2.07-5.2-2.95z" class="t"/><use xlink:href="#L" x="-95.6" y="-8.57" class="t"/><path d="M295.36 179.7l5.47 3.1.33-2.06-5.47-3.1z" class="t"/><use xlink:href="#L" x="-97.07" y="0.86" class="t"/><use xlink:href="#M" x="-95.6" y="-8.56" class="t"/><path d="M296 195.5l2.6 1.48.33-2.07-2.6-1.48zm-3.16 3.32l5.03 2.86.33-2.06-5.04-2.87z" class="t"/><use xlink:href="#M" x="-97.82" y="5.58" class="t"/><path d="M274.06 193.27l-2.03-1.15.32-2.07 2.03 1.16z" class="t"/><use xlink:href="#N" x="-95.6" y="-8.57" class="t"/><path d="M281.7 212.55l-7.7-4.38.32-2.06 7.7 4.38zm5.28 3l-3.04-1.72.33-2.07 3.03 1.73z" class="t"/><use xlink:href="#O" x="-95.6" y="-8.57" class="t"/><use xlink:href="#P" x="-95.6" y="-8.57" class="t"/><use xlink:href="#I" x="-56.45" y="8.48" class="t"/><path d="M313.18 179.5l-5.2-2.95.32-2.07 5.2 2.96zm7.82 4.44l-6.37-3.62.33-2.06 6.37 3.62z" class="t"/><use xlink:href="#R" x="-95.6" y="-8.57" class="t"/><use xlink:href="#S" x="-95.6" y="-8.57" class="t"/><use xlink:href="#V" x="-109.56" y="-31.9" class="t"/><path d="M313.75 184.95l-1.3-.73.33-2.07 1.28.73zm3.8 2.15l-2.33-1.32.32-2.07 2.34 1.33zm2.86 6.76l-13.88-7.9.32-2.06 13.88 7.9z" class="t"/><use xlink:href="#P" x="-93.48" y="8.04" class="t"/><use xlink:href="#U" x="-95.6" y="-8.58" class="t"/><path d="M318.35 197.83l-7.37-4.2.33-2.06 7.37 4.2z" class="t"/><use xlink:href="#R" x="-98.26" y="5.33" class="t"/><path d="M312.72 199.77l-7.7-4.38.32-2.06 7.7 4.37zm7.02 4l-5.56-3.17.32-2.06 5.57 3.17z" class="t"/><use xlink:href="#U" x="-80.17" y="5.33" class="t"/><path d="M306.88 201.58l-2.6-1.48.33-2.06 2.6 1.48zm4.9 2.78l-3.44-1.95.33-2.06 3.43 1.95z" class="t"/><use xlink:href="#W" x="-95.6" y="-8.56" class="t"/><path d="M311.5 209.34l-7.96-4.52.33-2.07 7.96 4.53zm8.92 5.08l-7.46-4.25.33-2.06 7.46 4.24z" class="t"/><use xlink:href="#R" x="-96.2" y="21.9" class="t"/><use xlink:href="#S" x="-96.15" y="21.92" class="t"/><path d="M307.57 212.24l-4.77-2.7.33-2.06 4.77 2.7zm25.87-26.36l6.62 3.76.32-2.06-6.6-3.77zm.68 5.52l5.2 2.95.32-2.06-5.2-2.96zm.7 5.53l3.76 2.14.32-2.07-3.76-2.13z" class="t"/><use xlink:href="#X" x="-95.6" y="-8.57" class="t"/><path d="M333.34 206.36l3.76 2.13.32-2.06-3.76-2.14zm-1.74 4.14l4.77 2.7.32-2.07-4.77-2.7zm1.42 5.94l2.6 1.48.32-2.06-2.6-1.48zm-3.18 3.33l5.04 2.87.32-2.07-5.04-2.86zm-.47 4.87l4.76 2.7.33-2.06-4.77-2.72zm-18.3-10.4l-2.03-1.16.32-2.06 2.03 1.15zm6.02 3.42l-4.56-2.6.32-2.06 4.57 2.6zm1.62 15.85l-7.7-4.38.32-2.07 7.7 4.38zm5.28 3l-3.03-1.73.32-2.06 3.04 1.72z" class="t"/></g><linearGradient id="x" gradientUnits="userSpaceOnUse" x1="385.977" y1="260.362" x2="326.91" y2="154.005"><stop offset="0" stop-color="#5778ff"/><stop offset=".04" stop-color="#5c7dff"/><stop offset=".087" stop-color="#6a8aff"/><stop offset=".137" stop-color="#82a0ff"/><stop offset=".19" stop-color="#a3beff"/><stop offset=".224" stop-color="#bcd5ff"/></linearGradient><path d="M286.42 159.9l8.9-5.12c.12-.08.27-.08.44.02l111.64 64.46c.36.2.66.77.66 1.26v21.08c0 .23-.07.4-.18.5h-.01c-.01.01-.02.01-.03.02l-9 5.18-.07-10.18-103.02-59.48c-.36-.2-.66-.77-.66-1.26v-7.23l-8.68-9.25z" fill="url(#x)"/><linearGradient id="y" gradientUnits="userSpaceOnUse" x1="313.414" y1="260.739" x2="352.729" y2="183.884"><stop offset="0" stop-color="#c0d6ff"/><stop offset=".298" stop-color="#c5dbff"/><stop offset=".649" stop-color="#d3e9ff"/><stop offset="1" stop-color="#e9ffff"/></linearGradient><path d="M286.82 182.8l111.64 64.46c.36.2.66-.01.66-.5v-21.08c0-.5-.3-1.05-.66-1.26l-111.64-64.46c-.36-.2-.66.01-.66.5v21.08c0 .48.3 1.05.66 1.26z" fill="url(#y)"/><g class="u"><path d="M302.22 178.53l86.93 51.1c-2.7 2.3-5.23 4.96-7.57 7.87L294 186.95c2.52-3.14 5.28-5.98 8.2-8.42z" opacity=".6"/><path d="M290 176.47l105.27 60.78c.25.14.45-.01.45-.34v-5.3c0-.33-.2-.72-.45-.86L290 169.97c-.25-.14-.45.01-.45.34v5.3c0 .34.2.72.45.87z"/></g><path d="M290 169.97l2.14 1.24v2.86c0 .33.2.72.45.86l103.13 59.54v2.44c0 .33-.2.48-.45.34L290 176.47c-.25-.14-.45-.53-.45-.86v-5.3c0-.34.2-.5.45-.35z" class="v"/><linearGradient id="z" gradientUnits="userSpaceOnUse" x1="207.153" y1="398.891" x2="332.103" y2="177.491"><stop offset="0" stop-color="#c0d6ff"/><stop offset=".078" stop-color="#c3d9ff"/><stop offset=".134" stop-color="#cce2ff"/><stop offset=".183" stop-color="#dcf2ff"/><stop offset=".212" stop-color="#e9ffff"/><stop offset=".256" stop-color="#d8eeff"/><stop offset=".315" stop-color="#cbe1ff"/><stop offset=".387" stop-color="#c2d8ff"/><stop offset=".514" stop-color="#c0d6ff"/><stop offset=".624" stop-color="#d0e6ff"/><stop offset=".755" stop-color="#e9ffff"/><stop offset="1" stop-color="#c0d6ff"/></linearGradient><path d="M230.86 404.5l-87.58-50.56c11.3-6.52 20.82-20.8 23.73-34.45 1.18-5.53 4.57-10.34 9.46-13.17l66.18-38.2c18.43-10.64 30.38-29.8 31.63-51.05 1.06-17.94 14.62-35.58 25.15-41.66L387 225.98c-10.37 6-21.8 22.72-23.1 40.36-1.57 21.25-13.12 40.47-31.57 51.13l-68.3 39.43c-4.9 2.83-8.3 7.63-9.46 13.17-2.9 13.64-12.43 27.92-23.73 34.44z" opacity=".96" fill="url(#z)"/><path d="M299.44 175.42l87.58 50.56-2.1 1.3h-.01l-87.57-50.56 2.1-1.3z" opacity=".8" class="v"/><path d="M332.37 235.22l15.36 8.9.13-1.78-15.34-8.86zm-7.74-4.48l5.43 3.14.15-1.73-5.42-3.13zm-5.93-3.44l3.65 2.12.17-1.7-3.65-2.1zm20.3 15.98l8.45 4.92.12-1.8-8.43-4.9zm-12.52-7.3l10.17 5.93.15-1.76-10.16-5.9zm-5.98-3.48l3.67 2.15.17-1.74-3.67-2.13zm-5.65-3.3l3.65 2.12.17-1.72-3.64-2.1zM341 248.7l6.15 3.6.12-1.8-6.13-3.58zm-4.44-2.6l2.08 1.22.15-1.8-2.08-1.2zm-6.1-3.58l3.74 2.2.15-1.77-3.74-2.2zm-6.1.68l22.5 13.25.12-1.82-22.46-13.2zm-7.77-4.58l5.44 3.2.17-1.75-5.43-3.2zm23.78 18.33l6.2 3.67.13-1.84-6.18-3.65zm-14.32-8.48l11.93 7.07.15-1.82-11.92-7.03zm-6.06-3.6l3.72 2.2.17-1.78-3.72-2.2zm13.6 12.42l12.67 7.54.13-1.85-12.65-7.5zm-11.34-6.77l8.98 5.34.15-1.8-8.96-5.32zm-8.32-4.95l5.98 3.56.18-1.8-5.97-3.54zm27.72 20.92l4.32 2.6.13-1.87-4.3-2.57zm-8.06-4.84l5.65 3.4.14-1.85-5.64-3.37zm-11.36-6.8l8.97 5.38.16-1.83-8.96-5.35zm10.23 10.54l13.2 7.95.13-1.88-13.18-7.92zm-14.5-8.7l12.1 7.28.16-1.84-12.08-7.25zm-6.08-3.66l3.73 2.24.18-1.8-3.72-2.24zm-5.76-3.48l3.7 2.23.2-1.8-3.7-2.22zm31.26 23.3l7.98 4.82.13-1.9-7.96-4.8zm-35.14-55.1l-10-5.8.2-1.64 9.98 5.76zm-2.63 2.57l-7.86-4.58.22-1.66 7.85 4.56zm-2.66 2.56l-5.7-3.34.23-1.67 5.7 3.33zm2.13 5.4l-8.34-4.9.22-1.7 8.33 4.9zm-3.1 2.37l-5.74-3.4.22-1.7 5.74 3.4zm1.05 4.85l-7.32-4.36.23-1.7 7.3 4.34zm-3.85 1.98l-4-2.4.23-1.72 4 2.38zm3.28 6.25l-7.8-4.7.23-1.74 7.78 4.67zm-.92 3.8l-7.4-4.48.23-1.76 7.4 4.47zm36.07 21.82l3.35 2.03.15-1.87-3.34-2.02zm-9.86-5.96l7.46 4.5.16-1.85-7.44-4.5z" opacity=".32" class="v"/><g opacity=".32" class="v"><path d="M275.82 293.2l-22.84-13.18 1.64-.94 22.83 13.18z"/><use xlink:href="#Z"/><use xlink:href="#a"/><use xlink:href="#Z" x="19.05" y="11"/><path d="M256.28 285.83l-6.67-3.85 1.63-.94 6.67 3.85zm29.44 17l-24.4-14.1 1.63-.94 24.4 14.1z"/><use xlink:href="#a" x="-3.36" y="1.94"/><path d="M304.77 313.83l-8.24-4.76 1.63-.94 8.24 4.75zm-55.2-27.98l-3.33-1.92 1.63-.95 3.33 1.93zm9 5.2l-3.95-2.28 1.63-.94 3.96 2.28z"/><use xlink:href="#a" x="-30.52" y="-9.84"/><use xlink:href="#Z" x="-11.5" y="1.16"/><path d="M249.53 289.73l-6.67-3.86 1.63-.94 6.67 3.85z"/><use xlink:href="#Z" x="-26.3" y="-3.48"/><use xlink:href="#b"/><use xlink:href="#Z" x="-7.24" y="7.52"/><path d="M262.07 301.15l-22.84-13.18 1.63-.94 22.84 13.18z"/><use xlink:href="#Z" x="-13.75" y="7.94"/><use xlink:href="#a" x="-13.74" y="7.94"/><path d="M294.4 319.82l-8.24-4.76 1.63-.94 8.24 4.75zm-51.87-26.05l-6.67-3.85 1.63-.95 6.67 3.86zm29.44 17l-24.4-14.1 1.63-.95 24.4 14.1zm6.6 3.8l-2.4-1.4 1.63-.94 2.42 1.4zm12.44 7.18l-8.24-4.75 1.63-.94 8.24 4.75zm-55.2-27.96l-3.33-1.93 1.63-.94 3.33 1.93zm8.98 5.18l-3.95-2.28 1.63-.94 3.95 2.28zm6.63 3.82l-2.42-1.4 1.63-.95 2.42 1.4z"/><use xlink:href="#Z" x="-25.24" y="9.1"/><path d="M235.78 297.66l-6.67-3.85 1.63-.94 6.67 3.85z"/><use xlink:href="#Z" x="-40.04" y="4.45"/><use xlink:href="#b" x="-13.75" y="7.95"/><use xlink:href="#Z" x="-21" y="15.45"/><path d="M248.32 309.1l-22.84-13.18 1.63-.94 22.84 13.18z"/><use xlink:href="#Z" x="-27.5" y="15.88"/><use xlink:href="#a" x="-27.5" y="15.87"/><path d="M280.65 327.75L272.4 323l1.63-.94 8.24 4.75zm-51.87-26.05l-6.67-3.85 1.63-.95 6.67 3.86zm29.44 17l-24.4-14.08 1.63-.95 24.4 14.1z"/><use xlink:href="#b" x="-4.59" y="21.32"/><path d="M277.27 329.7l-8.24-4.75 1.63-.95 8.24 4.76zm-55.2-27.97l-3.33-1.93 1.63-.94 3.33 1.93zm9 5.2l-3.95-2.28 1.63-.94 3.95 2.28z"/><use xlink:href="#a" x="-58.02" y="6.04"/><use xlink:href="#Z" x="-39" y="17.04"/><path d="M222.03 305.6l-6.67-3.85 1.63-.94 6.67 3.85z"/><use xlink:href="#Z" x="-53.8" y="12.39"/><use xlink:href="#b" x="-27.5" y="15.9"/><use xlink:href="#Z" x="-34.74" y="23.39"/></g><path d="M188.4 200.04l-31.77-18.34 31.77-18.34 31.77 18.34-31.77 18.34zm-30.04-18.35l30.04 17.34 30.04-17.34-30.04-17.34-30.04 17.34zM125.6 417.35L93.82 399l31.77-18.34L157.37 399l-31.78 18.35zM95.55 399l30.04 17.34L155.63 399l-30.04-17.34L95.55 399zm249.4-325.6l-31.77-18.34 31.77-18.34 31.77 18.34-31.77 18.34zM314.9 55.05l30.04 17.34 30.04-17.34-30.04-17.34-30.04 17.34zm156.05 307.9l-31.77-18.34 31.77-18.34 31.77 18.34-31.77 18.34zM440.9 344.6l30.04 17.34L501 344.6l-30.04-17.34-30.04 17.34z" fill="#88fff3"/></svg>